<svg width="40" height="40" viewBox="0 0 40 40" fill="none" xmlns="http://www.w3.org/2000/svg">
<g clip-path="url(#clip0_515_5829)">
<path d="M39.9145 28.7077L27.8834 5.11398C27.6964 4.74734 27.257 4.58859 26.8787 4.75116C23.1882 6.33835 20.4173 6.3321 15.4755 4.72585C15.1142 4.60874 14.6947 4.78796 14.5301 5.13077L3.21414 28.6992L0.102885 34.1438C-0.111178 34.5184 0.0189787 34.9956 0.393666 35.2098C0.764057 35.4216 1.24859 35.2883 1.45953 34.919L3.12492 32.0045V34.5314C3.12492 34.9628 3.47476 35.3127 3.90617 35.3127H39.2186C39.65 35.3127 39.9998 34.9628 39.9998 34.5314C39.9998 34.5314 39.9998 29.0648 39.9998 29.0627C39.9998 29.0456 39.9623 28.8014 39.9145 28.7077ZM8.74999 26.172V33.7502H4.68749V29.2405L14.4531 8.90101V24.4326L9.38406 25.4047C9.01609 25.4753 8.74999 25.7973 8.74999 26.172ZM10.3124 26.8176L13.6598 26.1757L10.3124 31.724V26.8176ZM10.915 33.7502L15.2344 26.5907L19.5537 33.7502H10.915ZM20.1562 31.7241L16.859 26.2587L20.1562 27.0266V31.7241ZM25.9375 33.7502H21.7187V26.4064C21.7187 26.0432 21.4684 25.7279 21.1147 25.6455L16.0156 24.4581V8.85898L25.9375 29.2426V33.7502ZM18.8877 11.1894C19.328 11.2894 19.8285 11.391 20.3616 11.4775C20.7806 11.5472 21.1905 11.2488 21.2577 10.8313C21.3264 10.4055 21.0366 10.004 20.6116 9.93523C19.7787 9.80007 19.0225 9.62195 18.5342 9.49538C18.3466 9.44741 18.1658 9.39773 17.9912 9.34796L16.72 6.73601C20.2602 7.71913 23.1769 7.87523 26.8179 6.46406L37.9433 28.2815H27.2073L18.8877 11.1894ZM27.4999 33.7502V31.3544L29.348 33.7502H27.4999ZM38.4373 33.7502H31.3214L28.308 29.8439H38.4373V33.7502Z" fill="#FA6741"/>
<path d="M23.6008 11.6562C24.0323 11.6562 24.382 11.3065 24.382 10.875C24.382 10.4435 24.0323 10.0938 23.6008 10.0938C23.1693 10.0938 22.8195 10.4435 22.8195 10.875C22.8195 11.3065 23.1693 11.6562 23.6008 11.6562Z" fill="#FA6741"/>
</g>
<defs>
<clipPath id="clip0_515_5829">
<rect width="40" height="40" fill="white"/>
</clipPath>
</defs>
</svg>
