<svg width="40" height="40" viewBox="0 0 40 40" fill="none" xmlns="http://www.w3.org/2000/svg">
<g clip-path="url(#clip0_515_5844)">
<path d="M14.6387 38.5244C14.4336 38.5244 14.2322 38.6082 14.0869 38.7537C13.9417 38.8993 13.858 39.1011 13.858 39.3069C13.858 39.5124 13.9417 39.7142 14.0869 39.8597C14.2322 40.0053 14.4336 40.0891 14.6387 40.0891C14.8441 40.0891 15.0455 40.0053 15.1907 39.8597C15.336 39.7142 15.4196 39.5124 15.4196 39.3069C15.4196 39.1011 15.336 38.8993 15.1907 38.7537C15.0455 38.6082 14.8441 38.5244 14.6387 38.5244Z" fill="#FA6741"/>
<path d="M39.1413 16.4912C38.9359 16.4912 38.7345 16.575 38.5892 16.7205C38.4439 16.8661 38.3606 17.0679 38.3606 17.2737C38.3606 17.4801 38.4439 17.681 38.5892 17.8265C38.7345 17.9721 38.9359 18.0559 39.1413 18.0559C39.3466 18.0559 39.5481 17.9721 39.693 17.8265C39.8383 17.681 39.9219 17.4801 39.9219 17.2737C39.9219 17.0679 39.8383 16.8661 39.693 16.7205C39.5481 16.575 39.3466 16.4912 39.1413 16.4912Z" fill="#FA6741"/>
<path d="M33.129 10.144C32.1893 9.20283 30.661 9.20313 29.7217 10.144L29.3094 10.5571L21.7584 2.99136C21.1273 2.35902 20.2881 2.01074 19.3957 2.01074C18.5034 2.01074 17.6642 2.35902 17.0331 2.99136L8.95781 11.0821L5.44066 7.55808C5.02623 7.14284 4.47508 6.91412 3.88884 6.91412C3.30229 6.91412 2.75115 7.14284 2.33672 7.55808L0.178513 9.7205C-0.126358 10.026 -0.126358 10.5213 0.178513 10.8268C0.483383 11.1323 0.977768 11.1323 1.28264 10.8268L3.44084 8.66436C3.68773 8.41699 4.08995 8.41699 4.33684 8.66436L7.85399 12.1884L0.150436 19.907C-0.154434 20.2125 -0.154434 20.7075 0.150436 21.0133C0.303024 21.1659 0.50261 21.2423 0.7025 21.2423C0.90239 21.2423 1.10228 21.1659 1.25456 21.0133L18.1372 4.09764C18.4732 3.76068 18.9203 3.57508 19.3957 3.57508C19.8712 3.57508 20.318 3.76068 20.6543 4.09764L28.2053 11.6634L22.3315 17.5486L20.1388 15.6017C21.3992 15.199 22.3148 14.0148 22.3148 12.6201C22.3148 10.895 20.9137 9.49148 19.1919 9.49148C17.4701 9.49148 16.069 10.895 16.069 12.6201C16.069 12.6587 16.0705 12.6969 16.0721 12.7351C14.9344 12.5477 13.7256 12.8914 12.85 13.7686L7.62297 19.0059C7.62114 19.0077 7.61992 19.0096 7.61809 19.0114C7.59764 19.0325 7.57811 19.0545 7.5598 19.0781C7.55767 19.0808 7.55523 19.0836 7.55309 19.086C7.55248 19.0872 7.55156 19.0882 7.55095 19.0891C7.22808 19.5193 7.03337 20.0275 6.97295 20.5757H4.97008C4.53887 20.5757 4.18944 20.9259 4.18944 21.3579V22.1407C4.18944 23.5509 5.33476 24.6985 6.74254 24.6985H8.19884L7.94066 25.8146C7.66448 25.7818 7.38341 25.7644 7.09838 25.7644C3.15672 25.7644 -0.0500641 28.9775 -0.0500641 32.9268C-0.0500641 35.1902 1.0034 37.2113 2.64433 38.5249H0.730576C0.299362 38.5249 -0.0500641 38.8753 -0.0500641 39.3071C-0.0500641 39.7392 0.299362 40.0893 0.730576 40.0893H7.09838C10.4837 40.0893 13.327 37.7192 14.0622 34.548C14.205 34.7052 14.4101 34.8043 14.639 34.8043H18.8718C19.2752 36.2919 20.1465 37.5883 21.3165 38.5249H17.7386C17.3074 38.5249 16.958 38.8753 16.958 39.3071C16.958 39.7392 17.3074 40.0893 17.7386 40.0893H25.7703C29.7119 40.0893 32.9187 36.8765 32.9187 32.9268C32.9187 28.9775 29.7119 25.7644 25.7703 25.7644C25.3705 25.7644 24.9783 25.798 24.5962 25.8616L24.5764 25.7907C24.2187 24.5178 24.0375 23.2017 24.0375 21.8793V20.1975H25.4138C25.8389 20.1975 26.1847 20.5439 26.1847 20.9699C26.1847 21.3955 25.8389 21.7423 25.4138 21.7423C24.9826 21.7423 24.6332 22.0924 24.6332 22.5244C24.6332 22.9562 24.9826 23.3066 25.4138 23.3066C26.6998 23.3066 27.746 22.2584 27.746 20.9699C27.746 19.6814 26.6998 18.6329 25.4138 18.6329H23.5529L23.5022 18.5879L30.8258 11.2503C31.156 10.9191 31.694 10.9191 32.0248 11.2503L36.5723 15.8066C36.8771 16.1121 37.3715 16.1121 37.6764 15.8066C37.9813 15.5011 37.9813 15.0058 37.6764 14.7003L33.129 10.144ZM15.1968 30.6819L14.0668 25.7458C14.0182 25.5339 13.884 25.3519 13.6963 25.2431L9.56359 22.8522C9.07042 22.5669 8.68499 22.0016 8.55803 21.3772C8.49242 21.0558 8.50005 20.7503 8.57695 20.4819L12.6382 21.6053L14.9557 23.9273C15.5276 24.5003 15.9073 25.2238 16.0541 26.0203L16.803 30.6819H15.1968ZM9.10674 27.7048C10.964 28.4243 12.3444 30.1104 12.6297 32.145H8.08043L9.10674 27.7048ZM16.0599 22.821L14.1486 20.9063L16.6125 18.4372L22.4976 22.7085C22.5049 22.8507 22.5146 22.9926 22.5259 23.1342H16.3495C16.2573 23.0265 16.1606 22.9223 16.0599 22.821ZM19.1919 11.0558C20.0528 11.0558 20.7532 11.7576 20.7532 12.6205C20.7532 13.483 20.0528 14.1848 19.1919 14.1848C18.331 14.1848 17.6303 13.483 17.6303 12.6205C17.6303 11.7576 18.331 11.0558 19.1919 11.0558ZM13.9542 14.8752C14.7879 14.0395 16.1447 14.0395 16.9784 14.8749L17.0599 14.9566C17.0709 14.9676 17.0825 14.9786 17.0941 14.989L22.4759 19.7673V20.761L16.9894 16.779C16.8518 16.6793 16.6913 16.6304 16.5317 16.6304C16.3306 16.6304 16.1304 16.708 15.9793 16.8594L12.814 20.0312L12.1109 19.8367L9.67498 19.1628L13.9542 14.8752ZM5.75103 22.1407L7.14934 22.1404C7.26714 22.4963 7.43377 22.832 7.64128 23.1342H6.74254C6.19567 23.1342 5.75103 22.6886 5.75103 22.1407ZM9.78148 24.7847L12.6208 26.4276L13.2904 29.3511C12.4408 27.8801 11.0843 26.7386 9.46196 26.1674L9.78148 24.7847ZM7.09838 38.5249C4.01763 38.5249 1.51122 36.0139 1.51122 32.9271C1.51122 29.8404 4.01763 27.3291 7.09838 27.3291C7.26256 27.3291 7.42491 27.3379 7.58544 27.3517L6.33757 32.7507C6.28386 32.9831 6.3391 33.2271 6.48711 33.4139C6.63512 33.6008 6.86003 33.7093 7.09807 33.7093H12.6297C12.2485 36.427 9.91393 38.5249 7.09838 38.5249ZM15.4196 33.2403V32.2462H17.0828C17.1796 32.2462 17.2739 32.2554 17.366 32.2716C17.4664 32.3263 17.579 32.359 17.6971 32.3654C18.0991 32.5275 18.4238 32.8431 18.5971 33.2403H15.4196ZM25.7703 27.3291C28.851 27.3291 31.3574 29.8404 31.3574 32.9271C31.3574 36.0136 28.851 38.5249 25.7703 38.5249C23.0704 38.5249 20.8118 36.5958 20.2948 34.0411C20.2948 34.0347 20.2957 34.0285 20.2957 34.0221V33.9007C20.2957 33.6139 20.2576 33.336 20.1871 33.0712C20.1855 33.0232 20.1834 32.9751 20.1834 32.9268C20.1834 30.6421 21.5573 28.6738 23.5202 27.8048L25.0189 33.139C25.1157 33.484 25.4291 33.7093 25.77 33.7093C25.8398 33.7093 25.9113 33.6998 25.9817 33.68C26.3968 33.5628 26.6388 33.1308 26.5219 32.7149L25.0232 27.3804C25.2676 27.3477 25.517 27.3291 25.7703 27.3291ZM18.8318 31.2026C18.7045 31.1194 18.5712 31.0451 18.4323 30.9806L17.5943 25.7632C17.5934 25.7577 17.5925 25.7522 17.5915 25.7467C17.5256 25.3853 17.4246 25.0348 17.2919 24.6988H22.7264C22.8174 25.2088 22.933 25.7149 23.0734 26.2148L23.0936 26.2864C20.993 27.1392 19.386 28.9649 18.8318 31.2026Z" fill="#FA6741"/>
<path d="M30.4257 7.96653L37.3761 7.9702C38.7799 7.9702 39.9219 6.82569 39.9219 5.41944C39.9219 4.01289 38.7799 2.86838 37.3761 2.86838C37.3431 2.86838 37.3105 2.86899 37.2778 2.87021C36.7883 1.2273 35.2643 0.0390625 33.4851 0.0390625C32.4417 0.0390625 31.4572 0.442071 30.7129 1.1744C30.119 1.75842 29.7311 2.49931 29.5886 3.30502C28.6728 3.64841 28.024 4.53729 28.024 5.55979C28.024 6.88685 29.1016 7.96653 30.4257 7.96653ZM30.3644 4.72045C30.7669 4.6917 31.0812 4.35994 31.0892 3.95571C31.1148 2.65862 32.1896 1.6034 33.4851 1.6034C34.7479 1.6034 35.7983 2.59166 35.8765 3.85327C35.8923 4.10921 36.0324 4.34129 36.2515 4.47399C36.4706 4.6067 36.741 4.62352 36.9745 4.51864C37.1014 4.46176 37.2366 4.43271 37.3761 4.43271C37.9187 4.43271 38.3606 4.87547 38.3606 5.41914C38.3606 5.96311 37.9187 6.40556 37.3764 6.40556L30.4263 6.40189C30.426 6.40189 30.426 6.40189 30.426 6.40189C29.9625 6.40189 29.5856 6.02426 29.5856 5.55979C29.5853 5.1204 29.9277 4.75164 30.3644 4.72045Z" fill="#FA6741"/>
</g>
<defs>
<clipPath id="clip0_515_5844">
<rect width="40" height="40" fill="white"/>
</clipPath>
</defs>
</svg>
