<svg width="40" height="40" viewBox="0 0 40 40" fill="none" xmlns="http://www.w3.org/2000/svg">
<g clip-path="url(#clip0_515_5857)">
<path d="M16.8369 31.0958C16.6424 30.9528 16.3838 30.9067 16.151 30.9762H16.1502C15.951 31.0356 15.7862 31.1692 15.687 31.3528C15.5878 31.5364 15.566 31.7473 15.6253 31.9472C15.6738 32.1121 15.7729 32.2527 15.9112 32.3543C16.0448 32.452 16.2088 32.5066 16.3736 32.5066C16.4486 32.5066 16.5236 32.495 16.5963 32.4738C16.7963 32.4144 16.9611 32.2801 17.0611 32.0965C17.1603 31.9129 17.1822 31.7019 17.1228 31.502C17.0736 31.3372 16.9752 31.1965 16.8369 31.0958Z" fill="#FA6741"/>
<path d="M31.0919 31.2465C31.0474 31.2465 31.0021 31.2504 30.9583 31.2582C30.9576 31.2582 30.9576 31.2582 30.9568 31.2582C30.9489 31.259 30.7606 31.2894 30.3935 31.2894C29.8951 31.2894 29.0632 31.2324 27.9336 30.9573C27.8726 30.9433 27.8101 30.9355 27.7484 30.9355C27.3875 30.9355 27.0751 31.1809 26.9899 31.5331C26.8883 31.9512 27.1461 32.3746 27.5648 32.4761C28.8445 32.787 29.8084 32.8519 30.3919 32.8519H30.3935C30.8966 32.8519 31.1786 32.8058 31.2302 32.7964C31.6543 32.7199 31.9363 32.3121 31.8598 31.8886C31.7926 31.5168 31.4693 31.2465 31.0919 31.2465Z" fill="#FA6741"/>
<path d="M39.993 29.1751C39.9358 28.7474 39.5465 28.4469 39.1184 28.5041C39.1125 28.5048 38.7763 28.5409 38.1281 28.4757C38.1398 27.8161 38.1682 27.0808 38.2098 26.2916H39.2156C39.647 26.2916 39.9967 25.9418 39.9967 25.5104C39.9967 25.079 39.647 24.7291 39.2156 24.7291H38.3041C38.7712 17.772 39.9756 8.14601 39.9906 8.02616C40.0263 7.74288 39.9045 7.46265 39.673 7.29538C39.4415 7.1282 39.1372 7.10062 38.8795 7.22343C34.0973 9.50249 30.7828 12.3069 28.8445 14.2583C27.3048 15.8083 26.3694 17.0699 25.9577 17.6689H23.4357V15.3094C23.4357 14.878 23.0859 14.5282 22.6545 14.5282H19.5298C19.0984 14.5282 18.7486 14.878 18.7486 15.3094V17.6689H14.0615V15.3094C14.0615 14.878 13.7117 14.5282 13.2803 14.5282H10.1555C9.72414 14.5282 9.37438 14.878 9.37438 15.3094V17.6689H4.68711V15.3094C4.68711 14.878 4.33734 14.5282 3.90594 14.5282H0.781172C0.349766 14.5282 0 14.878 0 15.3094V31.473C0 31.4815 0.00101563 31.488 0.00125 31.496C0.00148438 31.5047 0.00101563 31.5132 0.0015625 31.5219C0.00203125 31.5301 0.00335938 31.5381 0.0040625 31.5462V31.5463C0.03875 31.9477 0.375391 32.2593 0.780313 32.2593C0.795156 32.2593 0.809219 32.2585 0.824844 32.2577H0.826406C2.65281 32.1546 4.17774 32.0874 5.48781 32.0515C5.9182 32.0398 6.25883 31.6804 6.24711 31.2498C6.24164 31.0444 6.15805 30.853 6.01117 30.7101C5.85883 30.5631 5.65961 30.4835 5.44484 30.4898C5.19961 30.4965 4.94711 30.5044 4.68711 30.5133V26.2916H9.37422V30.5864C9.26531 30.576 9.15656 30.5657 9.05 30.5562C8.83211 30.5366 8.61649 30.6094 8.45477 30.7569C8.30945 30.889 8.22039 31.0694 8.20242 31.2648C8.16414 31.6937 8.48203 32.0741 8.91094 32.1124C9.43898 32.1594 10.0109 32.2202 10.6163 32.2843C11.3326 32.3601 12.0747 32.439 12.8036 32.5008C12.8255 32.503 12.8481 32.5039 12.8708 32.5039C12.874 32.5039 12.8771 32.5035 12.8802 32.5034C12.9943 32.5154 13.108 32.5262 13.2211 32.5347C13.2408 32.5362 13.2605 32.5369 13.2802 32.5369C13.4764 32.5369 13.6663 32.463 13.8113 32.3285C13.9707 32.1806 14.0613 31.973 14.0613 31.7556V26.2916H18.7484V30.8041C18.7484 31.0412 18.8562 31.2655 19.0412 31.4138C19.1811 31.5259 19.3538 31.5853 19.5296 31.5853C19.5864 31.5853 19.6436 31.5791 19.7001 31.5665C19.7692 31.551 19.838 31.5358 19.9065 31.5208C19.9092 31.5202 19.912 31.5201 19.9147 31.5195C20.8505 31.3226 21.7231 31.2226 22.5075 31.2226H22.5138C23.1301 31.2226 23.7066 31.2844 24.2269 31.4055C24.4557 31.4594 24.7019 31.4047 24.887 31.2602C25.026 31.1509 25.1253 30.9961 25.1651 30.8234C25.2635 30.4031 25.0018 29.982 24.5823 29.8844C24.2184 29.7992 23.8347 29.7391 23.4356 29.7023V26.2916H36.6445C36.6095 26.9723 36.5844 27.6141 36.5709 28.2054C36.3859 28.1616 36.1915 28.1119 35.987 28.0553C33.4615 27.3552 32.5884 27.8426 31.5447 28.6663C31.2059 28.9336 31.1481 29.4248 31.4153 29.7636C31.6827 30.1023 32.1738 30.1601 32.5125 29.893C33.2258 29.3301 33.6188 29.02 35.5696 29.561C37.1478 29.9986 38.2352 30.0789 38.8209 30.0789C39.1079 30.0789 39.2745 30.0596 39.3193 30.0536C39.7469 29.9963 40.0503 29.6028 39.993 29.1751ZM3.12477 30.5759C2.63 30.5981 2.11008 30.6237 1.56242 30.6526V16.0908H3.12477V30.5759ZM9.37422 24.7291H4.68711V22.3722H9.37422V24.7291ZM9.37422 20.8097H4.68711V19.2315H9.37422V20.8097ZM12.499 30.905C11.98 30.8565 11.4534 30.8015 10.9366 30.7471V16.0908H12.499V30.905ZM18.7484 24.7291H14.0613V22.3722H18.7484V24.7291ZM18.7484 20.8097H14.0613V19.2315H18.7484V20.8097ZM21.8732 29.6782C21.373 29.7052 20.8548 29.7638 20.3109 29.8552V16.0908H21.8732V29.6782ZM31.2474 14.5989C31.6781 14.5989 32.0286 14.9529 32.0286 15.388C32.0286 15.8232 31.6781 16.1772 31.2474 16.1772C30.8167 16.1772 30.4663 15.8232 30.4663 15.388C30.4663 14.9529 30.8167 14.5989 31.2474 14.5989ZM23.4355 19.2315H28.1227V20.8097H23.4355V19.2315ZM23.4355 24.7291V22.3722H28.9038C29.3352 22.3722 29.685 22.0223 29.685 21.5909V18.4502C29.685 18.0188 29.3352 17.669 28.9038 17.669H27.9023C28.2088 17.2792 28.6 16.8091 29.0802 16.2818C29.4315 17.1364 30.2704 17.7396 31.2474 17.7396C32.5397 17.7396 33.591 16.6847 33.591 15.388C33.591 14.4536 33.045 13.6448 32.2564 13.2658C33.8548 11.9443 35.8453 10.5502 38.2633 9.27913C37.9027 12.279 37.0952 19.2874 36.7368 24.7291H23.4355V24.7291Z" fill="#FA6741"/>
</g>
<defs>
<clipPath id="clip0_515_5857">
<rect width="40" height="40" fill="white"/>
</clipPath>
</defs>
</svg>
