<svg width="36" height="36" viewBox="0 0 36 36" fill="none" xmlns="http://www.w3.org/2000/svg">
<g clip-path="url(#clip0_515_7920)">
<path d="M34.857 29.194C34.1914 29.724 33.2613 29.725 32.5952 29.1962L32.5849 29.1881C31.4028 28.25 29.753 28.2518 28.5728 29.1917C27.9062 29.7228 26.9749 29.7227 26.3082 29.1918C26.307 29.1909 26.306 29.1901 26.3049 29.1892C25.1248 28.2516 23.4767 28.251 22.2962 29.1879L22.2831 29.1981C21.618 29.7261 20.6887 29.7262 20.0246 29.1991L20.0107 29.1881C18.8287 28.25 17.1789 28.2516 15.996 29.1938C15.3305 29.7239 14.4001 29.7247 13.7339 29.1959L13.7213 29.1859C12.5412 28.249 10.8927 28.2493 9.71252 29.1863L9.70057 29.1958C9.03415 29.725 8.10366 29.7244 7.43533 29.192C6.25512 28.2516 4.60505 28.2501 3.4235 29.1879L3.4107 29.198C2.74554 29.726 1.81625 29.726 1.15095 29.1979C0.846667 28.9565 0.404587 29.0073 0.163158 29.3115C-0.0782703 29.6155 -0.0273693 30.0578 0.276772 30.2993C1.45664 31.2357 3.1048 31.2359 4.28425 30.2998L4.29704 30.2897C4.96354 29.7607 5.89382 29.7616 6.56186 30.2938C7.74243 31.2344 9.39285 31.2357 10.575 30.2969L10.587 30.2874C11.2523 29.7591 12.1818 29.759 12.8468 30.287L12.8595 30.2971C14.0416 31.2352 15.6914 31.2338 16.8745 30.2915C17.54 29.7614 18.4701 29.7607 19.1355 30.2886L19.1494 30.2997C19.7395 30.7678 20.4463 31.0019 21.1533 31.0019C21.8602 31.0018 22.5671 30.7678 23.1567 30.2999L23.1697 30.2896C23.8362 29.7608 24.7664 29.7616 25.4318 30.2915C25.4329 30.2924 25.4341 30.2932 25.4352 30.2941C26.6176 31.2335 28.2674 31.2326 29.4487 30.2915C30.1143 29.7615 31.0444 29.7607 31.7104 30.2893L31.7208 30.2974C32.9027 31.2355 34.5526 31.234 35.7329 30.2938C36.0366 30.0519 36.0867 29.6095 35.8447 29.3058C35.603 29.0021 35.1607 28.9519 34.857 29.194Z" fill="#252525"/>
<path d="M34.8572 34.1921C34.1917 34.7221 33.2616 34.723 32.5955 34.1943L32.5852 34.1861C31.4031 33.2481 29.7533 33.2498 28.5731 34.1898C27.9081 34.7194 26.9798 34.7208 26.3134 34.194C26.3118 34.1925 26.3099 34.1911 26.3082 34.1897C25.128 33.2497 23.478 33.2482 22.2946 34.1874L22.2835 34.1963C21.6183 34.7242 20.6891 34.7243 20.025 34.1973L20.0111 34.1862C18.829 33.2483 17.1792 33.2499 15.9963 34.1919C15.3306 34.7222 14.4003 34.7227 13.7343 34.194L13.7217 34.184C12.5415 33.2474 10.8932 33.2475 9.71491 34.1829L9.70106 34.1939C9.03463 34.7231 8.10414 34.7224 7.43582 34.1901C6.25561 33.2498 4.60554 33.2483 3.42399 34.1859L3.41119 34.1961C2.74603 34.7241 1.81674 34.724 1.15144 34.196C0.847155 33.9546 0.405075 34.0055 0.163647 34.3096C-0.077782 34.6137 -0.026881 35.056 0.27726 35.2974C0.867403 35.7657 1.57439 35.9998 2.28153 35.9998C2.9883 35.9998 3.69523 35.7658 4.28474 35.2979L4.29753 35.2878C4.96396 34.7589 5.89417 34.7596 6.56235 35.292C7.74306 36.2325 9.39333 36.2337 10.5736 35.2965L10.5875 35.2855C11.2529 34.7571 12.1823 34.7571 12.8473 35.2851L12.8599 35.2951C14.0418 36.2332 15.6917 36.232 16.875 35.2897C17.5405 34.7597 18.4707 34.7587 19.136 35.2867L19.1499 35.2977C20.3296 36.2339 21.9778 36.234 23.159 35.2966L23.1702 35.2876C23.8349 34.7601 24.7622 34.7596 25.4272 35.2856C25.4289 35.2871 25.4307 35.2884 25.4324 35.2898C26.6148 36.2315 28.2667 36.2314 29.4491 35.2897C30.1144 34.7596 31.0446 34.7586 31.7108 35.2873L31.7211 35.2955C32.9031 36.2335 34.5529 36.232 35.7332 35.2919C36.0369 35.05 36.087 34.6077 35.8452 34.3039C35.6033 34.0001 35.1609 33.9501 34.8572 34.1921Z" fill="#252525"/>
<path d="M35.2952 23.3414H32.2538L30.8477 21.9353H31.3513C31.5378 21.9353 31.7166 21.8612 31.8485 21.7293L35.7924 17.7855C36.0669 17.511 36.0669 17.0658 35.7924 16.7912L33.8039 14.8026C33.6721 14.6708 33.4932 14.5967 33.3068 14.5967C33.1316 14.5967 32.9637 14.6627 32.8346 14.78V8.29603C32.8346 7.90781 32.5197 7.59298 32.1315 7.59298H28.2647V4.21832H29.5302C29.9184 4.21832 30.2333 3.90349 30.2333 3.51527V0.703054C30.2333 0.314827 29.9184 0 29.5302 0H6.47005C6.08182 0 5.76699 0.314827 5.76699 0.703054V3.51527C5.76699 3.90349 6.08182 4.21832 6.47005 4.21832H7.73554V7.59298H3.86875C3.48052 7.59298 3.16569 7.90781 3.16569 8.29603V23.3414H0.705007C0.316781 23.3414 0.00195312 23.6562 0.00195312 24.0444C0.00195312 24.4327 0.316781 24.7475 0.705007 24.7475H8.4386H11.532H24.4682H27.5617H35.2952C35.6835 24.7475 35.9983 24.4327 35.9983 24.0444C35.9983 23.6562 35.6835 23.3414 35.2952 23.3414ZM30.2652 23.3414H28.2647V21.9353H28.8591L30.2652 23.3414ZM23.7652 21.9353V23.3414H16.5757L17.9818 21.9353H23.7652ZM25.1713 21.9353H26.8586V23.3414H25.1713V21.9353ZM34.301 17.2884L31.0601 20.5292H15.2348V19.1231H30.1865C30.373 19.1231 30.5517 19.049 30.6836 18.9171L33.3068 16.294L34.301 17.2884ZM12.2351 15.196L18.9944 8.43664H22.7708L12.2351 18.9724V15.196ZM12.2351 13.2074V8.43664H17.0058L12.2351 13.2074ZM23.7652 9.43097V17.7169H15.4791L23.7652 9.43097ZM31.4284 8.99909V16.1838L29.8953 17.7169H28.2647V8.99909H31.4284ZM4.5718 8.99909H7.73554V23.3414H4.5718V8.99909ZM9.14165 4.21832H14.8407C15.2289 4.21832 15.5437 3.90349 15.5437 3.51527C15.5437 3.12704 15.2289 2.81221 14.8407 2.81221H7.1731V1.40611H28.8272V2.81221H21.1682C20.78 2.81221 20.4652 3.12704 20.4652 3.51527C20.4652 3.90349 20.78 4.21832 21.1682 4.21832H26.8586V17.7169H25.1713V7.73359C25.1713 7.34536 24.8564 7.03054 24.4682 7.03054H11.532C11.1438 7.03054 10.829 7.34536 10.829 7.73359V14.9044V14.9051V20.6694V20.6701V23.3414H9.14165V4.21832ZM12.2351 20.9611L13.8287 19.3674V21.2322C13.8287 21.6204 14.1435 21.9353 14.5318 21.9353H15.9932L14.5871 23.3414H12.2351V20.9611Z" fill="#252525"/>
<path d="M18.0043 4.21372C18.1892 4.21372 18.3706 4.13857 18.5014 4.00773C18.6329 3.87626 18.708 3.69557 18.708 3.51067C18.708 3.32577 18.6329 3.14438 18.5014 3.01368C18.3706 2.88221 18.1899 2.80762 18.0043 2.80762C17.8194 2.80762 17.638 2.88221 17.5073 3.01368C17.3766 3.14438 17.3013 3.32513 17.3013 3.51067C17.3013 3.69557 17.3765 3.87696 17.5073 4.00773C17.638 4.13857 17.8194 4.21372 18.0043 4.21372Z" fill="#252525"/>
</g>
<defs>
<clipPath id="clip0_515_7920">
<rect width="36" height="36" fill="white"/>
</clipPath>
</defs>
</svg>
