<svg width="36" height="36" viewBox="0 0 36 36" fill="none" xmlns="http://www.w3.org/2000/svg">
<path d="M5.1472 5.71785C5.22524 5.74668 5.30751 5.76074 5.39048 5.76074C5.68368 5.76074 5.94876 5.57582 6.05001 5.3009C6.18431 4.93738 5.99727 4.53238 5.63306 4.39809C5.55501 4.36926 5.47274 4.35449 5.39048 4.35449C5.09727 4.35449 4.8322 4.53941 4.73024 4.81504C4.59665 5.17855 4.78298 5.58355 5.1472 5.71785Z" fill="#252525"/>
<path d="M15.4428 4.70148C15.5251 4.73383 15.6116 4.7507 15.7002 4.7507C15.9913 4.7507 16.2479 4.57563 16.3541 4.30492C16.423 4.12984 16.4195 3.93859 16.3449 3.76633C16.2697 3.59406 16.1326 3.46188 15.9575 3.39297C15.8745 3.36063 15.7881 3.34375 15.7002 3.34375C15.4091 3.34375 15.1524 3.51883 15.0456 3.78953C14.9774 3.96461 14.9802 4.15586 15.0554 4.32812C15.1307 4.49969 15.2677 4.63258 15.4428 4.70148Z" fill="#252525"/>
<path d="M26.8385 7.10371C26.9361 7.15018 27.0389 7.17219 27.1402 7.17219C27.403 7.17219 27.6551 7.02426 27.7756 6.7712L29.1818 3.81808C29.3488 3.4675 29.1999 3.04787 28.8493 2.88095C28.4987 2.71403 28.0792 2.86288 27.9122 3.21346L26.506 6.16658C26.339 6.51716 26.4879 6.93672 26.8385 7.10371Z" fill="#252525"/>
<path d="M20.651 7.10371C20.7486 7.15018 20.8514 7.17219 20.9528 7.17219C21.2155 7.17219 21.4676 7.02426 21.5881 6.7712L22.9944 3.81808C23.1613 3.4675 23.0124 3.04787 22.6619 2.88095C22.3113 2.71403 21.8917 2.86288 21.7247 3.21346L20.3185 6.16658C20.1515 6.51716 20.3004 6.93672 20.651 7.10371Z" fill="#252525"/>
<path d="M17.5572 7.10371C17.6548 7.15018 17.7577 7.17219 17.859 7.17219C18.1217 7.17219 18.3738 7.02426 18.4943 6.7712L19.9006 3.81808C20.0675 3.4675 19.9187 3.04787 19.5681 2.88095C19.2174 2.71403 18.7979 2.86288 18.6309 3.21346L17.2247 6.16658C17.0578 6.51716 17.2066 6.93672 17.5572 7.10371Z" fill="#252525"/>
<path d="M11.3698 7.10371C11.4673 7.15018 11.5702 7.17219 11.6715 7.17219C11.9343 7.17219 12.1864 7.02426 12.3069 6.7712L13.7131 3.81808C13.88 3.4675 13.7312 3.04787 13.3806 2.88095C13.03 2.71403 12.6104 2.86288 12.4435 3.21346L11.0372 6.16658C10.8703 6.51716 11.0191 6.93672 11.3698 7.10371Z" fill="#252525"/>
<path d="M35.2969 20.5312H33.1875V10.6659L35.5037 9.95323C35.6973 9.89367 35.8558 9.75347 35.9386 9.56855C36.0214 9.3837 36.0204 9.17198 35.9359 8.98791L31.9984 0.409781C31.8838 0.160031 31.6342 0 31.3594 0H10.255C10.2537 0 10.2524 0 10.2511 0H4.07834C3.78935 0 3.52983 0.176766 3.42401 0.445711L0.0490098 9.02384C-0.0925995 9.38377 0.0830411 9.79045 0.442197 9.9341L2.81271 10.8823V20.5312H0.703338C0.315002 20.5312 0.000212956 20.846 0.000212956 21.2344V24.0469C0.000212956 24.4352 0.315002 24.75 0.703338 24.75H2.81271V35.2969C2.81271 35.6852 3.1275 36 3.51584 36H6.32834C6.71667 36 7.03146 35.6852 7.03146 35.2969V24.75H11.6721V35.2969C11.6721 35.6852 11.9869 36 12.3752 36H15.1877C15.576 36 15.8908 35.6852 15.8908 35.2969V33.1875H20.1096V35.2969C20.1096 35.6852 20.4244 36 20.8127 36H23.6252C24.0135 36 24.3283 35.6852 24.3283 35.2969V24.75H28.969V35.2969C28.969 35.6852 29.2838 36 29.6721 36H32.4846C32.8729 36 33.1877 35.6852 33.1877 35.2969V24.75H35.2971C35.6854 24.75 36.0002 24.4352 36.0002 24.0469V21.2344C36 20.846 35.6852 20.5312 35.2969 20.5312ZM22.5704 17.7188V16.6641C22.5704 16.5457 22.5644 16.4287 22.5555 16.3125H28.9688V17.7188H22.5704ZM28.9688 19.125V20.5312H22.5704V19.125H28.9688ZM22.2183 14.9062C21.5282 13.2562 19.8975 12.0938 18.0001 12.0938C16.1026 12.0938 14.472 13.2562 13.7818 14.9062H7.03139V10.3198L8.87963 11.059C9.04725 11.1261 9.23428 11.1261 9.40191 11.059L11.9533 10.0385L14.5046 11.059C14.6723 11.1261 14.8593 11.1261 15.0269 11.059L17.5783 10.0385L20.1296 11.059C20.2972 11.1261 20.4842 11.1261 20.6518 11.059L23.2031 10.0385L25.7546 11.059C25.9221 11.1261 26.1091 11.1262 26.2768 11.059L28.8281 10.0385L28.9688 10.0948V14.9062H22.2183ZM21.1641 16.6641V20.5312H14.836V16.6641C14.836 14.9194 16.2554 13.5 18.0001 13.5C19.2087 13.5 20.2608 14.1815 20.7934 15.18C20.9078 15.5103 21.0199 15.8419 21.1262 16.1752C21.1511 16.3346 21.1641 16.4978 21.1641 16.6641ZM4.21889 10.8823L5.62514 10.3198V20.5312H4.21889V10.8823ZM7.03139 19.125H13.4298V20.5312H7.03139V19.125ZM7.03139 17.7188V16.3125H13.4447C13.4358 16.4287 13.4298 16.5457 13.4298 16.6641V17.7188H7.03139ZM30.375 10.6573L31.3795 11.059C31.4632 11.0925 31.5518 11.1093 31.6406 11.1093C31.6878 11.1093 31.7347 11.1028 31.7813 11.0933V20.5312H30.375V10.6573ZM30.9085 1.40625L34.323 8.84524L31.6711 9.66122L29.9845 8.98657L31.1684 6.02677C31.3126 5.6662 31.1373 5.25705 30.7767 5.11277C30.4163 4.96849 30.007 5.14392 29.8628 5.50448L28.6206 8.60991C28.6026 8.61546 28.5846 8.62137 28.567 8.62847L26.0157 9.64898L23.8705 8.79089L26.7758 1.40625H30.9085ZM10.7418 1.40625H16.0276C16.0242 1.50926 16.0429 1.61255 16.0855 1.71C16.16 1.88227 16.2978 2.01516 16.4722 2.08406C16.5552 2.11641 16.6416 2.13258 16.7295 2.13258C17.0206 2.13258 17.278 1.9582 17.3841 1.6868L17.4947 1.40625H25.2647L22.3263 8.8747L20.3907 9.64891L17.8394 8.6284C17.6718 8.56132 17.4848 8.56132 17.3171 8.6284L14.7658 9.64891L14.3218 9.4713L15.3248 6.92149C15.3937 6.74641 15.3901 6.55587 15.3149 6.3836C15.2404 6.21134 15.1026 6.07845 14.9282 6.00954C14.8452 5.9772 14.7587 5.96032 14.6708 5.96032C14.3798 5.96032 14.1224 6.1354 14.0162 6.40681L13.0157 8.94881L12.2144 8.62833C12.0468 8.56125 11.8598 8.56125 11.6921 8.62833L9.14077 9.64884L7.67869 9.06398L10.7418 1.40625ZM4.55724 1.40625H9.22725L6.35794 8.57953C6.25943 8.57538 6.16029 8.59113 6.06713 8.62847L4.60878 9.21178L5.07741 7.93969C5.1428 7.76391 5.13506 7.57266 5.05631 7.4025C4.97756 7.23164 4.83694 7.10227 4.66116 7.03688C4.58241 7.00805 4.50085 6.99328 4.41788 6.99328C4.12467 6.99328 3.8596 7.1782 3.75764 7.45383L3.02203 9.45148L1.6136 8.88813L4.55724 1.40625ZM5.62514 34.5938H4.21889V24.75H5.62514V34.5938ZM14.4845 34.5938H13.0783V24.75H14.4845V34.5938ZM20.1094 31.7812H15.8907V30.375H20.1094V31.7812ZM20.1094 28.9688H15.8907V27.5625H20.1094V28.9688ZM20.1094 26.1562H15.8907V24.75H20.1094V26.1562ZM22.9219 34.5938H21.5157V24.75H22.9219V34.5938ZM31.7813 34.5938H30.375V24.75H31.7813V34.5938ZM34.5938 23.3438H1.40646V21.9375H34.5938V23.3438Z" fill="#252525"/>
</svg>
