<svg width="36" height="32" viewBox="0 0 36 32" fill="none" xmlns="http://www.w3.org/2000/svg">
<path d="M34.9168 24.0554C35.377 24.3512 36 24.0079 36 23.4639V19.7209C36 19.4791 35.8758 19.2543 35.6711 19.1256L26.3058 13.2381V10.7599L28.1881 11.9691C28.6483 12.2649 29.2712 11.9215 29.2712 11.3775V7.8145C29.2712 7.57523 29.1495 7.35227 28.9481 7.22296L26.4169 5.59685C26.0901 5.38682 25.6551 5.48167 25.4453 5.80835C25.2354 6.13502 25.3301 6.57011 25.6568 6.77992L27.865 8.19855V10.0901L18.38 3.99681C18.1485 3.8481 17.8514 3.8481 17.6199 3.99681L8.13494 10.0901V8.19855L18 1.86107L20.4151 3.41252C20.7418 3.62254 21.1769 3.52769 21.3867 3.20102C21.5966 2.87435 21.5019 2.43925 21.1752 2.22944L18.38 0.433799C18.1485 0.285088 17.8514 0.285088 17.6199 0.433799L7.05171 7.22296C6.85041 7.35227 6.72862 7.57523 6.72862 7.8145V11.3775C6.72862 11.9224 7.35187 12.2644 7.81179 11.9691L9.69405 10.7599V13.2382L0.328922 19.1256C0.124242 19.2543 0 19.4791 0 19.7209V23.4639C0 24.0079 0.622969 24.3512 1.08316 24.0554L2.09137 23.4078V30.271H0.703125C0.314859 30.271 0 30.5858 0 30.9741C0 31.3624 0.314859 31.6772 0.703125 31.6772H35.2969C35.6851 31.6772 36 31.3624 36 30.9741C36 30.5858 35.6851 30.271 35.2969 30.271H33.909V23.408L34.9168 24.0554ZM9.69405 30.2708H3.49762V22.5043L9.69405 18.5238V30.2708ZM9.69405 16.8523L1.40625 22.1765V20.1093L9.69405 14.8992V16.8523ZM21.8059 30.271H14.2247V28.9076H21.8059V30.271ZM16.549 27.5013V22.0968H19.4816V27.5013H16.549ZM24.8996 30.271H23.2121V28.2044C23.2121 27.8162 22.8973 27.5013 22.509 27.5013H20.8878V21.3937C20.8878 21.0054 20.5729 20.6905 20.1847 20.6905H15.8458C15.4576 20.6905 15.1427 21.0054 15.1427 21.3937V27.5013H13.5215C13.1333 27.5013 12.8184 27.8162 12.8184 28.2044V30.271H11.1006L11.1002 9.85652L17.9999 5.42409L24.8995 9.85652V30.271H24.8996ZM32.5027 30.2708H26.3059V18.5237L32.5027 22.5046V30.2708ZM33.5902 21.5318C33.5887 21.5309 33.5874 21.5296 33.5858 21.5286L26.3059 16.8522L26.3058 14.8991L34.5938 20.1093V22.1765L33.5902 21.5318Z" fill="#252525"/>
<path d="M15.4771 12.526C15.4771 13.9172 16.6089 15.049 18.0001 15.049C19.3913 15.049 20.5232 13.9172 20.5232 12.526C20.5232 11.1347 19.3913 10.0029 18.0001 10.0029C16.6089 10.0029 15.4771 11.1347 15.4771 12.526ZM18.0001 11.4092C18.616 11.4092 19.117 11.9102 19.117 12.526C19.117 13.1419 18.616 13.6429 18.0001 13.6429C17.3843 13.6429 16.8833 13.1419 16.8833 12.526C16.8833 11.9102 17.3843 11.4092 18.0001 11.4092Z" fill="#252525"/>
<path d="M6.59619 26.8051C6.98446 26.8051 7.29932 26.4902 7.29932 26.102V23.8115C7.29932 23.4233 6.98446 23.1084 6.59619 23.1084C6.20793 23.1084 5.89307 23.4233 5.89307 23.8115V26.102C5.89307 26.4903 6.20786 26.8051 6.59619 26.8051Z" fill="#252525"/>
<path d="M29.4043 26.8051C29.7926 26.8051 30.1074 26.4902 30.1074 26.102V23.8115C30.1074 23.4233 29.7926 23.1084 29.4043 23.1084C29.016 23.1084 28.7012 23.4233 28.7012 23.8115V26.102C28.7012 26.4903 29.016 26.8051 29.4043 26.8051Z" fill="#252525"/>
<path d="M23.8093 5.09161C24.1288 4.87913 24.2146 4.43483 24.0034 4.11645C23.7914 3.79688 23.3471 3.7111 23.0288 3.92232C22.7098 4.1341 22.6218 4.57868 22.8341 4.89685C23.0478 5.21438 23.4898 5.3041 23.8093 5.09161Z" fill="#252525"/>
</svg>
