<svg width="28" height="36" viewBox="0 0 28 36" fill="none" xmlns="http://www.w3.org/2000/svg">
<path d="M5.99263 32.9632H8.73075C9.17685 32.9632 9.53832 32.6017 9.53832 32.1556C9.53832 31.4334 9.53832 26.0358 9.53832 25.3105C9.53832 24.8644 9.17674 24.5029 8.73075 24.5029H5.99263C5.54653 24.5029 5.18506 24.8644 5.18506 25.3105C5.18506 26.0329 5.18506 31.4303 5.18506 32.1556C5.18506 32.6017 5.54653 32.9632 5.99263 32.9632ZM6.80021 26.1181H7.92317V27.9255H6.80021V26.1181ZM6.80021 29.5407H7.92317V31.348H6.80021V29.5407Z" fill="#252525"/>
<path d="M19.2685 32.9632H22.0066C22.4527 32.9632 22.8142 32.6017 22.8142 32.1556C22.8142 31.4334 22.8142 26.0358 22.8142 25.3105C22.8142 24.8644 22.4527 24.5029 22.0066 24.5029H19.2685C18.8224 24.5029 18.4609 24.8644 18.4609 25.3105C18.4609 26.0329 18.4609 31.4303 18.4609 32.1556C18.4609 32.6017 18.8224 32.9632 19.2685 32.9632ZM20.0762 26.1181H21.1992V27.9255H20.0762V26.1181ZM20.0761 29.5407H21.199V31.348H20.0761V29.5407Z" fill="#252525"/>
<path d="M5.99263 19.8362H8.73075C9.17685 19.8362 9.53832 19.4748 9.53832 19.0287C9.53832 18.3063 9.53832 12.9089 9.53832 12.1836C9.53832 11.7374 9.17685 11.376 8.73075 11.376H5.99263C5.54653 11.376 5.18506 11.7374 5.18506 12.1836C5.18506 12.9057 5.18506 18.3034 5.18506 19.0287C5.18506 19.4747 5.54653 19.8362 5.99263 19.8362ZM6.80021 12.991H7.92317V14.7984H6.80021V12.991ZM6.80021 16.4136H7.92317V18.2211H6.80021V16.4136Z" fill="#252525"/>
<path d="M19.269 19.8362H22.0071C22.4532 19.8362 22.8147 19.4748 22.8147 19.0287C22.8147 18.3063 22.8147 12.9089 22.8147 12.1836C22.8147 11.7374 22.4532 11.376 22.0071 11.376H19.269C18.8229 11.376 18.4614 11.7374 18.4614 12.1836C18.4614 12.9057 18.4614 18.3034 18.4614 19.0287C18.4614 19.4747 18.8229 19.8362 19.269 19.8362ZM20.0766 12.991H21.1995V14.7984H20.0766V12.991ZM20.0765 16.4136H21.1994V18.2211H20.0765V16.4136Z" fill="#252525"/>
<path d="M27.5476 8.50065L25.4291 3.89284C25.2973 3.6062 25.0107 3.42261 24.6953 3.42261H22.8144V0.807576C22.8144 0.361471 22.453 0 22.0069 0H19.2688C18.8227 0 18.4612 0.361471 18.4612 0.807576V3.42261H3.30428C2.98879 3.42261 2.70226 3.6062 2.57057 3.89284L0.452029 8.50065C0.206311 9.03537 0.597824 9.64558 1.18574 9.64558H2.4967C2.4967 10.3029 2.4967 34.7475 2.4967 35.1924C2.4967 35.6385 2.85817 36 3.30428 36C4.31892 36 23.8885 36 24.6953 36C25.1414 36 25.5029 35.6385 25.5029 35.1924V22.0652V21.9651V9.64558H26.8139C27.4024 9.64558 27.7931 9.03473 27.5476 8.50065ZM20.0764 1.61515H21.1994V3.42261H20.0764V1.61515ZM16.3202 34.3848H11.6794V26.1182H16.3202V34.3848ZM23.8878 34.3848H17.9354V25.3106C17.9354 24.8645 17.5739 24.503 17.1278 24.503H10.8718C10.4257 24.503 10.0642 24.8645 10.0642 25.3106V34.3848H4.11185V22.8728C4.82306 22.8728 22.9241 22.8728 23.8878 22.8728V34.3848ZM11.6794 21.1575V12.991H16.3202V21.1575H11.6794ZM23.8878 21.1575H17.9354V12.1834C17.9354 11.7373 17.5739 11.3758 17.1278 11.3758H10.8718C10.4257 11.3758 10.0642 11.7373 10.0642 12.1834V21.1575H4.11185V9.64558H23.8878V21.1575ZM2.44588 8.03043L3.82177 5.03776C4.05942 5.03776 23.5809 5.03776 24.1777 5.03776L25.5536 8.03043C25.0694 8.03043 2.92946 8.03043 2.44588 8.03043Z" fill="#252525"/>
</svg>
