<svg width="39" height="41" viewBox="0 0 39 41" fill="none" xmlns="http://www.w3.org/2000/svg">
<path d="M37.8232 22.1972C37.8202 22.1941 37.8171 22.1912 37.8139 22.1881C37.2653 21.654 36.5345 21.3598 35.756 21.3598C35.3398 21.3598 34.786 21.445 34.1812 21.7663V8.90094C34.1812 7.65977 33.1719 6.64984 31.9312 6.64984H27.284V4.84766C27.284 2.45031 25.3339 0.5 22.937 0.5H10.7929C8.39719 0.5 6.44813 2.45039 6.44813 4.84766V6.64977H2.25C1.0093 6.64977 0 7.65977 0 8.90086V30.3501C0 31.5914 1.0093 32.6012 2.25 32.6012H9.22898C9.66406 32.6012 10.0168 32.2484 10.0168 31.8134C10.0168 31.3783 9.66406 31.0255 9.22898 31.0255H2.25C1.88453 31.0255 1.5757 30.7162 1.5757 30.3501V28.5167H24.8441L26.7138 29.581L25.2102 31.3806L22.1605 30.4986C21.8781 30.4172 21.5741 30.4992 21.3713 30.7118L21.0723 31.0255H15.6395C15.2044 31.0255 14.8516 31.3783 14.8516 31.8134C14.8516 32.2484 15.2044 32.6012 15.6395 32.6012H19.6762C19.638 32.7178 19.6263 32.8432 19.6455 32.9675C19.6829 33.2092 19.8304 33.4198 20.0447 33.5375L22.3895 34.8261C21.9613 35.6327 21.8938 36.6235 22.5583 37.3519C22.5615 37.3553 22.5645 37.3587 22.5677 37.3621C22.6054 37.4019 22.645 37.4409 22.6879 37.4802C22.7314 37.5285 22.7791 37.5757 22.832 37.6228C23.1832 37.9369 23.6255 38.1029 24.1109 38.1029C24.5617 38.1029 24.9915 37.9614 25.3558 37.7634L26.6701 40.0984C26.7902 40.3117 27.0026 40.4572 27.2448 40.492C27.2821 40.4973 27.3195 40.4999 27.3567 40.4999C27.5607 40.4999 27.7587 40.4205 27.907 40.2759L29.4818 38.7395C29.6919 38.5346 29.7705 38.2298 29.6859 37.9487L28.7703 34.9055L30.553 33.382L33.3937 38.2602C33.5162 38.4705 33.7294 38.6127 33.9709 38.6447C34.2124 38.6766 34.4552 38.5952 34.6284 38.4241L36.6103 36.4648C36.821 36.2566 36.897 35.9479 36.8073 35.6657L34.8716 29.5774L37.5255 26.8642C39.1235 25.2117 38.8849 23.2656 37.8232 22.1972ZM32.6055 8.90094V15.5268C32.6055 15.8993 32.303 16.2022 31.9312 16.2022H28.3612V8.22555H31.9312C32.303 8.22555 32.6055 8.52859 32.6055 8.90094ZM7.39563 8.22555H9.87898V16.2023H7.39563V8.22555ZM26.7855 8.22555V16.2023H24.3022V8.22555H26.7855ZM23.0737 6.64984H10.6562V4.84766C10.6562 4.77313 10.7189 4.71008 10.7929 4.71008H22.937C23.0111 4.71008 23.0737 4.77313 23.0737 4.84766V6.64984ZM5.84508 17.7779H11.4297V19.4697H5.84508V17.7779ZM11.4547 16.2022V8.22555H22.7264V16.2023L11.4547 16.2022ZM22.7516 17.7779H28.3362V19.4697H22.7516V17.7779ZM10.7929 2.07578H22.937C24.4651 2.07578 25.7083 3.31922 25.7083 4.84766V6.64977H24.6495V4.84766C24.6495 3.90297 23.8812 3.13438 22.937 3.13438H10.7929C9.84867 3.13438 9.08047 3.90297 9.08047 4.84766V6.64977H8.02383V4.84766C8.02375 3.31922 9.26602 2.07578 10.7929 2.07578ZM1.5757 8.90094C1.5757 8.52852 1.8782 8.22547 2.25 8.22547H5.81992V16.2022H2.25C1.8782 16.2022 1.5757 15.8992 1.5757 15.5268V8.90094ZM1.5757 26.9412V17.6746C1.78867 17.7417 2.01516 17.7779 2.25 17.7779H4.2693V20.2575C4.2693 20.6926 4.62203 21.0454 5.05711 21.0454H12.2174C12.6525 21.0454 13.0053 20.6926 13.0053 20.2575V17.7779H21.1758V20.2575C21.1758 20.6926 21.5285 21.0454 21.9637 21.0454H29.124C29.5591 21.0454 29.9118 20.6926 29.9118 20.2575V17.7779H31.9312C32.1659 17.7779 32.3924 17.7417 32.6055 17.6746V23.0816L30.4701 25.2187L24.3669 23.3475C24.0835 23.261 23.7757 23.3402 23.5697 23.553L21.6318 25.5565C21.4624 25.7316 21.3837 25.9749 21.4182 26.2159C21.4527 26.457 21.5967 26.6684 21.8084 26.789L22.076 26.9412H1.5757V26.9412ZM36.3958 25.7656L33.414 28.8141C33.2103 29.0223 33.1381 29.3261 33.2263 29.6037L35.1595 35.6833L34.2437 36.5885L31.4395 31.7732C31.322 31.5713 31.1209 31.4321 30.8905 31.393C30.6602 31.3542 30.4243 31.419 30.2469 31.5708L27.3558 34.0413C27.1184 34.2442 27.0233 34.5681 27.1132 34.8672L28.0394 37.9452L27.5402 38.432L26.2912 36.213C26.1751 36.0067 25.9724 35.8636 25.7393 35.8232C25.6945 35.8154 25.6495 35.8116 25.6046 35.8116C25.4165 35.8116 25.2327 35.8791 25.0884 36.0043L24.9889 36.0905C24.9761 36.1017 24.9636 36.1133 24.9515 36.1252C24.7158 36.3581 24.3623 36.5272 24.1109 36.5272C23.9873 36.5272 23.9262 36.4873 23.8812 36.4472C23.8648 36.4327 23.8592 36.4261 23.8592 36.4261C23.8325 36.3937 23.8033 36.3635 23.7718 36.3358C23.7514 36.3179 23.7336 36.3009 23.7184 36.2854C23.5101 36.0466 23.7645 35.4952 24.0337 35.2175C24.0459 35.2048 24.0577 35.1919 24.0691 35.1784L24.1553 35.0764C24.3082 34.896 24.372 34.6565 24.329 34.4239C24.286 34.1913 24.1409 33.9905 23.9336 33.8766L21.7009 32.6498L22.182 32.1452L25.2662 33.0373C25.5663 33.1239 25.8895 33.0252 26.0898 32.7855L28.5275 29.8677C28.6771 29.6886 28.7397 29.4523 28.6982 29.2225C28.6567 28.9929 28.5155 28.7933 28.3126 28.6777L25.4451 27.0457C25.4376 27.0413 25.4302 27.0369 25.4224 27.0327L23.4705 25.9219L24.3666 24.9955L30.4614 26.8641C30.7405 26.9497 31.0436 26.874 31.2496 26.6677L34.2593 23.6559C34.7359 23.1846 35.2534 22.9354 35.756 22.9354C36.1193 22.9354 36.4578 23.0694 36.7101 23.3124C37.2276 23.8383 37.3297 24.8 36.3958 25.7656Z" fill="#252525"/>
<path d="M12.538 31.0254H12.5247C12.0896 31.0254 11.7368 31.3781 11.7368 31.8132C11.7368 32.2483 12.0896 32.6011 12.5247 32.6011H12.538C12.9731 32.6011 13.3258 32.2483 13.3258 31.8132C13.3258 31.3781 12.9731 31.0254 12.538 31.0254Z" fill="#252525"/>
</svg>
