<svg width="40" height="41" viewBox="0 0 40 41" fill="none" xmlns="http://www.w3.org/2000/svg">
<path d="M34.0141 25.2731C32.894 25.0939 29.3924 24.5335 28.2812 24.3557V22.9741C31.1065 21.7412 32.9688 18.9309 32.9688 15.8126V12.6095H36.875C37.3064 12.6095 37.6562 12.2596 37.6562 11.8282V10.9329C37.6562 9.05719 36.1303 7.53125 34.2547 7.53125H32.9298C32.5366 3.58883 29.2005 0.5 25.1562 0.5C21.112 0.5 17.7759 3.58883 17.3827 7.53125H16.0578C14.1822 7.53125 12.6562 9.05719 12.6562 10.9328V11.8281C12.6562 12.2595 13.006 12.6094 13.4375 12.6094H17.3438V15.8125C17.3438 18.931 19.2062 21.7414 22.0312 22.9741V24.3557C20.8352 24.5471 17.502 25.0805 16.2984 25.2731C12.8551 25.8244 10.3125 28.7977 10.3125 32.293V39.7188C10.3125 40.1502 10.6623 40.5 11.0938 40.5H39.2188C39.6502 40.5 40 40.1502 40 39.7188V32.293C40 28.8058 37.4655 25.8256 34.0141 25.2731ZM25.1562 2.0625C28.3378 2.0625 30.9698 4.45266 31.3557 7.53125H18.9568C19.3427 4.45266 21.9747 2.0625 25.1562 2.0625ZM18.9062 15.8125V12.6094H21.7188C22.1502 12.6094 22.5001 12.2595 22.5001 11.8281C22.5001 11.3967 22.1502 11.0469 21.7188 11.0469C20.9135 11.0469 15.1696 11.0469 14.2188 11.0469V10.9328C14.2188 9.91875 15.0437 9.09375 16.0578 9.09375H34.2547C35.2687 9.09375 36.0938 9.91875 36.0938 10.9328V11.0469C35.3402 11.0469 29.5725 11.0469 28.7501 11.0469C28.3187 11.0469 27.9688 11.3967 27.9688 11.8281C27.9688 12.2595 28.3187 12.6094 28.7501 12.6094H31.4062V15.8125C31.4062 19.2278 28.6416 22.0625 25.1562 22.0625C21.6711 22.0625 18.9062 19.228 18.9062 15.8125ZM22.9359 25.7933C23.315 25.7327 23.5938 25.4057 23.5938 25.0219V23.4675C24.105 23.5713 24.6273 23.625 25.1562 23.625C25.6852 23.625 26.2076 23.5713 26.7188 23.4675V25.0219C26.7188 25.4057 26.9975 25.7327 27.3766 25.7933L29.9695 26.2082L25.1562 32.626L20.343 26.2082L22.9359 25.7933ZM26.7969 38.9375H23.5938V35.3438H26.7969V38.9375ZM11.875 32.293C11.875 29.5526 13.8392 27.2491 16.5453 26.8159L18.5992 26.4873L24.0695 33.7812H22.8125C22.3811 33.7812 22.0312 34.1311 22.0312 34.5625V38.9375H16.5625V34.5625C16.5625 34.1311 16.2127 33.7812 15.7812 33.7812C15.3498 33.7812 15 34.1311 15 34.5625V38.9375H11.875V32.293ZM38.4375 38.9375H35.3125V34.5625C35.3125 34.1311 34.9627 33.7812 34.5312 33.7812C34.0998 33.7812 33.75 34.1311 33.75 34.5625V38.9375H28.3594V34.5625C28.3594 34.1311 28.0095 33.7812 27.5781 33.7812H26.243L31.7133 26.4873L33.7671 26.8159C36.4733 27.2492 38.4375 29.5526 38.4375 32.293V38.9375Z" fill="#252525"/>
<path d="M27.8617 17.3755C28.0777 17.002 27.9499 16.5241 27.5764 16.3082C27.2029 16.0922 26.725 16.22 26.5091 16.5935C26.2303 17.0756 25.712 17.3751 25.1565 17.3751C24.6009 17.3751 24.0827 17.0756 23.8039 16.5935C23.588 16.2201 23.1103 16.0921 22.7366 16.3082C22.363 16.5241 22.2352 17.002 22.4512 17.3755C23.0083 18.339 24.0448 18.9376 25.1565 18.9376C26.2681 18.9376 27.3047 18.339 27.8617 17.3755Z" fill="#252525"/>
<path d="M0.78125 38.9375C0.349766 38.9375 0 39.2873 0 39.7188C0 40.1502 0.349766 40.5 0.78125 40.5H5.46875C5.90023 40.5 6.25 40.1502 6.25 39.7188C6.25 39.2873 5.90023 38.9375 5.46875 38.9375H3.90625V26.1852L15.1339 21.6941C15.4305 21.5755 15.625 21.2882 15.625 20.9688C15.625 20.6493 15.4305 20.362 15.1339 20.2434L3.90625 15.7523V11.5938C3.90625 11.1623 3.55648 10.8125 3.125 10.8125C2.69352 10.8125 2.34375 11.1623 2.34375 11.5938V38.9375H0.78125ZM12.7402 20.9688L3.90625 24.5023V17.4352L12.7402 20.9688Z" fill="#252525"/>
<path d="M25.2344 12.6094C25.6658 12.6094 26.0156 12.2596 26.0156 11.8281C26.0156 11.3967 25.6658 11.0469 25.2344 11.0469C24.8029 11.0469 24.4531 11.3967 24.4531 11.8281C24.4531 12.2596 24.8029 12.6094 25.2344 12.6094Z" fill="#252525"/>
</svg>
