<svg width="20" height="14" viewBox="0 0 20 14" fill="none" xmlns="http://www.w3.org/2000/svg">
<path d="M0 14V8C0 7.55 0.0916668 7.14167 0.275 6.775C0.458333 6.40833 0.7 6.08333 1 5.8V3C1 2.16667 1.29167 1.45833 1.875 0.875C2.45833 0.291667 3.16667 0 4 0H8C8.38333 0 8.74167 0.0709998 9.075 0.213C9.40833 0.355 9.71667 0.550667 10 0.8C10.2833 0.55 10.5917 0.354333 10.925 0.213C11.2583 0.0716665 11.6167 0.000666667 12 0H16C16.8333 0 17.5417 0.291667 18.125 0.875C18.7083 1.45833 19 2.16667 19 3V5.8C19.3 6.08333 19.5417 6.40833 19.725 6.775C19.9083 7.14167 20 7.55 20 8V14H18V12H2V14H0ZM11 5H17V3C17 2.71667 16.904 2.47933 16.712 2.288C16.52 2.09667 16.2827 2.00067 16 2H12C11.7167 2 11.4793 2.096 11.288 2.288C11.0967 2.48 11.0007 2.71733 11 3V5ZM3 5H9V3C9 2.71667 8.904 2.47933 8.712 2.288C8.52 2.09667 8.28267 2.00067 8 2H4C3.71667 2 3.47933 2.096 3.288 2.288C3.09667 2.48 3.00067 2.71733 3 3V5ZM2 10H18V8C18 7.71667 17.904 7.47933 17.712 7.288C17.52 7.09667 17.2827 7.00067 17 7H3C2.71667 7 2.47933 7.096 2.288 7.288C2.09667 7.48 2.00067 7.71733 2 8V10Z" fill="#252525"/>
</svg>
