<svg width="28" height="30" viewBox="0 0 28 30" fill="none" xmlns="http://www.w3.org/2000/svg">
<path d="M19.0084 19.8214C22.2007 14.812 21.7994 15.437 21.8914 15.3064C23.0537 13.6671 23.668 11.7376 23.668 9.72656C23.668 4.39336 19.3402 0 14 0C8.67723 0 4.33203 4.38469 4.33203 9.72656C4.33203 11.7363 4.95922 13.7163 6.15957 15.3777L8.99152 19.8214C5.96369 20.2867 0.816406 21.6734 0.816406 24.7266C0.816406 25.8396 1.54285 27.4257 5.00363 28.6617C7.42016 29.5247 10.6151 30 14 30C20.3296 30 27.1836 28.2145 27.1836 24.7266C27.1836 21.6728 22.0423 20.2877 19.0084 19.8214ZM7.62787 14.4108C7.6182 14.3957 7.60812 14.381 7.59758 14.3664C6.59873 12.9923 6.08984 11.3637 6.08984 9.72656C6.08984 5.33098 9.62926 1.75781 14 1.75781C18.3617 1.75781 21.9102 5.33256 21.9102 9.72656C21.9102 11.3664 21.4109 12.9397 20.4661 14.2776C20.3814 14.3893 20.8231 13.703 14 24.4095L7.62787 14.4108ZM14 28.2422C7.08629 28.2422 2.57422 26.21 2.57422 24.7266C2.57422 23.7295 4.89266 22.0901 10.0302 21.4511L13.2588 26.5173C13.4202 26.7705 13.6996 26.9238 13.9999 26.9238C14.3002 26.9238 14.5798 26.7705 14.7411 26.5173L17.9697 21.4511C23.1073 22.0901 25.4258 23.7295 25.4258 24.7266C25.4258 26.1974 20.9543 28.2422 14 28.2422Z" fill="white"/>
</svg>
