<svg width="30" height="30" viewBox="0 0 30 30" fill="none" xmlns="http://www.w3.org/2000/svg">
<path d="M15 0C6.72898 0 0 7.34089 0 16.3636V23.1819C0 23.5587 0.304965 23.8637 0.68184 23.8637C1.05872 23.8637 1.36368 23.5587 1.36368 23.1819V16.3636C1.36368 8.09259 7.48074 1.36362 15 1.36362C22.5193 1.36362 28.6364 8.09259 28.6364 16.3636V23.1819C28.6364 23.5587 28.9413 23.8637 29.3182 23.8637C29.6951 23.8637 30.0001 23.5587 30.0001 23.1819V16.3636C30 7.34089 23.2711 0 15 0Z" fill="white"/>
<path d="M7.49931 16.3633H5.45386C3.94975 16.3633 2.72656 17.5864 2.72656 19.0906V27.2724C2.72656 28.7765 3.94968 29.9997 5.45386 29.9997H7.49931C7.87619 29.9997 8.18115 29.6947 8.18115 29.3179V17.0451C8.18115 16.6682 7.87619 16.3633 7.49931 16.3633ZM6.81754 28.636H5.45386C4.70215 28.636 4.09024 28.0241 4.09024 27.2724V19.0906C4.09024 18.3389 4.70215 17.727 5.45386 17.727H6.81747L6.81754 28.636Z" fill="white"/>
<path d="M24.5476 16.3633H22.5022C22.1253 16.3633 21.8203 16.6682 21.8203 17.0451V29.3179C21.8203 29.6947 22.1253 29.9997 22.5022 29.9997H24.5476C26.0517 29.9997 27.2749 28.7766 27.2749 27.2724V19.0906C27.2749 17.5864 26.0517 16.3633 24.5476 16.3633ZM25.9112 27.2724C25.9112 28.0241 25.2993 28.636 24.5476 28.636H23.184V17.7269H24.5476C25.2993 17.7269 25.9112 18.3388 25.9112 19.0905V27.2724Z" fill="white"/>
</svg>
