<svg width="26" height="26" viewBox="0 0 26 26" fill="none" xmlns="http://www.w3.org/2000/svg">
<path d="M24.6882 1.31229C24.3667 0.99274 23.9609 0.771323 23.5182 0.673926C23.0754 0.576529 22.6141 0.607178 22.1882 0.762288L2.18821 8.46229C1.71824 8.63158 1.31281 8.94329 1.02843 9.35397C0.744055 9.76466 0.59491 10.2538 0.60179 10.7533C0.60867 11.2528 0.771232 11.7377 1.06681 12.1404C1.36239 12.5431 1.77626 12.8435 2.25071 12.9998L10.3382 15.6873L13.0007 23.7498C13.154 24.222 13.4507 24.6347 13.8495 24.9305C14.2483 25.2262 14.7293 25.3902 15.2257 25.3998C15.7098 25.4039 16.1833 25.2584 16.5816 24.9832C16.9798 24.708 17.2834 24.3165 17.4507 23.8623L25.1507 3.86229C25.3305 3.43841 25.3825 2.97124 25.3003 2.51821C25.2182 2.06518 25.0054 1.64603 24.6882 1.31229ZM23.4382 3.19979L15.7382 23.1998C15.7048 23.304 15.6374 23.3939 15.5467 23.4552C15.456 23.5164 15.3473 23.5453 15.2382 23.5373C15.1316 23.5323 15.029 23.495 14.9441 23.4302C14.8592 23.3654 14.7961 23.2763 14.7632 23.1748L12.1007 15.1873L16.7507 10.5873C16.8385 10.4995 16.9082 10.3952 16.9557 10.2805C17.0033 10.1657 17.0277 10.0427 17.0277 9.91854C17.0277 9.79434 17.0033 9.67136 16.9557 9.55661C16.9082 9.44187 16.8385 9.33761 16.7507 9.24979C16.6629 9.16197 16.5586 9.0923 16.4439 9.04477C16.3291 8.99725 16.2062 8.97278 16.082 8.97278C15.9578 8.97278 15.8348 8.99725 15.72 9.04477C15.6053 9.0923 15.501 9.16197 15.4132 9.24979L10.8257 13.8373L2.83821 11.1873C2.73666 11.1544 2.64756 11.0913 2.5828 11.0064C2.51803 10.9215 2.48067 10.8189 2.47571 10.7123C2.46986 10.6036 2.49965 10.4959 2.56056 10.4057C2.62148 10.3154 2.71019 10.2475 2.81321 10.2123L22.8132 2.51229C22.9091 2.47785 23.0129 2.4714 23.1123 2.49368C23.2118 2.51595 23.3028 2.56604 23.3749 2.63811C23.447 2.71017 23.497 2.80124 23.5193 2.90069C23.5416 3.00014 23.5351 3.10387 23.5007 3.19979H23.4382Z" fill="white"/>
</svg>
