<svg width="24" height="25" viewBox="0 0 24 25" fill="none" xmlns="http://www.w3.org/2000/svg">
<path fill-rule="evenodd" clip-rule="evenodd" d="M18.411 1.4375C15.927 1.4375 13.9141 3.44913 13.9141 5.92972C13.9141 7.84494 15.0513 9.51386 16.2617 10.7397C16.8604 11.3461 17.4607 11.8273 17.9117 12.1569C18.113 12.304 18.2836 12.4203 18.4101 12.5035C18.5367 12.4197 18.7077 12.3024 18.9093 12.1542C19.3605 11.8226 19.961 11.339 20.5599 10.7309C21.7712 9.50119 22.908 7.83231 22.908 5.92972C22.908 3.44913 20.8951 1.4375 18.411 1.4375ZM18.411 13.0587C18.1728 13.4624 18.1727 13.4624 18.1725 13.4623L18.1709 13.4613L18.1672 13.4591C18.1642 13.4573 18.1599 13.4547 18.1546 13.4515C18.1438 13.445 18.1284 13.4356 18.1088 13.4235C18.0695 13.3992 18.0132 13.3638 17.9421 13.3176C17.8 13.2252 17.599 13.0895 17.3585 12.9138C16.8785 12.563 16.2373 12.0494 15.5946 11.3984C14.3222 10.1097 12.9766 8.21412 12.9766 5.92972C12.9766 2.93052 15.41 0.5 18.411 0.5C21.412 0.5 23.8455 2.93052 23.8455 5.92972C23.8455 8.20219 22.4994 10.0978 21.2278 11.3888C20.5853 12.0411 19.9444 12.5569 19.4645 12.9096C19.2242 13.0863 19.0232 13.2228 18.8812 13.3158C18.8102 13.3623 18.7538 13.398 18.7146 13.4224C18.695 13.4346 18.6797 13.444 18.6689 13.4506C18.6665 13.452 18.6643 13.4534 18.6623 13.4546C18.6599 13.456 18.6579 13.4572 18.6562 13.4582L18.6526 13.4604L18.6514 13.4611L18.651 13.4614C18.6508 13.4615 18.6507 13.4616 18.411 13.0587ZM18.411 13.0587L18.6507 13.4616C18.5035 13.5491 18.3203 13.5494 18.1728 13.4624L18.411 13.0587Z" fill="#FA6741"/>
<path fill-rule="evenodd" clip-rule="evenodd" d="M18.4099 4.08398C17.3892 4.08398 16.5625 4.91054 16.5625 5.92922C16.5625 6.94789 17.3892 7.77445 18.4099 7.77445C19.4307 7.77445 20.2574 6.94789 20.2574 5.92922C20.2574 4.91054 19.4307 4.08398 18.4099 4.08398ZM15.625 5.92922C15.625 4.39194 16.8723 3.14648 18.4099 3.14648C19.9476 3.14648 21.1949 4.39194 21.1949 5.92922C21.1949 7.4665 19.9476 8.71195 18.4099 8.71195C16.8723 8.71195 15.625 7.4665 15.625 5.92922Z" fill="#FA6741"/>
<path fill-rule="evenodd" clip-rule="evenodd" d="M18.4109 13.5273C18.0379 13.5273 17.7363 13.8293 17.7363 14.2008C17.7363 14.5723 18.0379 14.8743 18.4109 14.8743C18.7839 14.8743 19.0855 14.5723 19.0855 14.2008C19.0855 13.8293 18.7839 13.5273 18.4109 13.5273ZM16.7988 14.2008C16.7988 13.3107 17.521 12.5898 18.4109 12.5898C19.3008 12.5898 20.023 13.3107 20.023 14.2008C20.023 15.0909 19.3008 15.8118 18.4109 15.8118C17.521 15.8118 16.7988 15.0909 16.7988 14.2008Z" fill="#FA6741"/>
<path fill-rule="evenodd" clip-rule="evenodd" d="M6.36655 7.87402C3.45293 7.87402 1.0918 10.2336 1.0918 13.1432C1.0918 15.3873 2.42351 17.3354 3.82835 18.7582C4.52426 19.463 5.22178 20.0221 5.74572 20.405C6.00174 20.5922 6.21531 20.7365 6.36562 20.8344C6.51604 20.7357 6.72991 20.5903 6.98635 20.4018C7.51046 20.0166 8.20819 19.4547 8.90432 18.7479C10.31 17.3208 11.6413 15.3728 11.6413 13.1432C11.6413 10.2336 9.28016 7.87402 6.36655 7.87402ZM6.36655 21.3888C6.12838 21.7925 6.12823 21.7924 6.12806 21.7923L6.12634 21.7913L6.12221 21.7889C6.11878 21.7868 6.11398 21.7839 6.10785 21.7802C6.09561 21.7728 6.07807 21.7622 6.05559 21.7483C6.01064 21.7205 5.9459 21.6798 5.8642 21.6267C5.70087 21.5205 5.46942 21.3643 5.19253 21.1619C4.63956 20.7578 3.90121 20.1663 3.16124 19.4169C1.69434 17.9312 0.154297 15.7565 0.154297 13.1432C0.154297 9.71495 2.93601 6.93652 6.36655 6.93652C9.79709 6.93652 12.5787 9.71496 12.5787 13.1432C12.5787 15.7427 11.0383 17.9174 9.57223 19.4058C8.83249 20.1568 8.09436 20.7509 7.54157 21.1572C7.26478 21.3606 7.03341 21.5178 6.87015 21.6247C6.7885 21.6782 6.7238 21.7191 6.67888 21.7471C6.65642 21.7611 6.6389 21.7719 6.62667 21.7793C6.62055 21.783 6.61576 21.7859 6.61233 21.788L6.60822 21.7904L6.60695 21.7912L6.6065 21.7915C6.60634 21.7916 6.60619 21.7916 6.36655 21.3888ZM6.36655 21.3888L6.60619 21.7916C6.45904 21.8792 6.27586 21.8795 6.12838 21.7925L6.36655 21.3888Z" fill="#FA6741"/>
<path fill-rule="evenodd" clip-rule="evenodd" d="M6.36573 10.2891C4.78692 10.2891 3.50781 11.5676 3.50781 13.1438C3.50781 14.72 4.78692 15.9985 6.36573 15.9985C7.94454 15.9985 9.22366 14.72 9.22366 13.1438C9.22366 11.5676 7.94454 10.2891 6.36573 10.2891ZM2.57031 13.1438C2.57031 11.049 4.27 9.35156 6.36573 9.35156C8.46146 9.35156 10.1612 11.049 10.1612 13.1438C10.1612 15.2386 8.46146 16.936 6.36573 16.936C4.27 16.936 2.57031 15.2386 2.57031 13.1438Z" fill="#FA6741"/>
<path fill-rule="evenodd" clip-rule="evenodd" d="M6.36731 21.8574C5.89544 21.8574 5.51367 22.2395 5.51367 22.7098C5.51367 23.1801 5.89544 23.5622 6.36731 23.5622C6.83919 23.5622 7.22095 23.1801 7.22095 22.7098C7.22095 22.2395 6.83919 21.8574 6.36731 21.8574ZM4.57617 22.7098C4.57617 21.7209 5.37852 20.9199 6.36731 20.9199C7.35611 20.9199 8.15845 21.7209 8.15845 22.7098C8.15845 23.6987 7.35611 24.4997 6.36731 24.4997C5.37852 24.4997 4.57617 23.6987 4.57617 22.7098Z" fill="#FA6741"/>
<path fill-rule="evenodd" clip-rule="evenodd" d="M18.4111 16.8477C18.67 16.8477 18.8799 17.0575 18.8799 17.3164C18.8799 18.2014 18.1619 18.9182 17.277 18.9182H15.5767C15.2157 18.9182 14.9238 19.2104 14.9238 19.57C14.9238 19.9296 15.2157 20.2219 15.5767 20.2219H20.7073C21.6358 20.2219 22.3892 20.9739 22.3892 21.9026C22.3892 22.8313 21.6358 23.5834 20.7073 23.5834H9.70898C9.4501 23.5834 9.24023 23.3735 9.24023 23.1146C9.24023 22.8557 9.4501 22.6459 9.70898 22.6459H20.7073C21.1189 22.6459 21.4517 22.3127 21.4517 21.9026C21.4517 21.4925 21.1189 21.1594 20.7073 21.1594H15.5767C14.6987 21.1594 13.9863 20.4482 13.9863 19.57C13.9863 18.6918 14.6988 17.9807 15.5767 17.9807H17.277C17.6449 17.9807 17.9424 17.6828 17.9424 17.3164C17.9424 17.0575 18.1523 16.8477 18.4111 16.8477Z" fill="#FA6741"/>
</svg>
