<svg width="24" height="23" viewBox="0 0 24 23" fill="none" xmlns="http://www.w3.org/2000/svg">
<path d="M6.75 10.75H7.5V19H6.75V10.75ZM4.5 10.75H5.25V19H4.5V10.75ZM2.25 10.75H3V19H2.25V10.75ZM9 10.75H9.75V19H9V10.75Z" fill="#FA6741"/>
<path d="M19.238 11.7361L19.8831 10.7223L20.8259 11.288C20.8976 11.3311 20.9817 11.3489 21.0647 11.3387C21.1477 11.3285 21.2249 11.2908 21.2841 11.2317C21.3432 11.1725 21.3809 11.0953 21.3911 11.0123C21.4013 10.9292 21.3835 10.8452 21.3404 10.7735L20.7747 9.83064L23.0763 8.36598C23.1237 8.33584 23.1637 8.29543 23.1934 8.24775C23.2231 8.20007 23.2417 8.14634 23.2478 8.09051C23.2539 8.03469 23.2474 7.9782 23.2288 7.92522C23.2102 7.87224 23.1799 7.82411 23.1402 7.78441L22.3447 6.98894C22.298 6.9422 22.2397 6.90865 22.1758 6.89169C22.1119 6.87474 22.0446 6.87497 21.9809 6.89237L19.3174 7.61875C19.2448 7.52828 19.1707 7.43891 19.0954 7.35067L17.2914 5.24612L21.4877 2.53084C21.5694 2.47802 21.6273 2.39552 21.6493 2.30078C21.6713 2.20604 21.6556 2.10645 21.6056 2.02305L20.8101 0.697234C20.7671 0.625518 20.7013 0.570245 20.6233 0.540204C20.5452 0.510162 20.4593 0.507077 20.3793 0.531437L14.7253 2.25222L14.4076 1.88172C13.6662 1.01439 12.6221 0.462259 11.4879 0.33775L10.7189 0.252344C10.663 0.24613 10.6064 0.252568 10.5534 0.271181C10.5003 0.289793 10.4521 0.320103 10.4123 0.359868C10.3726 0.399632 10.3422 0.447832 10.3236 0.5009C10.305 0.553967 10.2986 0.610542 10.3048 0.666438L10.3902 1.43561C10.5147 2.5698 11.0668 3.61389 11.9341 4.35531L12.3047 4.67294L11.0522 8.78819C10.8965 8.47653 10.6572 8.21434 10.361 8.03099C10.0648 7.84763 9.72337 7.75034 9.375 7.75H7.875V2.125C7.875 1.62772 7.67746 1.15081 7.32583 0.799175C6.97419 0.447544 6.49728 0.25 6 0.25C5.50272 0.25 5.02581 0.447544 4.67417 0.799175C4.32254 1.15081 4.125 1.62772 4.125 2.125V7.75H2.625C2.12789 7.75057 1.65131 7.9483 1.29981 8.2998C0.948298 8.65131 0.750571 9.12789 0.75 9.625V19.375C0.750609 19.8198 0.909124 20.25 1.19731 20.5889C1.48549 20.9278 1.88462 21.1534 2.32359 21.2254C2.25917 21.3947 2.23658 21.5771 2.25774 21.757C2.2789 21.9369 2.34318 22.109 2.44512 22.2587C2.54706 22.4084 2.68365 22.5313 2.84327 22.6169C3.0029 22.7026 3.18083 22.7484 3.36195 22.7505C3.54307 22.7526 3.72203 22.7109 3.8836 22.629C4.04517 22.5472 4.18458 22.4275 4.28997 22.2802C4.39537 22.1329 4.46364 21.9623 4.48898 21.7829C4.51431 21.6036 4.49597 21.4207 4.4355 21.25H8.3145C8.25038 21.4309 8.23362 21.6252 8.26581 21.8145C8.29801 22.0037 8.37808 22.1815 8.49841 22.3311C8.61875 22.4806 8.77534 22.5969 8.9533 22.6688C9.13126 22.7408 9.32467 22.766 9.51512 22.7421C9.70557 22.7182 9.88674 22.6459 10.0414 22.5322C10.196 22.4185 10.319 22.2671 10.3986 22.0925C10.4782 21.9178 10.5119 21.7257 10.4963 21.5344C10.4807 21.343 10.4164 21.1589 10.3095 20.9995C10.5951 20.8352 10.8325 20.5985 10.9976 20.3133C11.1627 20.0282 11.2497 19.7045 11.25 19.375V11.058L12.0755 11.5532C12.08 11.5559 12.0848 11.5578 12.0895 11.5604L12.7265 14.3582C12.1529 15.3736 11.909 16.5421 12.0286 17.7021C12.1482 18.8622 12.6253 19.9564 13.394 20.8334C14.1627 21.7103 15.185 22.3267 16.3194 22.5973C17.4537 22.8679 18.6441 22.7792 19.7259 22.3436C20.8077 21.9079 21.7273 21.1469 22.3576 20.1657C22.9879 19.1845 23.2977 18.0317 23.2441 16.8667C23.1905 15.7018 22.7762 14.5823 22.0585 13.6631C21.3408 12.7439 20.3552 12.0705 19.238 11.736V11.7361ZM18.4598 11.562C18.2536 11.5313 18.046 11.5121 17.8378 11.5044L18.3164 9.74945C18.5354 9.90233 18.7591 10.0475 18.9875 10.185L19.2397 10.3363L18.4598 11.562ZM17.4031 9.04295C17.4913 9.11831 17.5807 9.19234 17.6711 9.265L17.0535 11.5298C16.6061 11.5743 16.1659 11.6728 15.7422 11.823L12.9239 10.9088L15.2985 7.23902L17.4031 9.04295ZM21.9683 7.67312L22.2793 7.98423L20.3887 9.18737L20.2374 8.93519C20.1004 8.70687 19.9552 8.48312 19.8019 8.26394L21.9683 7.67312ZM20.3175 1.33422L20.7759 2.09814L16.7989 4.67153L15.2581 2.87402L20.3175 1.33422ZM11.1355 1.35278L11.1018 1.0495L11.4051 1.08325C12.3502 1.18699 13.2203 1.64707 13.8382 2.36983L18.5259 7.83878C18.9229 8.30207 19.2802 8.79788 19.5942 9.32097L19.9255 9.87311L19.3733 9.54184C18.8503 9.22782 18.3545 8.87046 17.8912 8.47351L12.4222 3.78578C11.6994 3.16791 11.2394 2.29784 11.1356 1.35269L11.1355 1.35278ZM4.875 2.125C4.875 1.82663 4.99353 1.54048 5.2045 1.3295C5.41548 1.11853 5.70163 1 6 1C6.29837 1 6.58452 1.11853 6.7955 1.3295C7.00647 1.54048 7.125 1.82663 7.125 2.125V7.75H4.875V2.125ZM3.75 21.625C3.75 21.6992 3.72801 21.7717 3.6868 21.8333C3.6456 21.895 3.58703 21.9431 3.51851 21.9715C3.44998 21.9998 3.37458 22.0073 3.30184 21.9928C3.2291 21.9783 3.16228 21.9426 3.10984 21.8902C3.05739 21.8377 3.02167 21.7709 3.00721 21.6982C2.99274 21.6254 3.00016 21.55 3.02855 21.4815C3.05693 21.413 3.10499 21.3544 3.16666 21.3132C3.22833 21.272 3.30083 21.25 3.375 21.25C3.47442 21.2501 3.56973 21.2897 3.64003 21.36C3.71033 21.4303 3.74988 21.5256 3.75 21.625ZM9.75 21.625C9.75 21.6992 9.72801 21.7717 9.6868 21.8333C9.6456 21.895 9.58703 21.9431 9.51851 21.9715C9.44998 21.9998 9.37458 22.0073 9.30184 21.9928C9.2291 21.9783 9.16228 21.9426 9.10983 21.8902C9.05739 21.8377 9.02168 21.7709 9.00721 21.6982C8.99274 21.6254 9.00016 21.55 9.02855 21.4815C9.05693 21.413 9.10499 21.3544 9.16666 21.3132C9.22833 21.272 9.30083 21.25 9.375 21.25C9.47442 21.2501 9.56973 21.2897 9.64003 21.36C9.71033 21.4303 9.74988 21.5256 9.75 21.625ZM10.5 19.375C10.4997 19.6733 10.381 19.9592 10.1701 20.1701C9.95922 20.381 9.67327 20.4997 9.375 20.5H2.625C2.32673 20.4997 2.04078 20.381 1.82987 20.1701C1.61897 19.9592 1.50033 19.6733 1.5 19.375V9.625C1.50033 9.32673 1.61897 9.04078 1.82987 8.82987C2.04078 8.61897 2.32673 8.50033 2.625 8.5H4.125V9.625H4.875V8.5H7.125V9.625H7.875V8.5H9.375C9.67327 8.50033 9.95922 8.61897 10.1701 8.82987C10.381 9.04078 10.4997 9.32673 10.5 9.625V19.375ZM12.9264 5.20581L14.7239 6.7465L12.1505 10.7236L11.3865 10.2652L12.9264 5.20581ZM17.625 22C16.762 21.9998 15.9145 21.7706 15.169 21.3357C14.4236 20.9008 13.8069 20.2759 13.382 19.5247C12.9571 18.7735 12.7391 17.9231 12.7504 17.0601C12.7617 16.1972 13.0018 15.3527 13.4462 14.6129C13.4963 14.5298 13.5122 14.4306 13.4907 14.3361L12.8872 11.6853L15.6343 12.5764C15.7158 12.6029 15.8039 12.6006 15.884 12.57C16.5521 12.3147 17.2681 12.2095 17.9814 12.2619C18.6947 12.3143 19.3877 12.5229 20.0113 12.8731C20.635 13.2232 21.1739 13.7063 21.59 14.288C22.0061 14.8697 22.289 15.5359 22.4189 16.2392C22.5487 16.9425 22.5223 17.6658 22.3414 18.3577C22.1604 19.0497 21.8295 19.6933 21.372 20.2431C20.9146 20.7928 20.3417 21.2352 19.6942 21.5388C19.0466 21.8425 18.3402 21.9999 17.625 22Z" fill="#FA6741"/>
<path d="M19.875 16.75C19.7963 16.75 19.7196 16.7748 19.6557 16.8208C19.5919 16.8668 19.5441 16.9317 19.5192 17.0064L19.1393 18.1463L17.9834 14.3897C17.9598 14.3131 17.9123 14.246 17.8478 14.1984C17.7833 14.1507 17.7052 14.125 17.625 14.125H17.6212C17.5404 14.1258 17.462 14.1528 17.3977 14.2018C17.3334 14.2508 17.2867 14.3193 17.2644 14.397L16.5922 16.75H13.5V17.5H16.875C16.9565 17.5 17.0358 17.4734 17.1008 17.4244C17.1659 17.3753 17.2132 17.3063 17.2356 17.228L17.6383 15.8184L18.7666 19.4853C18.79 19.5612 18.8368 19.6278 18.9005 19.6753C18.9641 19.7229 19.0412 19.749 19.1206 19.75L19.125 19.75C19.2037 19.75 19.2804 19.7252 19.3443 19.6792C19.4081 19.6332 19.4559 19.5683 19.4808 19.4936L20.1453 17.5H21.75V16.75H19.875Z" fill="#FA6741"/>
</svg>
