<svg width="24" height="24" viewBox="0 0 24 24" fill="none" xmlns="http://www.w3.org/2000/svg">
<path fill-rule="evenodd" clip-rule="evenodd" d="M12.6916 5.2205L12.1877 4.59706C12.0188 4.38819 11.7004 4.38819 11.5315 4.59706L11.0275 5.2205C10.7366 5.58047 10.3473 5.84822 9.90712 5.99126C9.46691 6.13429 8.99465 6.14646 8.54766 6.02628L7.77347 5.81816C7.51411 5.74841 7.25644 5.93558 7.24261 6.20384L7.20136 7.00442C7.17753 7.46668 7.02002 7.91207 6.74795 8.28654C6.47588 8.66101 6.10096 8.94844 5.66869 9.11394L4.92005 9.40058C4.66922 9.49662 4.57083 9.79953 4.71727 10.0246L5.15447 10.6966C5.40689 11.0846 5.54126 11.5375 5.54126 12.0004C5.54126 12.4632 5.40689 12.9161 5.15447 13.3041L4.71727 13.976C4.57078 14.2012 4.66922 14.5041 4.92005 14.6001L5.66869 14.8868C6.10096 15.0523 6.47588 15.3397 6.74795 15.7142C7.02002 16.0886 7.17753 16.534 7.20136 16.9963L7.24261 17.7969C7.25644 18.0651 7.51411 18.2523 7.77347 18.1826L8.54766 17.9744C8.99464 17.8543 9.46691 17.8664 9.90712 18.0094C10.3473 18.1525 10.7365 18.4202 11.0275 18.7802L11.5315 19.4037C11.7004 19.6125 12.0188 19.6125 12.1877 19.4037L12.6916 18.7802C12.9826 18.4202 13.3718 18.1525 13.8121 18.0094C14.2523 17.8664 14.7245 17.8543 15.1715 17.9744L15.9457 18.1826C16.2051 18.2523 16.4627 18.0651 16.4766 17.7969L16.5178 16.9963C16.5416 16.534 16.6992 16.0886 16.9712 15.7142C17.2433 15.3397 17.6182 15.0523 18.0505 14.8868L18.7991 14.6001C19.05 14.5041 19.1484 14.2012 19.0019 13.976L18.5647 13.3041C18.3123 12.9161 18.1779 12.4632 18.1779 12.0004C18.1779 11.5375 18.3123 11.0846 18.5647 10.6966L19.0019 10.0246C19.1484 9.79953 19.05 9.49662 18.7991 9.40058L18.0505 9.11394C17.6182 8.94844 17.2433 8.66101 16.9712 8.28654C16.6992 7.91207 16.5416 7.46668 16.5178 7.00442L16.4766 6.20384C16.4627 5.93558 16.2051 5.74841 15.9457 5.81816L15.1715 6.02628C14.7245 6.14646 14.2523 6.13429 13.812 5.99126C13.3718 5.84822 12.9826 5.58047 12.6916 5.2205ZM12.9532 3.97827C12.3904 3.28198 11.3288 3.28198 10.766 3.97827L10.262 4.6017C10.0908 4.81345 9.86188 4.97095 9.60293 5.05508C9.34397 5.13922 9.06616 5.14636 8.80322 5.07566L8.02908 4.86753C7.16447 4.63503 6.30563 5.25903 6.25955 6.15317L6.2183 6.95375C6.20428 7.22567 6.11163 7.48766 5.95158 7.70794C5.79154 7.92821 5.57098 8.09728 5.3167 8.19463L4.56806 8.48131C3.73191 8.80142 3.40388 9.81102 3.89213 10.5615L4.32938 11.2334C4.47787 11.4617 4.55691 11.7281 4.55691 12.0004C4.55691 12.2726 4.47787 12.5391 4.32938 12.7673L3.89217 13.4392C3.40388 14.1897 3.73191 15.1993 4.56806 15.5194L5.3167 15.806C5.57098 15.9034 5.79153 16.0725 5.95157 16.2928C6.11162 16.513 6.20427 16.7751 6.2183 17.047L6.25955 17.8475C6.30563 18.7417 7.16447 19.3657 8.02908 19.1332L8.80322 18.9251C9.06616 18.8544 9.34397 18.8615 9.60293 18.9456C9.86188 19.0298 10.0908 19.1873 10.262 19.399L10.766 20.0225C11.3288 20.7187 12.3904 20.7187 12.9532 20.0225L13.4572 19.399C13.6283 19.1873 13.8573 19.0298 14.1162 18.9456C14.3752 18.8615 14.653 18.8544 14.916 18.9251L15.6901 19.1332C16.5547 19.3657 17.4135 18.7417 17.4596 17.8475L17.5009 17.047C17.5149 16.7751 17.6076 16.513 17.7676 16.2928C17.9276 16.0725 18.1482 15.9034 18.4025 15.806L19.1511 15.5194C19.9873 15.1993 20.3153 14.1897 19.827 13.4392L19.3898 12.7673C19.2413 12.5391 19.1623 12.2726 19.1623 12.0004C19.1623 11.7281 19.2413 11.4617 19.3898 11.2334L19.827 10.5615C20.3153 9.81102 19.9873 8.80142 19.1511 8.48131L18.4025 8.19463C18.1482 8.09728 17.9276 7.92821 17.7676 7.70794C17.6075 7.48766 17.5149 7.22567 17.5009 6.95375L17.4596 6.15317C17.4135 5.25903 16.5547 4.63503 15.6901 4.86753L14.916 5.07566C14.653 5.14636 14.3752 5.13922 14.1162 5.05508C13.8573 4.97095 13.6283 4.81345 13.4572 4.6017L12.9532 3.97827Z" fill="#FA6741"/>
<path fill-rule="evenodd" clip-rule="evenodd" d="M15.4446 9.45177C15.6353 9.64555 15.6327 9.95717 15.4388 10.1478L11.6863 13.8382C11.1163 14.3987 10.1975 14.383 9.64705 13.8033L8.31496 12.4004C8.12779 12.2033 8.13585 11.8918 8.33296 11.7045C8.53007 11.5174 8.8416 11.5254 9.02877 11.7226L10.3609 13.1255C10.5324 13.306 10.8186 13.3109 10.9961 13.1363L14.7486 9.44596C14.9424 9.25536 15.2541 9.25794 15.4446 9.45177Z" fill="#FA6741"/>
</svg>
