<svg width="26" height="25" viewBox="0 0 26 25" fill="none" xmlns="http://www.w3.org/2000/svg">
<path d="M10.9688 5.49414H12.5938C12.7015 5.49414 12.8048 5.45134 12.881 5.37515C12.9572 5.29897 13 5.19563 13 5.08789V2.65039C13 2.54265 12.9572 2.43932 12.881 2.36313C12.8048 2.28694 12.7015 2.24414 12.5938 2.24414H10.9688C10.861 2.24414 10.7577 2.28694 10.6815 2.36313C10.6053 2.43932 10.5625 2.54265 10.5625 2.65039V5.08789C10.5625 5.19563 10.6053 5.29897 10.6815 5.37515C10.7577 5.45134 10.861 5.49414 10.9688 5.49414ZM11.375 3.05664H12.1875V4.68164H11.375V3.05664ZM14.2188 5.49414H15.8438C15.9515 5.49414 16.0548 5.45134 16.131 5.37515C16.2072 5.29897 16.25 5.19563 16.25 5.08789V2.65039C16.25 2.54265 16.2072 2.43932 16.131 2.36313C16.0548 2.28694 15.9515 2.24414 15.8438 2.24414H14.2188C14.111 2.24414 14.0077 2.28694 13.9315 2.36313C13.8553 2.43932 13.8125 2.54265 13.8125 2.65039V5.08789C13.8125 5.19563 13.8553 5.29897 13.9315 5.37515C14.0077 5.45134 14.111 5.49414 14.2188 5.49414ZM14.625 3.05664H15.4375V4.68164H14.625V3.05664ZM17.4688 5.49414H19.0938C19.2015 5.49414 19.3048 5.45134 19.381 5.37515C19.4572 5.29897 19.5 5.19563 19.5 5.08789V2.65039C19.5 2.54265 19.4572 2.43932 19.381 2.36313C19.3048 2.28694 19.2015 2.24414 19.0938 2.24414H17.4688C17.361 2.24414 17.2577 2.28694 17.1815 2.36313C17.1053 2.43932 17.0625 2.54265 17.0625 2.65039V5.08789C17.0625 5.19563 17.1053 5.29897 17.1815 5.37515C17.2577 5.45134 17.361 5.49414 17.4688 5.49414ZM17.875 3.05664H18.6875V4.68164H17.875V3.05664ZM10.9688 9.55664H12.5938C12.7015 9.55664 12.8048 9.51384 12.881 9.43765C12.9572 9.36147 13 9.25813 13 9.15039V6.71289C13 6.60515 12.9572 6.50181 12.881 6.42563C12.8048 6.34944 12.7015 6.30664 12.5938 6.30664H10.9688C10.861 6.30664 10.7577 6.34944 10.6815 6.42563C10.6053 6.50181 10.5625 6.60515 10.5625 6.71289V9.15039C10.5625 9.25813 10.6053 9.36147 10.6815 9.43765C10.7577 9.51384 10.861 9.55664 10.9688 9.55664ZM11.375 7.11914H12.1875V8.74414H11.375V7.11914ZM14.2188 9.55664H15.8438C15.9515 9.55664 16.0548 9.51384 16.131 9.43765C16.2072 9.36147 16.25 9.25813 16.25 9.15039V6.71289C16.25 6.60515 16.2072 6.50181 16.131 6.42563C16.0548 6.34944 15.9515 6.30664 15.8438 6.30664H14.2188C14.111 6.30664 14.0077 6.34944 13.9315 6.42563C13.8553 6.50181 13.8125 6.60515 13.8125 6.71289V9.15039C13.8125 9.25813 13.8553 9.36147 13.9315 9.43765C14.0077 9.51384 14.111 9.55664 14.2188 9.55664ZM14.625 7.11914H15.4375V8.74414H14.625V7.11914ZM17.4688 9.55664H19.0938C19.2015 9.55664 19.3048 9.51384 19.381 9.43765C19.4572 9.36147 19.5 9.25813 19.5 9.15039V6.71289C19.5 6.60515 19.4572 6.50181 19.381 6.42563C19.3048 6.34944 19.2015 6.30664 19.0938 6.30664H17.4688C17.361 6.30664 17.2577 6.34944 17.1815 6.42563C17.1053 6.50181 17.0625 6.60515 17.0625 6.71289V9.15039C17.0625 9.25813 17.1053 9.36147 17.1815 9.43765C17.2577 9.51384 17.361 9.55664 17.4688 9.55664ZM17.875 7.11914H18.6875V8.74414H17.875V7.11914ZM7.71875 5.49414H9.34375C9.45149 5.49414 9.55483 5.45134 9.63101 5.37515C9.7072 5.29897 9.75 5.19563 9.75 5.08789V2.65039C9.75 2.54265 9.7072 2.43932 9.63101 2.36313C9.55483 2.28694 9.45149 2.24414 9.34375 2.24414H7.71875C7.61101 2.24414 7.50767 2.28694 7.43149 2.36313C7.3553 2.43932 7.3125 2.54265 7.3125 2.65039V5.08789C7.3125 5.19563 7.3553 5.29897 7.43149 5.37515C7.50767 5.45134 7.61101 5.49414 7.71875 5.49414ZM8.125 3.05664H8.9375V4.68164H8.125V3.05664ZM7.71875 9.55664H9.34375C9.45149 9.55664 9.55483 9.51384 9.63101 9.43765C9.7072 9.36147 9.75 9.25813 9.75 9.15039V6.71289C9.75 6.60515 9.7072 6.50181 9.63101 6.42563C9.55483 6.34944 9.45149 6.30664 9.34375 6.30664H7.71875C7.61101 6.30664 7.50767 6.34944 7.43149 6.42563C7.3553 6.50181 7.3125 6.60515 7.3125 6.71289V9.15039C7.3125 9.25813 7.3553 9.36147 7.43149 9.43765C7.50767 9.51384 7.61101 9.55664 7.71875 9.55664ZM8.125 7.11914H8.9375V8.74414H8.125V7.11914ZM10.9688 13.6191H12.5938C12.7015 13.6191 12.8048 13.5763 12.881 13.5002C12.9572 13.424 13 13.3206 13 13.2129V10.7754C13 10.6676 12.9572 10.5643 12.881 10.4881C12.8048 10.4119 12.7015 10.3691 12.5938 10.3691H10.9688C10.861 10.3691 10.7577 10.4119 10.6815 10.4881C10.6053 10.5643 10.5625 10.6676 10.5625 10.7754V13.2129C10.5625 13.3206 10.6053 13.424 10.6815 13.5002C10.7577 13.5763 10.861 13.6191 10.9688 13.6191ZM11.375 11.1816H12.1875V12.8066H11.375V11.1816ZM7.71875 13.6191H9.34375C9.45149 13.6191 9.55483 13.5763 9.63101 13.5002C9.7072 13.424 9.75 13.3206 9.75 13.2129V10.7754C9.75 10.6676 9.7072 10.5643 9.63101 10.4881C9.55483 10.4119 9.45149 10.3691 9.34375 10.3691H7.71875C7.61101 10.3691 7.50767 10.4119 7.43149 10.4881C7.3553 10.5643 7.3125 10.6676 7.3125 10.7754V13.2129C7.3125 13.3206 7.3553 13.424 7.43149 13.5002C7.50767 13.5763 7.61101 13.6191 7.71875 13.6191ZM8.125 11.1816H8.9375V12.8066H8.125V11.1816ZM14.2188 13.6191H15.8438C15.9515 13.6191 16.0548 13.5763 16.131 13.5002C16.2072 13.424 16.25 13.3206 16.25 13.2129V10.7754C16.25 10.6676 16.2072 10.5643 16.131 10.4881C16.0548 10.4119 15.9515 10.3691 15.8438 10.3691H14.2188C14.111 10.3691 14.0077 10.4119 13.9315 10.4881C13.8553 10.5643 13.8125 10.6676 13.8125 10.7754V13.2129C13.8125 13.3206 13.8553 13.424 13.9315 13.5002C14.0077 13.5763 14.111 13.6191 14.2188 13.6191ZM14.625 11.1816H15.4375V12.8066H14.625V11.1816ZM17.4688 13.6191H19.0938C19.2015 13.6191 19.3048 13.5763 19.381 13.5002C19.4572 13.424 19.5 13.3206 19.5 13.2129V10.7754C19.5 10.6676 19.4572 10.5643 19.381 10.4881C19.3048 10.4119 19.2015 10.3691 19.0938 10.3691H17.4688C17.361 10.3691 17.2577 10.4119 17.1815 10.4881C17.1053 10.5643 17.0625 10.6676 17.0625 10.7754V13.2129C17.0625 13.3206 17.1053 13.424 17.1815 13.5002C17.2577 13.5763 17.361 13.6191 17.4688 13.6191ZM17.875 11.1816H18.6875V12.8066H17.875V11.1816ZM10.9688 17.6816H12.5938C12.7015 17.6816 12.8048 17.6388 12.881 17.5627C12.9572 17.4865 13 17.3831 13 17.2754V14.8379C13 14.7301 12.9572 14.6268 12.881 14.5506C12.8048 14.4744 12.7015 14.4316 12.5938 14.4316H10.9688C10.861 14.4316 10.7577 14.4744 10.6815 14.5506C10.6053 14.6268 10.5625 14.7301 10.5625 14.8379V17.2754C10.5625 17.3831 10.6053 17.4865 10.6815 17.5627C10.7577 17.6388 10.861 17.6816 10.9688 17.6816ZM11.375 15.2441H12.1875V16.8691H11.375V15.2441ZM7.71875 17.6816H9.34375C9.45149 17.6816 9.55483 17.6388 9.63101 17.5627C9.7072 17.4865 9.75 17.3831 9.75 17.2754V14.8379C9.75 14.7301 9.7072 14.6268 9.63101 14.5506C9.55483 14.4744 9.45149 14.4316 9.34375 14.4316H7.71875C7.61101 14.4316 7.50767 14.4744 7.43149 14.5506C7.3553 14.6268 7.3125 14.7301 7.3125 14.8379V17.2754C7.3125 17.3831 7.3553 17.4865 7.43149 17.5627C7.50767 17.6388 7.61101 17.6816 7.71875 17.6816ZM8.125 15.2441H8.9375V16.8691H8.125V15.2441ZM14.2188 17.6816H15.8438C15.9515 17.6816 16.0548 17.6388 16.131 17.5627C16.2072 17.4865 16.25 17.3831 16.25 17.2754V14.8379C16.25 14.7301 16.2072 14.6268 16.131 14.5506C16.0548 14.4744 15.9515 14.4316 15.8438 14.4316H14.2188C14.111 14.4316 14.0077 14.4744 13.9315 14.5506C13.8553 14.6268 13.8125 14.7301 13.8125 14.8379V17.2754C13.8125 17.3831 13.8553 17.4865 13.9315 17.5627C14.0077 17.6388 14.111 17.6816 14.2188 17.6816ZM14.625 15.2441H15.4375V16.8691H14.625V15.2441ZM17.4688 17.6816H19.0938C19.2015 17.6816 19.3048 17.6388 19.381 17.5627C19.4572 17.4865 19.5 17.3831 19.5 17.2754V14.8379C19.5 14.7301 19.4572 14.6268 19.381 14.5506C19.3048 14.4744 19.2015 14.4316 19.0938 14.4316H17.4688C17.361 14.4316 17.2577 14.4744 17.1815 14.5506C17.1053 14.6268 17.0625 14.7301 17.0625 14.8379V17.2754C17.0625 17.3831 17.1053 17.4865 17.1815 17.5627C17.2577 17.6388 17.361 17.6816 17.4688 17.6816ZM17.875 15.2441H18.6875V16.8691H17.875V15.2441Z" fill="#FA6741"/>
<path d="M24.781 15.2441H21.1247V1.02539C21.1247 0.917646 21.0819 0.814315 21.0058 0.738128C20.9296 0.661942 20.8262 0.619141 20.7185 0.619141H6.09349C5.98575 0.619141 5.88241 0.661942 5.80623 0.738128C5.73004 0.814315 5.68724 0.917646 5.68724 1.02539V15.6033C5.34565 15.3835 4.95115 15.2599 4.54526 15.2455C4.13936 15.231 3.73707 15.3262 3.38071 15.5211C3.02436 15.716 2.72712 16.0033 2.52026 16.3528C2.31341 16.7024 2.2046 17.1012 2.20527 17.5074C2.2057 17.733 2.24063 17.9573 2.30886 18.1724C1.80779 18.352 1.38626 18.7028 1.11865 19.1629C0.851048 19.6231 0.754574 20.1629 0.846255 20.6873C0.937936 21.2116 1.21188 21.6867 1.61974 22.0287C2.0276 22.3708 2.54317 22.5577 3.07546 22.5566C3.41835 22.5545 3.75611 22.4731 4.06224 22.3186V23.7754C4.06224 23.8831 4.10504 23.9865 4.18123 24.0627C4.25741 24.1388 4.36075 24.1816 4.46849 24.1816C4.57623 24.1816 4.67957 24.1388 4.75575 24.0627C4.83194 23.9865 4.87474 23.8831 4.87474 23.7754V22.3186C5.12887 22.4441 5.40466 22.5198 5.68724 22.5416V23.7754C5.68724 23.8831 5.73004 23.9865 5.80623 24.0627C5.88241 24.1388 5.98575 24.1816 6.09349 24.1816H23.9685C24.0762 24.1816 24.1796 24.1388 24.2558 24.0627C24.3319 23.9865 24.3747 23.8831 24.3747 23.7754V17.6816H24.781C24.8887 17.6816 24.9921 17.6388 25.0683 17.5627C25.1444 17.4865 25.1872 17.3831 25.1872 17.2754V15.6504C25.1872 15.5426 25.1444 15.4393 25.0683 15.3631C24.9921 15.2869 24.8887 15.2441 24.781 15.2441ZM4.46849 20.1191C4.36075 20.1191 4.25741 20.1619 4.18123 20.2381C4.10504 20.3143 4.06224 20.4176 4.06224 20.5254V21.3379C3.79884 21.5968 3.44477 21.7425 3.07546 21.7441C2.70409 21.7456 2.34642 21.6041 2.07656 21.3489C1.80671 21.0938 1.64537 20.7446 1.62599 20.3738C1.60661 20.0029 1.73068 19.6388 1.97247 19.3569C2.21427 19.0751 2.55525 18.897 2.92474 18.8598C2.9925 18.8525 3.05734 18.8283 3.11329 18.7894C3.16925 18.7505 3.21452 18.6982 3.24495 18.6372C3.27538 18.5762 3.28998 18.5086 3.28741 18.4405C3.28484 18.3724 3.26518 18.3061 3.23024 18.2475C3.09361 18.0248 3.02081 17.7687 3.0198 17.5074C3.0198 17.1226 3.17265 16.7536 3.44471 16.4815C3.71677 16.2095 4.08577 16.0566 4.47052 16.0566C4.85528 16.0566 5.22427 16.2095 5.49633 16.4815C5.7684 16.7536 5.92124 17.1226 5.92124 17.5074C5.92023 17.7687 5.84744 18.0248 5.7108 18.2475C5.67587 18.3061 5.65621 18.3724 5.65364 18.4405C5.65107 18.5086 5.66567 18.5762 5.69609 18.6372C5.72652 18.6982 5.77179 18.7505 5.82775 18.7894C5.88371 18.8283 5.94855 18.8525 6.0163 18.8598C6.38599 18.897 6.72714 19.0752 6.96897 19.3573C7.2108 19.6394 7.33475 20.0037 7.3151 20.3748C7.29545 20.7458 7.13371 21.0951 6.86344 21.35C6.59316 21.605 6.23511 21.7461 5.86355 21.7441C5.49354 21.7431 5.13864 21.5972 4.87474 21.3379V20.5254C4.87474 20.4176 4.83194 20.3143 4.75575 20.2381C4.67957 20.1619 4.57623 20.1191 4.46849 20.1191ZM15.4372 23.3691H11.3747V19.3066H15.4372V23.3691ZM20.3122 23.3691H16.2497V18.9004C16.2497 18.7926 16.2069 18.6893 16.1308 18.6131C16.0546 18.5369 15.9512 18.4941 15.8435 18.4941H10.9685C10.8607 18.4941 10.7574 18.5369 10.6812 18.6131C10.605 18.6893 10.5622 18.7926 10.5622 18.9004V23.3691H6.49974V22.4636C6.95741 22.3301 7.36104 22.0551 7.65275 21.678C7.94446 21.301 8.10926 20.8412 8.12352 20.3647C8.13777 19.8881 8.00075 19.4193 7.7321 19.0255C7.46345 18.6317 7.07698 18.333 6.62812 18.1724C6.69635 17.9573 6.73128 17.733 6.73171 17.5074C6.73136 17.1634 6.652 16.8241 6.49974 16.5157V1.43164H20.3122V23.3691ZM23.5622 23.3691H21.1247V17.6816H23.5622V23.3691ZM24.3747 16.8691H21.1247V16.0566H24.3747V16.8691Z" fill="#FA6741"/>
</svg>
