<svg width="26" height="21" viewBox="0 0 26 21" fill="none" xmlns="http://www.w3.org/2000/svg">
<path d="M13 11.1201C13.448 11.1201 13.8125 11.4846 13.8125 11.9326C13.8125 12.0404 13.8553 12.1437 13.9315 12.2199C14.0077 12.2961 14.111 12.3389 14.2188 12.3389C14.3265 12.3389 14.4298 12.2961 14.506 12.2199C14.5822 12.1437 14.625 12.0404 14.625 11.9326C14.625 11.1768 14.1063 10.5399 13.4062 10.3591V9.90137C13.4062 9.79362 13.3634 9.69029 13.2873 9.6141C13.2111 9.53792 13.1077 9.49512 13 9.49512C12.8923 9.49512 12.7889 9.53792 12.7127 9.6141C12.6366 9.69029 12.5938 9.79362 12.5938 9.90137V10.3591C11.8937 10.5399 11.375 11.1768 11.375 11.9326C11.375 12.8287 12.104 13.5576 13 13.5576C13.448 13.5576 13.8125 13.9221 13.8125 14.3701C13.8125 14.8181 13.448 15.1826 13 15.1826C12.552 15.1826 12.1875 14.8181 12.1875 14.3701C12.1875 14.2624 12.1447 14.159 12.0685 14.0829C11.9923 14.0067 11.889 13.9639 11.7812 13.9639C11.6735 13.9639 11.5702 14.0067 11.494 14.0829C11.4178 14.159 11.375 14.2624 11.375 14.3701C11.375 15.1259 11.8937 15.7628 12.5938 15.9437V16.4014C12.5938 16.5091 12.6366 16.6124 12.7127 16.6886C12.7889 16.7648 12.8923 16.8076 13 16.8076C13.1077 16.8076 13.2111 16.7648 13.2873 16.6886C13.3634 16.6124 13.4062 16.5091 13.4062 16.4014V15.9437C14.1063 15.7628 14.625 15.1259 14.625 14.3701C14.625 13.4741 13.896 12.7451 13 12.7451C12.552 12.7451 12.1875 12.3806 12.1875 11.9326C12.1875 11.4846 12.552 11.1201 13 11.1201Z" fill="white"/>
<path d="M13 7.87012C10.0879 7.87012 7.71875 10.2393 7.71875 13.1514C7.71875 16.0635 10.0879 18.4326 13 18.4326C15.9121 18.4326 18.2812 16.0635 18.2812 13.1514C18.2812 10.2393 15.9121 7.87012 13 7.87012ZM13 17.6201C10.5359 17.6201 8.53125 15.6154 8.53125 13.1514C8.53125 10.6873 10.5359 8.68262 13 8.68262C15.4641 8.68262 17.4688 10.6873 17.4688 13.1514C17.4688 15.6154 15.4641 17.6201 13 17.6201Z" fill="white"/>
<path d="M24.7337 6.24467L24.474 4.16705C24.3899 3.4942 23.7737 3.01782 23.0961 3.11121L22.508 3.1953L22.126 1.66745C22.0867 1.50999 22.0164 1.36198 21.9191 1.23208C21.8218 1.10219 21.6996 0.993045 21.5596 0.911054C21.4195 0.829064 21.2645 0.775881 21.1036 0.75463C20.9428 0.733379 20.7792 0.744489 20.6227 0.787306L1.15725 6.24624C0.513703 6.27838 0 6.81204 0 7.46342V18.8384C0 19.5104 0.546762 20.0572 1.21875 20.0572H24.7812C25.4532 20.0572 26 19.5104 26 18.8384V7.46342C26 6.83403 25.5127 6.24467 24.7337 6.24467ZM23.2091 3.91579C23.2623 3.90842 23.3166 3.91171 23.3686 3.92547C23.4206 3.93923 23.4693 3.96318 23.512 3.99593C23.5546 4.02869 23.5904 4.06959 23.6171 4.11627C23.6438 4.16295 23.661 4.21448 23.6677 4.26785L23.9148 6.24472H6.92768L23.2091 3.91579ZM20.8381 1.57076C20.8902 1.5567 20.9446 1.55317 20.9981 1.56038C21.0516 1.56759 21.1031 1.58539 21.1496 1.61275C21.1961 1.6401 21.2368 1.67645 21.2691 1.71969C21.3014 1.76292 21.3248 1.81216 21.3378 1.86453L21.6994 3.31098L7.27619 5.37407L20.8381 1.57076ZM25.1875 18.8384C25.1875 19.0624 25.0052 19.2447 24.7812 19.2447H1.21875C0.994754 19.2447 0.8125 19.0624 0.8125 18.8384V7.46342C0.8125 7.23972 0.994297 7.05767 1.21789 7.05722C1.34657 7.05696 -0.808031 7.05717 24.7812 7.05717C25.0052 7.05717 25.1875 7.23942 25.1875 7.46342V18.8384Z" fill="white"/>
<path d="M23.9688 9.08887C23.5208 9.08887 23.1562 8.72436 23.1562 8.27637C23.1562 8.16862 23.1134 8.06529 23.0373 7.9891C22.9611 7.91292 22.8577 7.87012 22.75 7.87012H17.4688C17.361 7.87012 17.2577 7.91292 17.1815 7.9891C17.1053 8.06529 17.0625 8.16862 17.0625 8.27637C17.0625 8.38411 17.1053 8.48744 17.1815 8.56363C17.2577 8.63982 17.361 8.68262 17.4688 8.68262H22.3952C22.5425 9.25284 22.9923 9.70266 23.5625 9.84993V16.4528C22.9923 16.6 22.5425 17.0499 22.3952 17.6201H17.4688C17.361 17.6201 17.2577 17.6629 17.1815 17.7391C17.1053 17.8152 17.0625 17.9186 17.0625 18.0263C17.0625 18.1341 17.1053 18.2374 17.1815 18.3136C17.2577 18.3898 17.361 18.4326 17.4688 18.4326H22.75C22.8577 18.4326 22.9611 18.3898 23.0373 18.3136C23.1134 18.2374 23.1562 18.1341 23.1562 18.0263C23.1562 17.5783 23.5208 17.2138 23.9688 17.2138C24.0765 17.2138 24.1798 17.171 24.256 17.0948C24.3322 17.0186 24.375 16.9153 24.375 16.8076V9.49507C24.375 9.38733 24.3322 9.28401 24.256 9.20784C24.1798 9.13166 24.0765 9.08887 23.9688 9.08887ZM8.53125 17.6201H3.60481C3.45754 17.0499 3.00767 16.6001 2.4375 16.4528V9.84993C3.00772 9.70266 3.45754 9.25279 3.60481 8.68262H8.53125C8.63899 8.68262 8.74233 8.63982 8.81851 8.56363C8.8947 8.48744 8.9375 8.38411 8.9375 8.27637C8.9375 8.16862 8.8947 8.06529 8.81851 7.9891C8.74233 7.91292 8.63899 7.87012 8.53125 7.87012H3.25C3.14226 7.87012 3.03892 7.91292 2.96274 7.9891C2.88655 8.06529 2.84375 8.16862 2.84375 8.27637C2.84375 8.72436 2.47924 9.08887 2.03125 9.08887C1.92351 9.08887 1.82017 9.13167 1.74399 9.20785C1.6678 9.28404 1.625 9.38737 1.625 9.49512V16.8076C1.625 16.9154 1.6678 17.0187 1.74399 17.0949C1.82017 17.1711 1.92351 17.2139 2.03125 17.2139C2.47924 17.2139 2.84375 17.5784 2.84375 18.0264C2.84375 18.1341 2.88655 18.2374 2.96274 18.3136C3.03892 18.3898 3.14226 18.4326 3.25 18.4326H8.53125C8.63899 18.4326 8.74233 18.3898 8.81851 18.3136C8.8947 18.2374 8.9375 18.1341 8.9375 18.0264C8.9375 17.9186 8.8947 17.8153 8.81851 17.7391C8.74233 17.6629 8.63899 17.6201 8.53125 17.6201Z" fill="white"/>
<path d="M3.65625 13.1514C3.65625 13.8234 4.20301 14.3701 4.875 14.3701C5.54699 14.3701 6.09375 13.8234 6.09375 13.1514C6.09375 12.4794 5.54699 11.9326 4.875 11.9326C4.20301 11.9326 3.65625 12.4794 3.65625 13.1514ZM5.28125 13.1514C5.28125 13.3754 5.099 13.5576 4.875 13.5576C4.651 13.5576 4.46875 13.3754 4.46875 13.1514C4.46875 12.9274 4.651 12.7451 4.875 12.7451C5.099 12.7451 5.28125 12.9274 5.28125 13.1514ZM22.3438 13.1514C22.3438 12.4794 21.797 11.9326 21.125 11.9326C20.453 11.9326 19.9062 12.4794 19.9062 13.1514C19.9062 13.8234 20.453 14.3701 21.125 14.3701C21.797 14.3701 22.3438 13.8234 22.3438 13.1514ZM20.7188 13.1514C20.7188 12.9274 20.901 12.7451 21.125 12.7451C21.349 12.7451 21.5312 12.9274 21.5312 13.1514C21.5312 13.3754 21.349 13.5576 21.125 13.5576C20.901 13.5576 20.7188 13.3754 20.7188 13.1514Z" fill="white"/>
</svg>
