<svg width="26" height="25" viewBox="0 0 26 25" fill="none" xmlns="http://www.w3.org/2000/svg">
<path d="M15.7879 16.6011H6.2268C5.8759 16.6011 5.59 16.8865 5.59 17.2379V18.7481C5.59 19.099 5.87539 19.3849 6.2268 19.3849H15.7879C16.1388 19.3849 16.4247 19.0995 16.4247 18.7481V17.2379C16.4242 16.887 16.1388 16.6011 15.7879 16.6011ZM11.312 17.2105H13.259V18.7751H11.312V17.2105ZM10.7027 18.7756H8.7557V17.211H10.7027V18.7756ZM6.19938 18.7481V17.2379C6.19938 17.2237 6.21207 17.2105 6.2268 17.2105H8.14633V18.7751H6.2268C6.21258 18.7756 6.19938 18.7624 6.19938 18.7481ZM15.8148 18.7481C15.8148 18.7624 15.8021 18.7756 15.7874 18.7756H13.8679V17.211H15.7874C15.8016 17.211 15.8148 17.2237 15.8148 17.2384V18.7481ZM20.1972 14.1545C20.1972 13.9864 20.3338 13.8498 20.5019 13.8498H20.9645C21.1326 13.8498 21.2692 13.9864 21.2692 14.1545C21.2692 14.3226 21.1326 14.4592 20.9645 14.4592H20.5019C20.3333 14.4592 20.1972 14.3226 20.1972 14.1545ZM22.5134 14.1545C22.5134 13.9864 22.65 13.8498 22.818 13.8498H23.2807C23.4488 13.8498 23.5854 13.9864 23.5854 14.1545C23.5854 14.3226 23.4488 14.4592 23.2807 14.4592H22.818C22.65 14.4592 22.5134 14.3226 22.5134 14.1545ZM22.5134 15.7084C22.5134 15.5403 22.65 15.4037 22.818 15.4037H23.2807C23.4488 15.4037 23.5854 15.5403 23.5854 15.7084C23.5854 15.8765 23.4488 16.0131 23.2807 16.0131H22.818C22.65 16.0131 22.5134 15.877 22.5134 15.7084ZM22.5134 17.2628C22.5134 17.0947 22.65 16.9581 22.818 16.9581H23.2807C23.4488 16.9581 23.5854 17.0947 23.5854 17.2628C23.5854 17.4309 23.4488 17.5675 23.2807 17.5675H22.818C22.65 17.5675 22.5134 17.4314 22.5134 17.2628ZM22.5134 18.8172C22.5134 18.6491 22.65 18.5125 22.818 18.5125H23.2807C23.4488 18.5125 23.5854 18.6491 23.5854 18.8172C23.5854 18.9853 23.4488 19.1219 23.2807 19.1219H22.818C22.65 19.1219 22.5134 18.9853 22.5134 18.8172ZM22.5134 20.3716C22.5134 20.2035 22.65 20.0669 22.818 20.0669H23.2807C23.4488 20.0669 23.5854 20.2035 23.5854 20.3716C23.5854 20.5397 23.4488 20.6763 23.2807 20.6763H22.818C22.65 20.6763 22.5134 20.5397 22.5134 20.3716ZM3.20582 10.156V10.6876C3.20582 10.8557 3.06922 10.9923 2.90113 10.9923C2.73305 10.9923 2.59645 10.8557 2.59645 10.6876V10.156C2.59645 9.98787 2.73305 9.85127 2.90113 9.85127C3.06922 9.85127 3.20582 9.98736 3.20582 10.156ZM3.20582 12.5488V13.0804C3.20582 13.2485 3.06922 13.3851 2.90113 13.3851C2.73305 13.3851 2.59645 13.2485 2.59645 13.0804V12.5488C2.59645 12.3807 2.73305 12.2441 2.90113 12.2441C3.06922 12.2441 3.20582 12.3807 3.20582 12.5488ZM3.20582 14.9416V15.4733C3.20582 15.6413 3.06922 15.7779 2.90113 15.7779C2.73305 15.7779 2.59645 15.6413 2.59645 15.4733V14.9416C2.59645 14.7735 2.73305 14.6369 2.90113 14.6369C3.06922 14.6369 3.20582 14.7735 3.20582 14.9416ZM3.20582 17.3349V17.8666C3.20582 18.0347 3.06922 18.1713 2.90113 18.1713C2.73305 18.1713 2.59645 18.0347 2.59645 17.8666V17.3349C2.59645 17.1668 2.73305 17.0302 2.90113 17.0302C3.06922 17.0302 3.20582 17.1668 3.20582 17.3349ZM3.20582 19.7277V20.2594C3.20582 20.4275 3.06922 20.5641 2.90113 20.5641C2.73305 20.5641 2.59645 20.4275 2.59645 20.2594V19.7277C2.59645 19.5596 2.73305 19.423 2.90113 19.423C3.06922 19.423 3.20582 19.5596 3.20582 19.7277ZM4.98367 10.6876V10.156C4.98367 9.98787 5.12027 9.85127 5.28836 9.85127C5.45645 9.85127 5.59305 9.98787 5.59305 10.156V10.6876C5.59305 10.8557 5.45645 10.9923 5.28836 10.9923C5.12027 10.9923 4.98367 10.8557 4.98367 10.6876ZM4.98367 13.0804V12.5488C4.98367 12.3807 5.12027 12.2441 5.28836 12.2441C5.45645 12.2441 5.59305 12.3807 5.59305 12.5488V13.0804C5.59305 13.2485 5.45645 13.3851 5.28836 13.3851C5.12027 13.3851 4.98367 13.249 4.98367 13.0804ZM5.26348 4.75892C5.26348 4.59084 5.40008 4.45424 5.56816 4.45424H7.52832C7.69641 4.45424 7.83301 4.59084 7.83301 4.75892C7.83301 4.92701 7.69641 5.06361 7.52832 5.06361H5.56816C5.40008 5.06361 5.26348 4.92701 5.26348 4.75892ZM11.1566 7.27107H5.56816C5.40008 7.27107 5.26348 7.13447 5.26348 6.96639C5.26348 6.7983 5.40008 6.6617 5.56816 6.6617H11.1566C11.3247 6.6617 11.4613 6.7983 11.4613 6.96639C11.4613 7.13447 11.3247 7.27107 11.1566 7.27107ZM11.4613 9.17435C11.4613 9.34244 11.3247 9.47904 11.1566 9.47904H8.52059C8.3525 9.47904 8.2159 9.34244 8.2159 9.17435C8.2159 9.00627 8.3525 8.86967 8.52059 8.86967H11.1566C11.3247 8.86967 11.4613 9.00627 11.4613 9.17435ZM11.4613 11.3818C11.4613 11.5499 11.3247 11.6865 11.1566 11.6865H8.52059C8.3525 11.6865 8.2159 11.5499 8.2159 11.3818C8.2159 11.2137 8.3525 11.0771 8.52059 11.0771H11.1566C11.3247 11.0771 11.4613 11.2137 11.4613 11.3818ZM11.4613 13.5898C11.4613 13.7579 11.3247 13.8945 11.1566 13.8945H8.52059C8.3525 13.8945 8.2159 13.7579 8.2159 13.5898C8.2159 13.4217 8.3525 13.2851 8.52059 13.2851H11.1566C11.3247 13.2851 11.4613 13.4217 11.4613 13.5898ZM24.9336 7.15529H22.3788C22.2107 7.15529 22.0741 7.29189 22.0741 7.45998V12.4558H18.849C18.6809 12.4558 18.5443 12.5924 18.5443 12.7605V15.2122H12.8588V4.21353C12.8588 4.09318 12.7882 3.98451 12.6786 3.93525L11.7625 3.52595V1.07119C11.7625 0.903104 11.6259 0.766502 11.4578 0.766502H9.75609C9.58801 0.766502 9.45141 0.903104 9.45141 1.07119V2.49306L4.29508 0.188611C4.24871 0.167909 4.1979 0.159109 4.14726 0.163011C4.09663 0.166913 4.04777 0.183392 4.00512 0.210955C3.91828 0.267322 3.86598 0.363299 3.86598 0.466385V8.29685H1.06641C0.89832 8.29685 0.761719 8.43346 0.761719 8.60154V21.8133C0.761719 21.9814 0.89832 22.118 1.06641 22.118H3.80301C3.82789 22.8457 4.42762 23.4302 5.1609 23.4302H5.95766C6.09883 24.1188 6.70973 24.6388 7.43996 24.6388C8.1702 24.6388 8.78109 24.1193 8.92227 23.4302H17.0767C17.2179 24.1188 17.8288 24.6388 18.559 24.6388C19.2893 24.6388 19.9002 24.1193 20.0413 23.4302H21.3733C21.6343 23.4302 21.8669 23.3169 22.0279 23.1118C22.2082 22.8817 22.2005 22.6222 22.1955 22.4674C22.1914 22.3348 22.1853 22.2023 22.1782 22.0703H24.9336C25.1017 22.0703 25.2383 21.9337 25.2383 21.7656V7.45998C25.2383 7.29139 25.1017 7.15529 24.9336 7.15529ZM22.6835 7.76467H24.6289V12.4558H22.6835V7.76467ZM10.0603 1.37588H11.1526V3.25377L10.0603 2.76525V1.37588ZM4.47535 0.936619L12.2495 4.41107V15.2122H7.42777V8.60205C7.42777 8.43396 7.29117 8.29736 7.12309 8.29736H4.47535V0.936619ZM3.80199 16.5717V21.5091H1.37109V8.90674H6.8184V15.2122H5.59305V14.9416C5.59305 14.7735 5.45645 14.6369 5.28836 14.6369C5.12027 14.6369 4.98367 14.7735 4.98367 14.9416V15.2239C4.31793 15.3118 3.80199 15.8826 3.80199 16.5717ZM7.44047 24.0294C6.94231 24.0294 6.53656 23.6242 6.53656 23.1255C6.53656 22.6273 6.9418 22.2216 7.44047 22.2216C7.93914 22.2216 8.34438 22.6268 8.34438 23.1255C8.34438 23.6242 7.93863 24.0294 7.44047 24.0294ZM18.5595 24.0294C18.0614 24.0294 17.6556 23.6242 17.6556 23.1255C17.6556 22.6273 18.0609 22.2216 18.5595 22.2216C19.0582 22.2216 19.4634 22.6268 19.4634 23.1255C19.4634 23.6242 19.0577 24.0294 18.5595 24.0294ZM21.549 22.7355C21.5033 22.7939 21.4475 22.8208 21.3738 22.8208H20.0418C19.9007 22.1322 19.2898 21.6122 18.5595 21.6122C17.8293 21.6122 17.2184 22.1317 17.0772 22.8208H8.92277C8.7816 22.1322 8.1707 21.6122 7.44047 21.6122C6.71023 21.6122 6.09934 22.1317 5.95816 22.8208H5.16141C4.74805 22.8208 4.41137 22.4846 4.41137 22.0708V16.5712C4.41137 16.1578 4.74754 15.8211 5.16141 15.8211H19.3507C19.4406 15.8211 19.6803 15.8211 19.9347 16.1679H17.9039C17.6505 16.1679 17.4347 16.2761 17.3129 16.4655C17.1813 16.6686 17.1747 16.9373 17.2941 17.2029L18.5346 19.9547C18.7327 20.3945 19.24 20.7388 19.6894 20.7388H21.4322C21.5165 21.3126 21.5693 21.8951 21.5871 22.4856C21.5917 22.6339 21.583 22.6923 21.549 22.7355ZM20.2582 16.7778C20.7509 17.8473 21.1111 18.973 21.3307 20.1299H19.6894C19.4761 20.1299 19.1902 19.9273 19.0902 19.7049L17.8496 16.953C17.8075 16.8591 17.8176 16.8078 17.8247 16.7971C17.8288 16.791 17.8532 16.7783 17.9039 16.7783H20.2582V16.7778ZM24.6289 21.4609H22.1325C22.0025 20.0756 21.6907 18.7349 21.2017 17.4537C21.2452 17.3998 21.2689 17.3326 21.2687 17.2633C21.2687 17.1089 21.1539 16.9815 21.0046 16.9617C20.895 16.7022 20.7782 16.4447 20.6537 16.1903C20.6243 16.1302 20.5926 16.0713 20.5588 16.0136H20.964C21.1321 16.0136 21.2687 15.877 21.2687 15.7089C21.2687 15.5408 21.1321 15.4042 20.964 15.4042H20.5014C20.3795 15.4042 20.2744 15.4763 20.2257 15.5799C19.9225 15.2884 19.6016 15.2128 19.3502 15.2128H19.1537V13.0657H24.6289V21.4609ZM17.4718 4.66142C17.4718 3.97486 16.9132 3.41627 16.2266 3.41627C15.5401 3.41627 14.9815 3.97486 14.9815 4.66142C14.9815 5.34799 15.5401 5.90658 16.2266 5.90658C16.9132 5.90658 17.4718 5.34799 17.4718 4.66142ZM15.5909 4.66142C15.5909 4.31103 15.8763 4.02564 16.2266 4.02564C16.577 4.02564 16.8624 4.31103 16.8624 4.66142C16.8624 5.01181 16.577 5.2972 16.2266 5.2972C15.8763 5.2972 15.5909 5.01232 15.5909 4.66142ZM15.9682 9.02506C15.9955 9.06904 16.0335 9.10533 16.0787 9.1305C16.124 9.15567 16.1749 9.16888 16.2266 9.16888C16.2784 9.16888 16.3293 9.15567 16.3745 9.1305C16.4198 9.10533 16.4578 9.06904 16.4851 9.02506C16.6039 8.83412 16.7705 8.59189 16.9635 8.31107C17.713 7.2208 18.7393 5.72732 18.7393 4.71779C18.7393 3.3015 17.612 2.14877 16.2261 2.14877C14.8403 2.14877 13.713 3.30099 13.713 4.71779C13.713 5.72732 14.7393 7.22029 15.4888 8.31107C15.6828 8.59138 15.8493 8.83412 15.9682 9.02506ZM16.2266 2.75814C17.2763 2.75814 18.1304 3.63717 18.1304 4.71779C18.1304 5.53791 17.1265 6.99889 16.4618 7.96576C16.378 8.08764 16.2993 8.20189 16.2266 8.30904C16.154 8.20189 16.0753 8.08713 15.9915 7.96576C15.3273 6.99889 14.3229 5.53791 14.3229 4.71779C14.3234 3.63717 15.177 2.75814 16.2266 2.75814ZM16.5313 10.648C16.5313 10.8161 16.3947 10.9527 16.2266 10.9527C16.0586 10.9527 15.922 10.8161 15.922 10.648V10.2626C15.922 10.0945 16.0586 9.95791 16.2266 9.95791C16.3947 9.95791 16.5313 10.0945 16.5313 10.2626V10.648ZM16.5313 12.3832C16.5313 12.5513 16.3947 12.6879 16.2266 12.6879C16.0586 12.6879 15.922 12.5513 15.922 12.3832V11.9978C15.922 11.8297 16.0586 11.6931 16.2266 11.6931C16.3947 11.6931 16.5313 11.8297 16.5313 11.9978V12.3832ZM16.5313 13.7325V14.1179C16.5313 14.286 16.3947 14.4226 16.2266 14.4226C16.0586 14.4226 15.922 14.286 15.922 14.1179V13.7325C15.922 13.5644 16.0586 13.4278 16.2266 13.4278C16.3947 13.4278 16.5313 13.5644 16.5313 13.7325Z" fill="#FA6741"/>
</svg>
