<svg width="24" height="21" viewBox="0 0 24 21" fill="none" xmlns="http://www.w3.org/2000/svg">
<path d="M21.209 6.87956H15.2507V3.35872C15.2498 2.64069 14.9642 1.95232 14.4564 1.44459C13.9487 0.936868 13.2603 0.651251 12.5423 0.650391H2.79232C2.07429 0.651251 1.38591 0.936868 0.878187 1.44459C0.370462 1.95232 0.0848445 2.64069 0.0839844 3.35872V9.85872C0.0848445 10.5768 0.370462 11.2651 0.878187 11.7729C1.38591 12.2806 2.07429 12.5662 2.79232 12.5671V13.6991C2.79191 13.9128 2.8551 14.1218 2.97384 14.2995C3.09258 14.4772 3.26151 14.6155 3.45911 14.6969C3.65758 14.7795 3.87616 14.8013 4.08702 14.7593C4.29788 14.7174 4.49148 14.6136 4.64319 14.4613C4.66297 14.4423 4.68109 14.4216 4.69736 14.3995L6.04503 12.5671H8.75065V16.0879C8.75151 16.8059 9.03713 17.4943 9.54485 18.002C10.0526 18.5097 10.741 18.7954 11.459 18.7962H17.4639L19.3597 20.6921C19.5112 20.8435 19.7043 20.9467 19.9144 20.9884C20.1245 21.0302 20.3423 21.0088 20.5402 20.9268C20.7381 20.8448 20.9073 20.706 21.0263 20.5279C21.1454 20.3498 21.2089 20.1404 21.209 19.9261V18.7962C21.927 18.7954 22.6154 18.5097 23.1231 18.002C23.6308 17.4943 23.9165 16.8059 23.9173 16.0879V9.58789C23.9165 8.86986 23.6308 8.18148 23.1231 7.67376C22.6154 7.16603 21.927 6.88042 21.209 6.87956ZM5.77148 11.4837C5.68707 11.4842 5.60393 11.5043 5.52869 11.5426C5.45346 11.5809 5.38821 11.6362 5.33815 11.7042L3.87565 13.6867V12.0254C3.87565 11.8817 3.81858 11.744 3.717 11.6424C3.61542 11.5408 3.47764 11.4837 3.33398 11.4837H2.79232C2.36134 11.4837 1.94802 11.3125 1.64327 11.0078C1.33852 10.703 1.16732 10.2897 1.16732 9.85872V3.35872C1.16732 2.92775 1.33852 2.51442 1.64327 2.20968C1.94802 1.90493 2.36134 1.73372 2.79232 1.73372H12.5423C12.9733 1.73372 13.3866 1.90493 13.6914 2.20968C13.9961 2.51442 14.1673 2.92775 14.1673 3.35872V6.87956H11.459C10.8827 6.88126 10.3223 7.06833 9.86053 7.4131L8.16023 3.6756C8.11715 3.58103 8.04777 3.50085 7.96037 3.44463C7.87297 3.38841 7.77124 3.35851 7.66732 3.35851C7.5634 3.35851 7.46167 3.38841 7.37427 3.44463C7.28687 3.50085 7.21749 3.58103 7.1744 3.6756L4.46607 9.63393C4.43671 9.6988 4.42042 9.76882 4.41814 9.83998C4.41587 9.91114 4.42764 9.98206 4.4528 10.0487C4.47795 10.1153 4.51599 10.1763 4.56474 10.2282C4.61349 10.2801 4.67199 10.3218 4.7369 10.3511C4.80651 10.3834 4.88227 10.4002 4.95898 10.4004C5.06294 10.4004 5.1647 10.3704 5.2521 10.3141C5.3395 10.2579 5.40886 10.1776 5.4519 10.083L6.29257 8.23372H9.04315L9.08161 8.31768C8.86752 8.70703 8.75378 9.14357 8.75065 9.58789V11.4837H5.77148ZM8.55078 7.15039H6.78494L7.66732 5.20906L8.55078 7.15039ZM22.834 16.0879C22.834 16.5189 22.6628 16.9322 22.358 17.2369C22.0533 17.5417 21.64 17.7129 21.209 17.7129H20.6673C20.5237 17.7129 20.3859 17.77 20.2843 17.8715C20.1827 17.9731 20.1257 18.1109 20.1257 18.2546V19.9261L18.0711 17.8716C17.9696 17.77 17.8318 17.7129 17.6882 17.7129H11.459C11.028 17.7129 10.6147 17.5417 10.3099 17.2369C10.0052 16.9322 9.83398 16.5189 9.83398 16.0879V9.58789C9.83398 9.15691 10.0052 8.74359 10.3099 8.43884C10.6147 8.1341 11.028 7.96289 11.459 7.96289H21.209C21.64 7.96289 22.0533 8.1341 22.358 8.43884C22.6628 8.74359 22.834 9.15691 22.834 9.58789V16.0879Z" fill="#FA6741"/>
<path d="M19.0423 10.9424H16.8757V9.85905C16.8757 9.71539 16.8186 9.57762 16.717 9.47603C16.6154 9.37445 16.4776 9.31738 16.334 9.31738C16.1903 9.31738 16.0526 9.37445 15.951 9.47603C15.8494 9.57762 15.7923 9.71539 15.7923 9.85905V10.9424H13.6257C13.482 10.9424 13.3442 10.9995 13.2426 11.101C13.1411 11.2026 13.084 11.3404 13.084 11.484C13.084 11.6277 13.1411 11.7655 13.2426 11.8671C13.3442 11.9686 13.482 12.0257 13.6257 12.0257H17.6448C17.5122 12.946 17.0442 13.7847 16.3307 14.3809C15.914 14.0328 15.5772 13.599 15.3433 13.109C15.3138 13.0431 15.2715 12.9838 15.2188 12.9344C15.1661 12.8851 15.104 12.8468 15.0363 12.8218C14.9685 12.7968 14.8965 12.7856 14.8244 12.7888C14.7522 12.7921 14.6815 12.8097 14.6163 12.8407C14.551 12.8717 14.4927 12.9154 14.4446 12.9692C14.3965 13.0231 14.3597 13.086 14.3363 13.1543C14.3129 13.2227 14.3034 13.2949 14.3083 13.367C14.3132 13.439 14.3325 13.5093 14.365 13.5738C14.6167 14.0957 14.9608 14.5677 15.3807 14.967C14.8993 15.172 14.3812 15.277 13.858 15.2757C13.7879 15.276 13.7185 15.2904 13.654 15.318C13.5895 15.3456 13.5311 15.3858 13.4824 15.4363C13.4337 15.4868 13.3956 15.5465 13.3703 15.6119C13.345 15.6774 13.3331 15.7473 13.3353 15.8174C13.3397 15.963 13.4008 16.1012 13.5057 16.2024C13.6105 16.3036 13.7508 16.3598 13.8965 16.359C14.7573 16.3587 15.6025 16.1287 16.3448 15.6928C17.094 16.1269 17.9441 16.3567 18.8099 16.359C18.8801 16.3587 18.9495 16.3443 19.014 16.3168C19.0785 16.2892 19.1369 16.249 19.1856 16.1985C19.2343 16.148 19.2724 16.0883 19.2977 16.0228C19.3229 15.9574 19.3348 15.8875 19.3327 15.8174C19.3283 15.6717 19.2671 15.5336 19.1623 15.4324C19.0574 15.3312 18.9172 15.2749 18.7715 15.2757C18.2647 15.2737 17.7636 15.1695 17.2982 14.9691C18.105 14.1845 18.6145 13.1442 18.7395 12.0257H19.0423C19.186 12.0257 19.3238 11.9686 19.4253 11.8671C19.5269 11.7655 19.584 11.6277 19.584 11.484C19.584 11.3404 19.5269 11.2026 19.4253 11.101C19.3238 10.9995 19.186 10.9424 19.0423 10.9424Z" fill="#FA6741"/>
</svg>
