<svg width="26" height="27" viewBox="0 0 26 27" fill="none" xmlns="http://www.w3.org/2000/svg">
<path d="M6.5 7.30664H4.875C4.76726 7.30664 4.66392 7.34944 4.58774 7.42563C4.51155 7.50181 4.46875 7.60515 4.46875 7.71289V10.1504C4.46875 10.2581 4.51155 10.3615 4.58774 10.4377C4.66392 10.5138 4.76726 10.5566 4.875 10.5566H6.5C6.60774 10.5566 6.71108 10.5138 6.78726 10.4377C6.86345 10.3615 6.90625 10.2581 6.90625 10.1504V7.71289C6.90625 7.60515 6.86345 7.50181 6.78726 7.42563C6.71108 7.34944 6.60774 7.30664 6.5 7.30664ZM6.09375 9.74414H5.28125V8.11914H6.09375V9.74414ZM6.5 11.7754H4.875C4.76726 11.7754 4.66392 11.8182 4.58774 11.8944C4.51155 11.9706 4.46875 12.0739 4.46875 12.1816V14.6191C4.46875 14.7269 4.51155 14.8302 4.58774 14.9064C4.66392 14.9826 4.76726 15.0254 4.875 15.0254H6.5C6.60774 15.0254 6.71108 14.9826 6.78726 14.9064C6.86345 14.8302 6.90625 14.7269 6.90625 14.6191V12.1816C6.90625 12.0739 6.86345 11.9706 6.78726 11.8944C6.71108 11.8182 6.60774 11.7754 6.5 11.7754ZM6.09375 14.2129H5.28125V12.5879H6.09375V14.2129ZM6.5 16.2441H4.875C4.76726 16.2441 4.66392 16.2869 4.58774 16.3631C4.51155 16.4393 4.46875 16.5426 4.46875 16.6504V19.0879C4.46875 19.1956 4.51155 19.299 4.58774 19.3752C4.66392 19.4513 4.76726 19.4941 4.875 19.4941H6.5C6.60774 19.4941 6.71108 19.4513 6.78726 19.3752C6.86345 19.299 6.90625 19.1956 6.90625 19.0879V16.6504C6.90625 16.5426 6.86345 16.4393 6.78726 16.3631C6.71108 16.2869 6.60774 16.2441 6.5 16.2441ZM6.09375 18.6816H5.28125V17.0566H6.09375V18.6816ZM6.5 20.7129H4.875C4.76726 20.7129 4.66392 20.7557 4.58774 20.8319C4.51155 20.9081 4.46875 21.0114 4.46875 21.1191V23.5566C4.46875 23.6644 4.51155 23.7677 4.58774 23.8439C4.66392 23.9201 4.76726 23.9629 4.875 23.9629H6.5C6.60774 23.9629 6.71108 23.9201 6.78726 23.8439C6.86345 23.7677 6.90625 23.6644 6.90625 23.5566V21.1191C6.90625 21.0114 6.86345 20.9081 6.78726 20.8319C6.71108 20.7557 6.60774 20.7129 6.5 20.7129ZM6.09375 23.1504H5.28125V21.5254H6.09375V23.1504Z" fill="#FA6741"/>
<path d="M25.5938 25.5879H23.9688V22.088C23.9688 21.7257 24.141 21.4015 24.4412 21.198C24.586 21.0982 24.7534 21.0361 24.9283 21.0173C25.1031 20.9985 25.2799 21.0236 25.4426 21.0903C25.5427 21.1303 25.6545 21.129 25.7536 21.0865C25.8526 21.0441 25.9307 20.9641 25.9708 20.864C26.0108 20.764 26.0094 20.6521 25.967 20.5531C25.9246 20.454 25.8445 20.3759 25.7445 20.3359C25.4841 20.2321 25.2038 20.1877 24.9241 20.206C24.6444 20.2243 24.3723 20.3047 24.1276 20.4415L24.1341 20.3968C24.1788 20.084 24.3482 19.8139 24.611 19.6371C24.8739 19.4604 25.1879 19.4056 25.495 19.482C25.5469 19.4953 25.601 19.4983 25.654 19.4908C25.7071 19.4832 25.7581 19.4652 25.8042 19.4378C25.8502 19.4104 25.8904 19.3742 25.9224 19.3312C25.9544 19.2882 25.9776 19.2393 25.9906 19.1873C26.0037 19.1353 26.0063 19.0813 25.9983 19.0283C25.9904 18.9753 25.972 18.9244 25.9443 18.8785C25.9166 18.8326 25.88 18.7927 25.8368 18.761C25.7936 18.7293 25.7445 18.7065 25.6925 18.6938C25.4321 18.6288 25.1609 18.6192 24.8965 18.6655C24.6322 18.7118 24.3804 18.8131 24.1577 18.9628C23.9106 19.1318 23.7067 19.3565 23.5625 19.6189C23.4183 19.3565 23.2144 19.1318 22.9673 18.9628C22.7445 18.8132 22.4928 18.7119 22.2284 18.6656C21.9641 18.6193 21.6929 18.6289 21.4325 18.6938C21.3287 18.7206 21.2397 18.7874 21.1849 18.8796C21.1301 18.9718 21.1139 19.0819 21.14 19.1859C21.1661 19.2899 21.2322 19.3794 21.324 19.4349C21.4158 19.4904 21.5258 19.5073 21.63 19.482C21.7799 19.4438 21.9362 19.4379 22.0886 19.4646C22.241 19.4914 22.386 19.5502 22.514 19.6371C22.6428 19.7228 22.752 19.8348 22.8342 19.9659C22.9164 20.0969 22.9698 20.244 22.9909 20.3972L22.9974 20.4411C22.7527 20.3045 22.4806 20.2241 22.2009 20.2058C21.9212 20.1875 21.6409 20.2318 21.3805 20.3355C21.2804 20.3755 21.2003 20.4537 21.1579 20.5527C21.1154 20.6518 21.114 20.7637 21.154 20.8638C21.1941 20.9639 21.2722 21.044 21.3713 21.0865C21.4704 21.129 21.5823 21.1303 21.6824 21.0903C21.8451 21.0237 22.0219 20.9987 22.1967 21.0175C22.3715 21.0363 22.5389 21.0983 22.6838 21.198C22.8302 21.2955 22.95 21.4279 23.0325 21.5833C23.115 21.7387 23.1575 21.9121 23.1562 22.088V25.5879H20.3125V8.93164C20.3125 8.8239 20.2697 8.72056 20.1935 8.64438C20.1173 8.56819 20.014 8.52539 19.9062 8.52539H16.6562V5.68164C16.6562 5.5739 16.6134 5.47057 16.5373 5.39438C16.4611 5.31819 16.3577 5.27539 16.25 5.27539H15.4375V3.24414C15.4375 3.1364 15.3947 3.03307 15.3185 2.95688C15.2423 2.88069 15.139 2.83789 15.0312 2.83789H6.90625V1.61914C6.90625 1.5114 6.86345 1.40807 6.78726 1.33188C6.71108 1.25569 6.60774 1.21289 6.5 1.21289C6.39226 1.21289 6.28892 1.25569 6.21274 1.33188C6.13655 1.40807 6.09375 1.5114 6.09375 1.61914V2.83789H5.28125V0.806641C5.28125 0.698896 5.23845 0.595565 5.16226 0.519378C5.08608 0.443192 4.98274 0.400391 4.875 0.400391C4.76726 0.400391 4.66392 0.443192 4.58774 0.519378C4.51155 0.595565 4.46875 0.698896 4.46875 0.806641V2.83789H3.65625C3.54851 2.83789 3.44517 2.88069 3.36899 2.95688C3.2928 3.03307 3.25 3.1364 3.25 3.24414V5.27539H2.4375C2.32976 5.27539 2.22642 5.31819 2.15024 5.39438C2.07405 5.47057 2.03125 5.5739 2.03125 5.68164V25.5879H0.40625C0.298506 25.5879 0.195175 25.6307 0.118988 25.7069C0.0428012 25.7831 0 25.8864 0 25.9941C0 26.1019 0.0428012 26.2052 0.118988 26.2814C0.195175 26.3576 0.298506 26.4004 0.40625 26.4004H25.5938C25.7015 26.4004 25.8048 26.3576 25.881 26.2814C25.9572 26.2052 26 26.1019 26 25.9941C26 25.8864 25.9572 25.7831 25.881 25.7069C25.8048 25.6307 25.7015 25.5879 25.5938 25.5879ZM4.0625 3.65039H14.625V5.27539H4.0625V3.65039ZM2.84375 6.08789H15.8438V8.52539H8.53125C8.42351 8.52539 8.32017 8.56819 8.24399 8.64438C8.1678 8.72056 8.125 8.8239 8.125 8.93164V25.5879H2.84375V6.08789ZM11.815 22.3379C12.0092 21.1866 13.0134 20.3066 14.2188 20.3066C15.4241 20.3066 16.4283 21.1866 16.6225 22.3379H11.815ZM12.5938 23.1504H13.8125V25.5879H12.5938V23.1504ZM14.625 25.5879V23.1504H15.8438V25.5879H14.625ZM16.6562 25.5879V23.1504H17.0625C17.1702 23.1504 17.2736 23.1076 17.3498 23.0314C17.4259 22.9552 17.4688 22.8519 17.4688 22.7441C17.4688 20.9522 16.0107 19.4941 14.2188 19.4941C12.4268 19.4941 10.9688 20.9522 10.9688 22.7441C10.9688 22.8519 11.0116 22.9552 11.0877 23.0314C11.1639 23.1076 11.2673 23.1504 11.375 23.1504H11.7812V25.5879H8.9375V9.33789H19.5V25.5879H16.6562Z" fill="#FA6741"/>
<path d="M11.7812 10.9629H10.1562C10.0485 10.9629 9.94517 11.0057 9.86899 11.0819C9.7928 11.1581 9.75 11.2614 9.75 11.3691V13.8066C9.75 13.9144 9.7928 14.0177 9.86899 14.0939C9.94517 14.1701 10.0485 14.2129 10.1562 14.2129H11.7812C11.889 14.2129 11.9923 14.1701 12.0685 14.0939C12.1447 14.0177 12.1875 13.9144 12.1875 13.8066V11.3691C12.1875 11.2614 12.1447 11.1581 12.0685 11.0819C11.9923 11.0057 11.889 10.9629 11.7812 10.9629ZM11.375 13.4004H10.5625V11.7754H11.375V13.4004ZM15.0312 10.9629H13.4062C13.2985 10.9629 13.1952 11.0057 13.119 11.0819C13.0428 11.1581 13 11.2614 13 11.3691V13.8066C13 13.9144 13.0428 14.0177 13.119 14.0939C13.1952 14.1701 13.2985 14.2129 13.4062 14.2129H15.0312C15.139 14.2129 15.2423 14.1701 15.3185 14.0939C15.3947 14.0177 15.4375 13.9144 15.4375 13.8066V11.3691C15.4375 11.2614 15.3947 11.1581 15.3185 11.0819C15.2423 11.0057 15.139 10.9629 15.0312 10.9629ZM14.625 13.4004H13.8125V11.7754H14.625V13.4004ZM18.2812 10.9629H16.6562C16.5485 10.9629 16.4452 11.0057 16.369 11.0819C16.2928 11.1581 16.25 11.2614 16.25 11.3691V13.8066C16.25 13.9144 16.2928 14.0177 16.369 14.0939C16.4452 14.1701 16.5485 14.2129 16.6562 14.2129H18.2812C18.389 14.2129 18.4923 14.1701 18.5685 14.0939C18.6447 14.0177 18.6875 13.9144 18.6875 13.8066V11.3691C18.6875 11.2614 18.6447 11.1581 18.5685 11.0819C18.4923 11.0057 18.389 10.9629 18.2812 10.9629ZM17.875 13.4004H17.0625V11.7754H17.875V13.4004ZM11.7812 15.0254H10.1562C10.0485 15.0254 9.94517 15.0682 9.86899 15.1444C9.7928 15.2206 9.75 15.3239 9.75 15.4316V17.8691C9.75 17.9769 9.7928 18.0802 9.86899 18.1564C9.94517 18.2326 10.0485 18.2754 10.1562 18.2754H11.7812C11.889 18.2754 11.9923 18.2326 12.0685 18.1564C12.1447 18.0802 12.1875 17.9769 12.1875 17.8691V15.4316C12.1875 15.3239 12.1447 15.2206 12.0685 15.1444C11.9923 15.0682 11.889 15.0254 11.7812 15.0254ZM11.375 17.4629H10.5625V15.8379H11.375V17.4629ZM15.0312 15.0254H13.4062C13.2985 15.0254 13.1952 15.0682 13.119 15.1444C13.0428 15.2206 13 15.3239 13 15.4316V17.8691C13 17.9769 13.0428 18.0802 13.119 18.1564C13.1952 18.2326 13.2985 18.2754 13.4062 18.2754H15.0312C15.139 18.2754 15.2423 18.2326 15.3185 18.1564C15.3947 18.0802 15.4375 17.9769 15.4375 17.8691V15.4316C15.4375 15.3239 15.3947 15.2206 15.3185 15.1444C15.2423 15.0682 15.139 15.0254 15.0312 15.0254ZM14.625 17.4629H13.8125V15.8379H14.625V17.4629ZM18.2812 15.0254H16.6562C16.5485 15.0254 16.4452 15.0682 16.369 15.1444C16.2928 15.2206 16.25 15.3239 16.25 15.4316V17.8691C16.25 17.9769 16.2928 18.0802 16.369 18.1564C16.4452 18.2326 16.5485 18.2754 16.6562 18.2754H18.2812C18.389 18.2754 18.4923 18.2326 18.5685 18.1564C18.6447 18.0802 18.6875 17.9769 18.6875 17.8691V15.4316C18.6875 15.3239 18.6447 15.2206 18.5685 15.1444C18.4923 15.0682 18.389 15.0254 18.2812 15.0254ZM17.875 17.4629H17.0625V15.8379H17.875V17.4629Z" fill="#FA6741"/>
</svg>
