<svg width="26" height="25" viewBox="0 0 26 25" fill="none" xmlns="http://www.w3.org/2000/svg">
<path fill-rule="evenodd" clip-rule="evenodd" d="M17.8253 21.6276C17.8253 21.6829 17.8151 21.7377 17.7953 21.7888C17.7756 21.8399 17.7465 21.8864 17.71 21.9255C17.6734 21.9646 17.6299 21.9956 17.5821 22.0168C17.5343 22.0379 17.4831 22.0488 17.4313 22.0488H8.28374C8.232 22.0488 8.18076 22.0379 8.13296 22.0168C8.08515 21.9956 8.04171 21.9646 8.00513 21.9255C7.96854 21.8864 7.93953 21.8399 7.91974 21.7888C7.89995 21.7377 7.88979 21.6829 7.88982 21.6276C7.88981 21.5723 7.89999 21.5175 7.91979 21.4664C7.93958 21.4153 7.9686 21.3689 8.00518 21.3297C8.04176 21.2906 8.08519 21.2596 8.13298 21.2384C8.18078 21.2173 8.23201 21.2064 8.28374 21.2064H17.4314C17.4831 21.2064 17.5344 21.2173 17.5821 21.2385C17.6299 21.2596 17.6734 21.2906 17.7099 21.3298C17.7465 21.3689 17.7755 21.4153 17.7953 21.4664C17.8151 21.5175 17.8253 21.5723 17.8253 21.6276ZM15.5384 23.9789C15.5384 24.0906 15.4969 24.1978 15.423 24.2769C15.3492 24.3559 15.2489 24.4003 15.1444 24.4004H10.5706C10.4675 24.3981 10.3694 24.3527 10.2972 24.2739C10.2251 24.1951 10.1847 24.0893 10.1847 23.979C10.1847 23.8688 10.2251 23.7629 10.2972 23.6842C10.3694 23.6054 10.4675 23.56 10.5706 23.5577H15.1444C15.2489 23.5578 15.349 23.6022 15.4229 23.6811C15.4968 23.7601 15.5383 23.8672 15.5384 23.9789ZM20.9895 15.9784C21.3272 15.3506 22.2136 15.4711 22.3902 16.1755C22.5662 16.878 21.8581 17.4589 21.2693 17.0957C20.9037 16.8702 20.7782 16.369 20.9895 15.9784ZM20.3072 15.5572C19.706 16.6705 20.4713 18.048 21.6493 18.048C22.6668 18.048 23.4173 17.0181 23.1514 15.9577C22.7934 14.5306 20.9956 14.2811 20.3072 15.5572ZM22.2963 19.2805L24.3174 15.5377L21.0068 13.4941L18.9857 17.2369L22.2963 19.2805ZM18.3606 19.1589C18.3526 19.1536 18.3443 19.1486 18.3363 19.1436L18.8769 18.1423L21.617 19.8344L20.8245 21.3025C20.1079 20.4658 19.2781 19.7412 18.3606 19.1589ZM10.9379 17.7328C11.222 16.7087 11.4862 15.8318 12.5102 15.5465C12.7449 15.4813 12.9912 15.4816 13.2258 15.5472C14.297 15.8446 14.677 16.9445 14.8866 17.7542C13.5814 17.489 12.246 17.4805 10.9379 17.7328ZM4.11544 22.3188L2.12098 18.6253C2.05549 18.5037 2.09557 18.345 2.20911 18.2742L5.7672 16.078C5.87999 16.0083 6.03038 16.0513 6.09558 16.1716L7.60568 18.9679L7.57472 19.0234C7.50083 19.0677 7.42742 19.1129 7.35451 19.159C6.08363 19.9653 4.98045 21.0453 4.11544 22.3188ZM1.90106 14.8206L2.98299 16.8243L4.20594 16.0688L3.12367 14.0657L2.04175 13.5713L1.90106 14.8206ZM10.4029 15.0052C10.016 16.0706 9.51998 17.1502 8.85728 18.3685C9.2488 18.2021 9.64904 18.0602 10.056 17.9434C10.4227 16.6715 10.6907 15.183 12.3119 14.7316C12.6767 14.6302 13.0597 14.6302 13.4245 14.7316C15.1322 15.2067 15.5304 17.0644 15.7553 17.9715C16.1506 18.0889 16.5394 18.2304 16.9197 18.3952C15.9247 16.3843 15.4406 15.6206 14.7942 13.3276H10.9416C10.7824 13.894 10.6027 14.4536 10.4029 15.0052ZM11.4433 11.2335C11.606 10.4192 11.7351 9.60074 11.8395 8.8327H13.8959C14.0627 10.0554 14.2715 11.2669 14.5726 12.4852H11.1638C11.2657 12.0703 11.3589 11.6529 11.4433 11.2335ZM12.0771 6.85245C12.238 5.35434 12.3627 3.90409 12.5215 2.40562H13.2148C13.4124 4.28608 13.5601 6.108 13.7877 7.99043H11.9479C11.9972 7.58591 12.0398 7.20282 12.0771 6.85245ZM22.8925 12.1224L24.4854 13.106L24.5043 14.4872L24.4261 14.6317L21.6858 12.9402L21.764 12.7958L22.8925 12.1224ZM25.2103 9.79704L23.9139 10.5953L23.4338 11.4839L24.7323 12.2853L25.212 11.397L25.2103 9.79704ZM25.9998 11.5092L25.9975 9.06784C25.9973 8.74477 25.6691 8.54192 25.4073 8.70358L23.4288 9.9219C23.3688 9.95881 23.3189 10.0119 23.2841 10.076L22.6094 11.3267L21.2852 12.1167C21.1525 12.1961 21.0857 12.3674 21.0008 12.5247C20.8235 12.4532 20.6192 12.5269 20.5214 12.7075L18.1064 17.1804C18.0598 17.2668 18.0434 17.3681 18.0602 17.4662C18.0769 17.5643 18.1257 17.6529 18.1979 17.7161L17.819 18.4169C17.2255 17.1479 16.558 16.0502 16.0674 14.7003C15.9034 14.2483 15.7536 13.7904 15.6182 13.3276H15.9829C16.2001 13.3276 16.3768 13.1391 16.3768 12.9064C16.3768 12.6738 16.2001 12.4853 15.9829 12.4853H15.3873C15.0772 11.2713 14.8639 10.0646 14.6923 8.83276H14.9828C15.0873 8.83276 15.1874 8.78839 15.2613 8.7094C15.3352 8.63042 15.3767 8.5233 15.3767 8.4116C15.3767 8.2999 15.3352 8.19277 15.2613 8.11379C15.1874 8.03481 15.0873 7.99043 14.9828 7.99043H14.5819C14.3313 5.95529 14.1794 3.97294 13.9574 1.93607C13.9341 1.72409 13.7658 1.56329 13.5662 1.56329H13.2514V0.821554C13.2514 0.709854 13.2099 0.60273 13.1361 0.523746C13.0622 0.444763 12.962 0.400391 12.8575 0.400391C12.7531 0.400391 12.6529 0.444763 12.579 0.523746C12.5051 0.60273 12.4636 0.709854 12.4636 0.821554V1.56323H12.1699C12.0732 1.56328 11.98 1.60128 11.9079 1.67001C11.8357 1.73873 11.7897 1.8334 11.7786 1.93601C11.5598 3.97418 11.4026 5.95733 11.1538 7.99037H10.7322C10.6278 7.99042 10.5276 8.03481 10.4538 8.11377C10.3799 8.19274 10.3384 8.29982 10.3383 8.4115C10.3384 8.52318 10.38 8.63024 10.4538 8.70921C10.5277 8.78817 10.6278 8.83259 10.7322 8.8327H11.0433C10.8737 10.0582 10.6567 11.2771 10.3489 12.4852H9.73216C9.62771 12.4853 9.52755 12.5297 9.45368 12.6086C9.37982 12.6876 9.33829 12.7947 9.33823 12.9064C9.33828 13.0181 9.3798 13.1252 9.45366 13.2042C9.52753 13.2831 9.6277 13.3275 9.73216 13.3276H10.1174C9.61642 15.0342 9.01748 16.4233 8.06873 18.1411L6.77786 15.7503C6.49476 15.226 5.86428 15.045 5.37322 15.3484L4.88782 15.6476L3.74034 13.5232C3.69796 13.4441 3.6327 13.382 3.55438 13.346L1.98908 12.6314L0.735168 10.3096C0.62671 10.108 0.385481 10.0389 0.196863 10.1553C0.152035 10.1829 0.112748 10.2197 0.0812532 10.2637C0.0497585 10.3076 0.0266741 10.3577 0.0133218 10.4112C-3.04341e-05 10.4646 -0.0033882 10.5204 0.00344077 10.5752C0.0102697 10.6301 0.0271512 10.683 0.0531188 10.7308L1.30668 13.0526L1.10276 14.8593C1.09307 14.9498 1.11054 15.0412 1.15266 15.1204L2.30042 17.2455L1.81536 17.5446C1.32418 17.848 1.15474 18.5217 1.43841 19.0465L3.62721 23.1006C3.575 23.1934 3.52274 23.2859 3.47214 23.3802C3.36467 23.5826 3.43022 23.8398 3.61953 23.9546C3.8078 24.0706 4.04839 23.9998 4.15679 23.7981C5.93671 20.4632 9.27026 18.3915 12.8573 18.3915C16.4443 18.3915 19.7779 20.4632 21.5578 23.7981C21.5834 23.8461 21.6177 23.8883 21.6586 23.9222C21.6995 23.956 21.7463 23.981 21.7962 23.9955C21.8462 24.01 21.8983 24.0139 21.9496 24.0069C22.0009 23.9999 22.0505 23.9821 22.0954 23.9546C22.2844 23.8397 22.3499 23.5825 22.2424 23.3802C21.9819 22.8925 21.6871 22.4268 21.3648 21.9857L22.3023 20.2498C22.4843 20.322 22.6843 20.2463 22.781 20.067L25.1964 15.5938C25.2931 15.4152 25.2544 15.1907 25.1055 15.0584C25.1903 14.901 25.2956 14.7526 25.2935 14.5913L25.2716 12.9704L25.9469 11.7196C25.9817 11.6557 25.9999 11.5831 25.9998 11.5092Z" fill="#FA6741"/>
</svg>
