<svg width="26" height="27" viewBox="0 0 26 27" fill="none" xmlns="http://www.w3.org/2000/svg">
<path d="M10.0958 14.9042L10.0626 14.9041C7.52625 14.8852 5.46289 12.782 5.46289 10.2157V7.30242C5.46289 6.77705 5.89033 6.34961 6.4157 6.34961H13.7793C14.3046 6.34961 14.732 6.77705 14.732 7.30242V10.2695C14.732 12.1852 13.5284 13.9276 11.7371 14.6053C11.214 14.8037 10.6619 14.9042 10.0958 14.9042ZM6.41565 7.04294C6.34686 7.04303 6.28091 7.0704 6.23227 7.11904C6.18363 7.16769 6.15626 7.23363 6.15617 7.30242V10.2157C6.15617 12.4025 7.91082 14.1947 10.0676 14.2108C10.5597 14.213 11.0383 14.1288 11.4915 13.9569C13.0151 13.3804 14.0387 11.8986 14.0387 10.2695V7.30236C14.0386 7.23358 14.0112 7.16763 13.9626 7.11899C13.914 7.07035 13.848 7.04298 13.7793 7.04288H6.41565V7.04294Z" fill="#FA6741"/>
<path d="M19.2104 26.1696H0.983385C0.891444 26.1696 0.803268 26.133 0.738255 26.068C0.673242 26.003 0.636719 25.9148 0.636719 25.8229V20.4395C0.636719 19.3323 1.24044 18.5152 2.2935 18.1966L7.62939 16.3239L8.29447 14.1903C8.30776 14.1465 8.32957 14.1058 8.35866 14.0705C8.38776 14.0352 8.42355 14.006 8.46397 13.9846C8.5044 13.9632 8.54866 13.95 8.59421 13.9458C8.63975 13.9416 8.68569 13.9464 8.72936 13.96C8.77303 13.9737 8.81357 13.9958 8.84865 14.0251C8.88373 14.0545 8.91266 14.0905 8.93376 14.1311C8.95487 14.1717 8.96773 14.216 8.97161 14.2616C8.97549 14.3072 8.97031 14.3531 8.95637 14.3966L8.23947 16.6965C8.22339 16.7481 8.19547 16.7952 8.15794 16.8341C8.12041 16.873 8.07431 16.9025 8.02332 16.9204L2.51571 18.8534C2.51068 18.8552 2.50554 18.8568 2.5004 18.8584C1.74571 19.0845 1.33005 19.646 1.33005 20.4395V25.4762H19.2104C19.3024 25.4762 19.3905 25.5128 19.4555 25.5778C19.5206 25.6428 19.5571 25.731 19.5571 25.8229C19.5571 25.9149 19.5205 26.003 19.4555 26.068C19.3905 26.133 19.3023 26.1696 19.2104 26.1696Z" fill="#FA6741"/>
<path d="M19.1517 26.1112C19.0598 26.1112 18.9716 26.0747 18.9066 26.0097C18.8416 25.9446 18.805 25.8565 18.805 25.7645V20.3812C18.805 19.5877 18.3894 19.0261 17.6347 18.8C17.6295 18.7985 17.6244 18.7968 17.6193 18.795L12.1118 16.862C12.0616 16.8444 12.0162 16.8155 11.9789 16.7775C11.9417 16.7396 11.9138 16.6935 11.8972 16.643L11.1803 14.4593C11.1527 14.3722 11.1605 14.2778 11.2022 14.1965C11.2438 14.1152 11.3158 14.0536 11.4026 14.0251C11.4894 13.9966 11.5839 14.0035 11.6656 14.0443C11.7473 14.0852 11.8096 14.1566 11.839 14.2431L12.5026 16.2644L17.8415 18.1383C18.8945 18.457 19.4983 19.274 19.4983 20.3812V25.7645C19.4983 25.81 19.4893 25.8551 19.4719 25.8972C19.4545 25.9393 19.429 25.9775 19.3968 26.0097C19.3646 26.0419 19.3264 26.0674 19.2844 26.0848C19.2423 26.1022 19.1972 26.1112 19.1517 26.1112Z" fill="#FA6741"/>
<path d="M10.0145 17.8041C9.15758 17.8041 8.30802 17.4831 7.66339 16.8385C7.6312 16.8063 7.60566 16.7681 7.58824 16.726C7.57081 16.684 7.56184 16.6389 7.56184 16.5934C7.56184 16.5478 7.5708 16.5028 7.58822 16.4607C7.60564 16.4186 7.63117 16.3804 7.66336 16.3482C7.72837 16.2832 7.81655 16.2467 7.90849 16.2467C7.95402 16.2467 7.9991 16.2556 8.04116 16.2731C8.08322 16.2905 8.12144 16.316 8.15364 16.3482C9.19317 17.3878 10.9106 17.3617 11.9822 16.2902C12.0142 16.2573 12.0524 16.2311 12.0947 16.2131C12.1369 16.195 12.1823 16.1856 12.2282 16.1853C12.2742 16.185 12.3197 16.1938 12.3622 16.2112C12.4047 16.2287 12.4433 16.2543 12.4757 16.2868C12.5082 16.3193 12.5339 16.3579 12.5513 16.4004C12.5688 16.4428 12.5776 16.4884 12.5773 16.5343C12.577 16.5802 12.5675 16.6256 12.5495 16.6679C12.5315 16.7101 12.5053 16.7483 12.4724 16.7804C11.7909 17.4619 10.8988 17.8041 10.0145 17.8041ZM14.2358 4.72123C14.1538 4.72112 14.0745 4.69197 14.012 4.63894C13.9495 4.58592 13.9078 4.51245 13.8943 4.43159L13.7442 3.53303C13.531 2.25366 12.4351 1.32517 11.1384 1.32517H9.05543C7.75873 1.32517 6.66285 2.25366 6.44971 3.53292L6.2996 4.43159C6.28401 4.52186 6.23333 4.60229 6.15862 4.6553C6.08392 4.70832 5.99127 4.72961 5.90091 4.71452C5.81056 4.69944 5.72985 4.64921 5.67641 4.5748C5.62298 4.50039 5.60117 4.40786 5.61575 4.31742L5.76585 3.41886C6.03481 1.80403 7.41836 0.631836 9.05543 0.631836H11.1384C12.7755 0.631836 14.1589 1.80403 14.428 3.41898L14.5781 4.31742C14.5864 4.36713 14.5838 4.41805 14.5704 4.46663C14.557 4.51522 14.5332 4.5603 14.5006 4.59874C14.468 4.63718 14.4275 4.66805 14.3817 4.68921C14.336 4.71036 14.2862 4.72129 14.2358 4.72123Z" fill="#FA6741"/>
<path d="M14.3846 9.43268C14.3134 9.43265 14.2439 9.4107 14.1856 9.36982C14.1273 9.32893 14.083 9.2711 14.0587 9.20417C14.0273 9.11774 14.0316 9.0224 14.0705 8.9391C14.1095 8.85581 14.1799 8.7914 14.2663 8.76003L14.6694 8.61374C16.0649 8.1191 16.8966 7.42109 16.8966 6.74561C16.8966 5.98127 15.8401 5.20023 14.1395 4.70738C12.9567 4.36476 11.5587 4.18368 10.0967 4.18368C8.63471 4.18368 7.23672 4.36476 6.05389 4.70738C4.35326 5.20023 3.29685 5.98121 3.29685 6.74561C3.29685 7.42103 4.1285 8.11904 5.52152 8.61281L5.92707 8.75997C5.96996 8.77543 6.00938 8.79919 6.04308 8.82991C6.07677 8.86062 6.10408 8.89768 6.12343 8.93896C6.14278 8.98024 6.1538 9.02493 6.15586 9.07048C6.15792 9.11602 6.15097 9.16153 6.13541 9.20438C6.11986 9.24724 6.096 9.28661 6.06521 9.32023C6.03442 9.35386 5.9973 9.38108 5.95598 9.40033C5.91465 9.41959 5.86993 9.43051 5.82438 9.43246C5.77883 9.43441 5.73335 9.42736 5.69052 9.41171L5.28747 9.26541C3.55754 8.65227 2.60352 7.75707 2.60352 6.74555C2.60352 5.62691 3.79079 4.64128 5.86097 4.04138C7.10562 3.68084 8.57034 3.49023 10.0967 3.49023C11.6231 3.49023 13.0878 3.68079 14.3324 4.04132C16.4026 4.64128 17.5899 5.62691 17.5899 6.74549C17.5899 7.75695 16.6358 8.65216 14.9035 9.26622L14.5028 9.41165C14.465 9.42557 14.4249 9.43269 14.3846 9.43268ZM11.8381 24.254H8.35529C8.26335 24.254 8.17518 24.2175 8.11016 24.1525C8.04515 24.0875 8.00863 23.9993 8.00863 23.9073V19.7279C8.00863 19.636 8.04515 19.5478 8.11016 19.4828C8.17518 19.4178 8.26335 19.3813 8.35529 19.3813H11.8381C11.9301 19.3813 12.0183 19.4178 12.0833 19.4828C12.1483 19.5478 12.1848 19.636 12.1848 19.7279V23.9073C12.1848 23.9993 12.1483 24.0875 12.0833 24.1525C12.0183 24.2175 11.9301 24.254 11.8381 24.254ZM8.7019 23.5607H11.4914V20.0746H8.7019V23.5607Z" fill="#FA6741"/>
<path d="M10.4447 21.4678H9.74812C9.65617 21.4678 9.568 21.4312 9.50298 21.3662C9.43797 21.3012 9.40145 21.213 9.40145 21.1211C9.40145 21.0291 9.43797 20.941 9.50298 20.876C9.568 20.8109 9.65617 20.7744 9.74812 20.7744H10.4447C10.5366 20.7744 10.6248 20.8109 10.6898 20.876C10.7548 20.941 10.7914 21.0291 10.7914 21.1211C10.7914 21.213 10.7548 21.3012 10.6898 21.3662C10.6248 21.4312 10.5366 21.4678 10.4447 21.4678ZM10.4447 22.8609H9.74812C9.65617 22.8609 9.568 22.8244 9.50298 22.7594C9.43797 22.6943 9.40145 22.6062 9.40145 22.5142C9.40145 22.4223 9.43797 22.3341 9.50298 22.2691C9.568 22.2041 9.65617 22.1676 9.74812 22.1676H10.4447C10.5366 22.1676 10.6248 22.2041 10.6898 22.2691C10.7548 22.3341 10.7914 22.4223 10.7914 22.5142C10.7914 22.6062 10.7548 22.6943 10.6898 22.7594C10.6248 22.8244 10.5366 22.8609 10.4447 22.8609ZM11.8379 20.0747C11.7693 20.0747 11.7023 20.0544 11.6452 20.0163C11.5882 19.9782 11.5438 19.9241 11.5175 19.8607C11.4913 19.7974 11.4844 19.7277 11.4978 19.6604C11.5112 19.5932 11.5442 19.5314 11.5927 19.4829L14.0308 17.0449C14.063 17.0127 14.1012 16.9872 14.1432 16.9697C14.1853 16.9523 14.2303 16.9433 14.2759 16.9433C14.3214 16.9433 14.3665 16.9523 14.4085 16.9697C14.4506 16.9872 14.4888 17.0127 14.521 17.0449C14.5532 17.0771 14.5787 17.1153 14.5961 17.1574C14.6136 17.1994 14.6225 17.2445 14.6225 17.29C14.6225 17.3355 14.6136 17.3806 14.5961 17.4227C14.5787 17.4647 14.5532 17.5029 14.521 17.5351L12.083 19.9731C12.0508 20.0053 12.0126 20.0309 11.9706 20.0484C11.9285 20.0658 11.8834 20.0747 11.8379 20.0747ZM8.35498 20.0747C8.30944 20.0747 8.26433 20.0658 8.22226 20.0484C8.18019 20.0309 8.14198 20.0054 8.10983 19.9731L5.67184 17.5351C5.63965 17.5029 5.61412 17.4647 5.5967 17.4227C5.57928 17.3806 5.57031 17.3355 5.57031 17.29C5.57031 17.2445 5.57928 17.1994 5.5967 17.1574C5.61412 17.1153 5.63965 17.0771 5.67184 17.0449C5.70402 17.0127 5.74223 16.9872 5.78429 16.9697C5.82635 16.9523 5.87143 16.9433 5.91696 16.9433C5.96248 16.9433 6.00757 16.9523 6.04963 16.9697C6.09168 16.9872 6.1299 17.0127 6.16208 17.0449L8.60007 19.4829C8.63226 19.5151 8.65779 19.5533 8.67521 19.5954C8.69263 19.6374 8.70159 19.6825 8.70159 19.728C8.70159 19.7735 8.69263 19.8186 8.67521 19.8606C8.65779 19.9027 8.63226 19.9409 8.60007 19.9731C8.56794 20.0054 8.52973 20.0309 8.48767 20.0484C8.44561 20.0658 8.40051 20.0747 8.35498 20.0747ZM20.487 26.1688C20.395 26.1688 20.3069 26.1323 20.2419 26.0673C20.1768 26.0023 20.1403 25.9141 20.1403 25.8222V16.2451C20.1403 16.1532 20.1768 16.065 20.2419 16C20.3069 15.935 20.395 15.8984 20.487 15.8984C20.5789 15.8984 20.6671 15.935 20.7321 16C20.7971 16.065 20.8336 16.1532 20.8336 16.2451V25.8222C20.8336 25.9142 20.7971 26.0023 20.7321 26.0673C20.6671 26.1323 20.5789 26.1688 20.487 26.1688Z" fill="#FA6741"/>
<path d="M20.4873 17.637C20.4418 17.6371 20.3967 17.6281 20.3546 17.6107C20.3126 17.5933 20.2743 17.5677 20.2421 17.5355C20.21 17.5033 20.1844 17.4651 20.167 17.4231C20.1496 17.381 20.1406 17.3359 20.1406 17.2904V11.7178C20.1406 11.6572 20.1565 11.5977 20.1867 11.5452C20.2168 11.4926 20.2602 11.4489 20.3126 11.4184C20.3649 11.3878 20.4243 11.3715 20.4848 11.3711C20.5454 11.3707 20.605 11.3861 20.6578 11.4159L25.5916 14.2022C25.6451 14.2324 25.6896 14.2763 25.7206 14.3293C25.7515 14.3824 25.7679 14.4427 25.7679 14.5041C25.7679 14.5655 25.7515 14.6258 25.7206 14.6789C25.6896 14.7319 25.6451 14.7758 25.5916 14.806L20.6578 17.5923C20.6057 17.6216 20.547 17.637 20.4873 17.637ZM20.834 12.3117V16.6965L24.7161 14.5042L20.834 12.3117Z" fill="#FA6741"/>
</svg>
