<svg width="26" height="20" viewBox="0 0 26 20" fill="none" xmlns="http://www.w3.org/2000/svg">
<path d="M12.6822 13.1652H11.0831C9.23313 13.1652 7.72848 14.6704 7.72848 16.5198V18.7019C7.72848 19.3478 8.25356 19.8729 8.89949 19.8729H14.8663C15.5122 19.8729 16.0373 19.3478 16.0373 18.7019V16.5198C16.0373 14.6704 14.5321 13.1652 12.6822 13.1652ZM15.2238 18.7024C15.2238 18.8994 15.0633 19.0599 14.8663 19.0599H13.7329V17.1287C13.7329 16.9043 13.5511 16.7219 13.3261 16.7219C13.1011 16.7219 12.9193 16.9037 12.9193 17.1287V19.0599H10.8464V17.1287C10.8464 16.9043 10.6646 16.7219 10.4397 16.7219C10.2147 16.7219 10.0329 16.9037 10.0329 17.1287V19.0599H8.89949C8.70246 19.0599 8.54199 18.8994 8.54199 18.7024V16.5203C8.54199 15.1188 9.68203 13.9787 11.0836 13.9787H12.6827C14.0843 13.9787 15.2243 15.1188 15.2243 16.5203V18.7024H15.2238ZM9.33773 10.3636C9.33773 11.7672 10.4793 12.9093 11.8819 12.9093C13.2855 12.9093 14.4275 11.7672 14.4275 10.3636C14.4275 8.96054 13.2855 7.81949 11.8819 7.81949C10.4793 7.81949 9.33773 8.96054 9.33773 10.3636ZM13.6145 10.3636C13.6145 11.3188 12.8376 12.0958 11.8819 12.0958C10.9272 12.0958 10.1507 11.3188 10.1507 10.3636C10.1507 9.40894 10.9272 8.6325 11.8819 8.6325C12.8371 8.6325 13.6145 9.40894 13.6145 10.3636ZM4.27434 14.0437H2.91391C1.30617 14.0437 -0.00195312 15.3519 -0.00195312 16.9596V18.8167C-0.00195312 19.3996 0.472344 19.8739 1.05531 19.8739H6.13242C6.71539 19.8739 7.18969 19.3996 7.18969 18.8167V16.9596C7.1902 15.3514 5.88207 14.0437 4.27434 14.0437ZM6.37668 18.8162C6.37668 18.9507 6.26699 19.0599 6.13293 19.0599H5.22953V17.4771C5.22953 17.2526 5.04773 17.0703 4.82277 17.0703C4.59781 17.0703 4.41602 17.2521 4.41602 17.4771V19.0599H2.77375V17.4771C2.77375 17.2526 2.59195 17.0703 2.36699 17.0703C2.14203 17.0703 1.96023 17.2521 1.96023 17.4771V19.0599H1.05582C0.92125 19.0599 0.81207 18.9502 0.81207 18.8162V16.9591C0.81207 15.7998 1.75508 14.8568 2.91441 14.8568H4.27484C5.43418 14.8568 6.37719 15.7998 6.37719 16.9591V18.8162H6.37668ZM3.59488 13.9473C4.82227 13.9473 5.82113 12.9479 5.82113 11.7195C5.82113 10.4921 4.82227 9.49324 3.59488 9.49324C2.36648 9.49324 1.36711 10.4921 1.36711 11.7195C1.36762 12.9479 2.36699 13.9473 3.59488 13.9473ZM3.59488 10.3068C4.37387 10.3068 5.00762 10.9405 5.00762 11.7195C5.00762 12.4995 4.37387 13.1337 3.59488 13.1337C2.81488 13.1337 2.18062 12.4995 2.18062 11.7195C2.18062 10.9405 2.81539 10.3068 3.59488 10.3068ZM22.2057 12.2872H20.3674C18.2762 12.2872 16.5751 13.9889 16.5751 16.0811V18.5887C16.5751 19.2971 17.1514 19.8734 17.8598 19.8734H24.7148C25.4232 19.8734 25.9996 19.2971 25.9996 18.5887V16.0811C25.9996 13.9894 24.2979 12.2872 22.2057 12.2872ZM25.1866 18.5887C25.1866 18.8487 24.9753 19.0599 24.7153 19.0599H23.3513V16.7803C23.3513 16.5559 23.1695 16.3736 22.9446 16.3736C22.7196 16.3736 22.5378 16.5554 22.5378 16.7803V19.0599H20.0358V16.7803C20.0358 16.5559 19.854 16.3736 19.6291 16.3736C19.4041 16.3736 19.2223 16.5554 19.2223 16.7803V19.0599H17.8598C17.5998 19.0599 17.3886 18.8487 17.3886 18.5887V16.0811C17.3886 14.4378 18.7252 13.1007 20.3674 13.1007H22.2057C23.849 13.1007 25.1861 14.4378 25.1861 16.0811V18.5887H25.1866ZM18.4235 9.00777C18.4235 10.5871 19.7083 11.8718 21.2876 11.8718C22.8669 11.8718 24.1516 10.5871 24.1516 9.00777C24.1516 7.42847 22.8669 6.14371 21.2876 6.14371C19.7083 6.14371 18.4235 7.42847 18.4235 9.00777ZM21.2876 6.95722C22.4185 6.95722 23.3381 7.87687 23.3381 9.00777C23.3381 10.1387 22.4185 11.0583 21.2876 11.0583C20.1567 11.0583 19.237 10.1387 19.237 9.00777C19.237 7.87687 20.1567 6.95722 21.2876 6.95722ZM1.37879 7.06132C1.32648 6.84296 1.46105 6.62359 1.67941 6.57078L18.097 2.62914L16.4725 1.68511C16.2785 1.57238 16.2125 1.32355 16.3252 1.12906C16.438 0.935074 16.6868 0.869058 16.8813 0.981793L19.3833 2.43566C19.5773 2.54839 19.6433 2.79722 19.5305 2.99171L18.0767 5.49472C18.0226 5.58798 17.9337 5.65593 17.8295 5.68364C17.7253 5.71135 17.6144 5.69655 17.5211 5.6425C17.3266 5.52976 17.2611 5.28093 17.3739 5.08644L18.3509 3.40457L1.86883 7.36195C1.76398 7.38704 1.65346 7.36947 1.56157 7.3131C1.46967 7.25672 1.40393 7.16616 1.37879 7.06132Z" fill="#FA6741"/>
</svg>
