<svg width="24" height="24" viewBox="0 0 24 24" fill="none" xmlns="http://www.w3.org/2000/svg">
<path fill-rule="evenodd" clip-rule="evenodd" d="M13.0276 4.76445L12.5236 4.14101C12.3547 3.93213 12.0363 3.93213 11.8674 4.14101L11.3635 4.76445C11.0725 5.12441 10.6833 5.39217 10.2431 5.5352C9.80285 5.67824 9.33059 5.69041 8.88359 5.57023L8.10941 5.3621C7.85005 5.29235 7.59238 5.47952 7.57855 5.74779L7.5373 6.54837C7.51347 7.01062 7.35596 7.45602 7.08389 7.83048C6.81182 8.20495 6.43689 8.49238 6.00463 8.65788L5.25599 8.94452C5.00516 9.04057 4.90677 9.34348 5.0532 9.56857L5.49041 10.2406C5.74283 10.6285 5.87719 11.0814 5.87719 11.5443C5.87719 12.0072 5.74283 12.4601 5.49041 12.848L5.0532 13.52C4.90672 13.7451 5.00516 14.048 5.25599 14.1441L6.00463 14.4307C6.43689 14.5962 6.81182 14.8837 7.08389 15.2581C7.35596 15.6326 7.51347 16.078 7.5373 16.5402L7.57855 17.3408C7.59238 17.6091 7.85005 17.7963 8.10941 17.7265L8.88359 17.5184C9.33058 17.3982 9.80284 17.4104 10.2431 17.5534C10.6833 17.6964 11.0725 17.9642 11.3635 18.3241L11.8674 18.9476C12.0363 19.1565 12.3547 19.1565 12.5236 18.9476L13.0276 18.3241C13.3186 17.9642 13.7078 17.6964 14.148 17.5534C14.5882 17.4104 15.0605 17.3982 15.5075 17.5184L16.2816 17.7265C16.541 17.7963 16.7987 17.6091 16.8125 17.3408L16.8538 16.5402C16.8776 16.078 17.0351 15.6326 17.3072 15.2581C17.5792 14.8837 17.9542 14.5962 18.3864 14.4307L19.1351 14.1441C19.3859 14.048 19.4843 13.7451 19.3378 13.52L18.9006 12.848C18.6482 12.4601 18.5139 12.0072 18.5139 11.5443C18.5139 11.0814 18.6482 10.6285 18.9006 10.2406L19.3378 9.56857C19.4843 9.34348 19.3859 9.04057 19.1351 8.94452L18.3864 8.65788C17.9542 8.49238 17.5792 8.20495 17.3072 7.83048C17.0351 7.45602 16.8776 7.01062 16.8538 6.54837L16.8125 5.74779C16.7987 5.47952 16.541 5.29235 16.2816 5.3621L15.5075 5.57023C15.0605 5.69041 14.5882 5.67824 14.148 5.5352C13.7078 5.39217 13.3186 5.12441 13.0276 4.76445ZM13.2891 3.52221C12.7263 2.82593 11.6647 2.82593 11.1019 3.52221L10.598 4.14565C10.4268 4.3574 10.1978 4.5149 9.93886 4.59903C9.67991 4.68316 9.4021 4.69031 9.13916 4.6196L8.36502 4.41148C7.50041 4.17898 6.64156 4.80298 6.59548 5.69712L6.55423 6.4977C6.54022 6.76961 6.44756 7.03161 6.28752 7.25188C6.12747 7.47215 5.90692 7.64123 5.65264 7.73857L4.904 8.02526C4.06784 8.34537 3.73981 9.35496 4.22806 10.1054L4.66531 10.7774C4.8138 11.0056 4.89285 11.272 4.89285 11.5443C4.89285 11.8166 4.8138 12.083 4.66531 12.3112L4.22811 12.9832C3.73981 13.7336 4.06784 14.7432 4.904 15.0634L5.65264 15.35C5.90692 15.4474 6.12747 15.6164 6.28751 15.8367C6.44755 16.057 6.54021 16.319 6.55423 16.5909L6.59548 17.3915C6.64156 18.2856 7.50041 18.9096 8.36502 18.6771L9.13916 18.469C9.4021 18.3983 9.67991 18.4054 9.93886 18.4896C10.1978 18.5737 10.4268 18.7312 10.598 18.943L11.1019 19.5664C11.6647 20.2627 12.7263 20.2627 13.2891 19.5664L13.7931 18.943C13.9643 18.7312 14.1932 18.5737 14.4522 18.4896C14.7111 18.4054 14.989 18.3983 15.2519 18.469L16.026 18.6771C16.8906 18.9096 17.7495 18.2856 17.7956 17.3915L17.8368 16.5909C17.8508 16.319 17.9435 16.057 18.1035 15.8367C18.2636 15.6164 18.4841 15.4474 18.7384 15.35L19.487 15.0634C20.3232 14.7432 20.6512 13.7336 20.1629 12.9832L19.7257 12.3112C19.5772 12.083 19.4982 11.8166 19.4982 11.5443C19.4982 11.272 19.5772 11.0056 19.7257 10.7774L20.1629 10.1054C20.6512 9.35496 20.3232 8.34537 19.487 8.02526L18.7384 7.73857C18.4841 7.64123 18.2636 7.47215 18.1035 7.25188C17.9435 7.03161 17.8508 6.76961 17.8368 6.4977L17.7956 5.69712C17.7495 4.80298 16.8906 4.17898 16.026 4.41148L15.2519 4.6196C14.989 4.69031 14.7111 4.68316 14.4522 4.59903C14.1932 4.5149 13.9643 4.3574 13.7931 4.14565L13.2891 3.52221Z" fill="#FA6741"/>
<path d="M14 9.5L10 14.5" stroke="#FA6741" stroke-linecap="round" stroke-linejoin="round"/>
<path d="M10 9.5L14 14.5" stroke="#FA6741" stroke-linecap="round" stroke-linejoin="round"/>
</svg>
