<svg width="29" height="40" viewBox="0 0 29 40" fill="none" xmlns="http://www.w3.org/2000/svg">
<path d="M8.83385 35.2427H0.454463C0.203599 35.2427 0 35.0391 0 34.7883V29.4983C0 26.9242 2.09416 24.8301 4.66824 24.8301H5.93983C6.06162 24.8301 6.17888 24.8792 6.26432 24.9664L7.98582 26.7243L9.38193 25.2991C9.55735 25.12 9.84548 25.1164 10.0245 25.2927C10.2036 25.4681 10.2072 25.7563 10.0309 25.9353L8.31031 27.6923C8.22487 27.7795 8.10762 27.8286 7.98582 27.8286C7.86403 27.8286 7.74677 27.7795 7.66133 27.6923L5.74896 25.7399H4.66824C2.59498 25.7399 0.908926 27.4269 0.908926 29.4992V34.3347H8.83385C9.08471 34.3347 9.28831 34.5383 9.28831 34.7892C9.28831 35.04 9.08471 35.2427 8.83385 35.2427Z" fill="white"/>
<path d="M3.4812 35.2424C3.23033 35.2424 3.02673 35.0388 3.02673 34.788V29.4535C3.02673 29.2026 3.23033 28.999 3.4812 28.999C3.73206 28.999 3.93566 29.2026 3.93566 29.4535V34.788C3.93566 35.0388 3.73206 35.2424 3.4812 35.2424Z" fill="white"/>
<path d="M5.93981 25.7385C5.68895 25.7385 5.48535 25.5349 5.48535 25.284V23.4398C5.48535 23.189 5.68895 22.9854 5.93981 22.9854C6.19068 22.9854 6.39428 23.189 6.39428 23.4398V25.284C6.39428 25.5349 6.19159 25.7385 5.93981 25.7385Z" fill="white"/>
<path d="M10.0327 25.4956C9.78185 25.4956 9.57825 25.292 9.57825 25.0411V23.5287C9.57825 23.2778 9.78185 23.0742 10.0327 23.0742C10.2836 23.0742 10.4872 23.2778 10.4872 23.5287V25.0411C10.4872 25.292 10.2836 25.4956 10.0327 25.4956Z" fill="white"/>
<path d="M8.04033 24.6832C8.03851 24.6832 8.03669 24.6832 8.03487 24.6832C6.13522 24.6805 4.05923 23.1681 3.98925 19.8532C3.98379 19.6024 4.18285 19.3942 4.43371 19.3897C4.68639 19.3878 4.89272 19.5833 4.89726 19.8341C4.95452 22.5382 6.56423 23.7725 8.03578 23.7743H8.03942C9.50824 23.7743 11.1161 22.5491 11.1816 19.855C11.1879 19.6042 11.3979 19.406 11.6469 19.4115C11.8978 19.4178 12.096 19.626 12.0905 19.8768C12.0114 23.1799 9.93635 24.6832 8.04033 24.6832Z" fill="white"/>
<path d="M11.6369 20.3311C11.6024 20.3311 11.567 20.3275 11.5315 20.3184C11.3315 20.2711 11.1888 20.0948 11.1825 19.8903C11.1334 18.2497 10.7798 17.498 10.5662 17.1908C8.79383 18.1479 7.36318 17.6071 6.3979 17.2426C5.90072 17.0544 5.67985 16.9908 5.57169 17.019C5.54351 18.6042 4.88181 19.983 4.85273 20.043C4.78274 20.1866 4.64276 20.2829 4.4837 20.2966C4.32464 20.3111 4.17012 20.2402 4.0765 20.1102C2.96852 18.5823 2.88854 16.8854 3.85018 15.3311C4.97179 13.5178 7.33137 12.3435 9.22284 12.6571C10.5553 12.8779 11.4888 13.7778 11.8642 15.1984C13.8002 16.7881 12.1114 19.9557 12.0369 20.093C11.9551 20.2429 11.8006 20.3311 11.6369 20.3311ZM8.58477 13.516C7.14231 13.516 5.45262 14.4676 4.62186 15.8101C4.18103 16.5236 3.83018 17.5716 4.35645 18.7896C4.51733 18.2669 4.67549 17.5607 4.66276 16.8317C4.66094 16.7409 4.6873 16.6518 4.73638 16.5754C5.22448 15.8283 6.01888 16.1282 6.71875 16.3927C7.67403 16.7536 8.86291 17.2035 10.4008 16.2355C10.5417 16.1473 10.7189 16.1419 10.8644 16.2228C10.9989 16.2973 11.5142 16.6563 11.8342 17.8725C11.9478 17.1226 11.8642 16.3146 11.1943 15.831C11.1043 15.7665 11.0416 15.671 11.0171 15.5638C10.7544 14.4167 10.0827 13.7223 9.07287 13.5551C8.9138 13.5287 8.75111 13.516 8.58477 13.516Z" fill="white"/>
<path d="M6.21611 29.0098C6.17975 29.0098 6.14431 29.0052 6.10886 28.9971C5.98524 28.9671 5.87981 28.8862 5.818 28.7753L4.01924 25.5104C3.89835 25.2905 3.97834 25.0141 4.1983 24.8933C4.41826 24.7724 4.69457 24.8524 4.81546 25.0723L6.37517 27.9036L7.73402 26.9956C7.94307 26.8565 8.22484 26.912 8.36481 27.121C8.50388 27.3301 8.44843 27.6119 8.23938 27.7518L6.46879 28.9353C6.39335 28.9834 6.30519 29.0098 6.21611 29.0098Z" fill="white"/>
<path d="M9.75638 29.0105C9.66731 29.0105 9.57914 28.9842 9.5037 28.9342L7.73311 27.7507C7.52406 27.6108 7.46861 27.329 7.60768 27.12C7.74675 26.9109 8.02942 26.8555 8.23847 26.9945L9.59732 27.9025L9.71275 27.6935C9.83364 27.4735 10.11 27.3935 10.3299 27.5144C10.5499 27.6353 10.6299 27.9116 10.509 28.1316L10.1554 28.7742C10.0936 28.886 9.98907 28.966 9.86454 28.996C9.82819 29.0069 9.79274 29.0105 9.75638 29.0105Z" fill="white"/>
<path d="M26.8033 35.243H18.4239C18.173 35.243 17.9694 35.0394 17.9694 34.7885C17.9694 34.5376 18.173 34.334 18.4239 34.334H26.3488V30.1957C26.3488 27.9143 24.4928 26.0574 22.2105 26.0574H21.5751L19.7418 29.2322C19.6609 29.3731 19.511 29.4595 19.3483 29.4595C19.1856 29.4595 19.0356 29.3731 18.9547 29.2322L17.1214 26.0574H17.1141C16.8633 26.0574 16.6597 25.8538 16.6597 25.6029C16.6597 25.352 16.8633 25.1484 17.1141 25.1484H17.3832C17.5459 25.1484 17.6958 25.2348 17.7767 25.3757L19.3474 28.0961L20.918 25.3757C20.9989 25.2348 21.1489 25.1484 21.3116 25.1484H22.2096C24.9927 25.1484 27.2568 27.4126 27.2568 30.1957V34.7885C27.2577 35.0394 27.0541 35.243 26.8033 35.243ZM15.0981 26.2737C14.9045 26.2737 14.7264 26.1501 14.6646 25.9556C14.5891 25.7165 14.7218 25.4611 14.9618 25.3857L14.9945 25.3757C15.2345 25.3002 15.489 25.4329 15.5644 25.6729C15.6399 25.9119 15.5072 26.1673 15.2672 26.2428L15.2345 26.2528C15.189 26.2664 15.1427 26.2737 15.0981 26.2737Z" fill="white"/>
<path d="M24.2074 35.2424C23.9565 35.2424 23.7529 35.0388 23.7529 34.7879V29.6625C23.7529 29.4116 23.9565 29.208 24.2074 29.208C24.4583 29.208 24.6619 29.4116 24.6619 29.6625V34.7879C24.6619 35.0388 24.4583 35.2424 24.2074 35.2424Z" fill="white"/>
<path d="M19.3483 29.4595C19.1857 29.4595 19.0357 29.3731 18.9548 29.2323L16.9906 25.8301C16.8652 25.6129 16.9397 25.3348 17.1569 25.2093C17.3742 25.0839 17.6523 25.1584 17.7777 25.3757L19.3483 28.0961L20.919 25.3757C21.0444 25.1584 21.3225 25.0839 21.5398 25.2093C21.757 25.3348 21.8315 25.6129 21.7061 25.8301L19.7419 29.2323C19.661 29.3722 19.5101 29.4595 19.3483 29.4595Z" fill="white"/>
<path d="M23.7429 26.3222C23.6548 26.3222 23.5657 26.2967 23.4875 26.2431C23.2803 26.1022 23.2267 25.8196 23.3675 25.6114C25.9307 21.8476 23.562 15.5078 21.2706 13.8617C20.2872 13.1555 19.8682 13.709 19.71 13.9172C19.6237 14.0308 19.4901 14.0971 19.3474 14.0971C19.2047 14.0971 19.071 14.0308 18.9847 13.9172C18.6693 13.5009 18.3121 13.4109 17.8285 13.6254C16.9105 14.0317 15.8489 15.436 15.1245 17.2011C14.2992 19.2135 14.0183 21.3931 14.3537 23.181C14.4001 23.4273 14.2374 23.6654 13.9911 23.7118C13.7447 23.7581 13.5066 23.5954 13.4602 23.3491C12.6758 19.1726 15.049 13.8617 17.4604 12.7938C18.1539 12.4865 18.8184 12.5611 19.3464 12.9892C20.02 12.4411 20.9053 12.4802 21.8005 13.1228C23.1512 14.0926 24.4146 16.2849 25.02 18.7081C25.4353 20.3724 25.8716 23.5482 24.1183 26.1213C24.0311 26.2522 23.8883 26.3222 23.7429 26.3222ZM21.3115 26.0568C21.2225 26.0568 21.1334 26.0313 21.0543 25.9768C20.6608 25.7069 20.5335 25.3815 20.4962 25.156C20.4235 24.7179 20.6308 24.3526 20.7117 24.2299L22.5804 20.5142C20.8553 19.5234 19.8527 18.2455 19.3474 17.4356C18.842 18.2455 17.8394 19.5234 16.1134 20.5142L17.9822 24.2299C18.063 24.3535 18.2703 24.7189 18.1976 25.156C18.1603 25.3815 18.0331 25.7059 17.6395 25.9768C17.4323 26.1186 17.1496 26.0668 17.0078 25.8596C16.866 25.6523 16.9178 25.3696 17.125 25.2279C17.2296 25.156 17.2886 25.0824 17.3005 25.0079C17.3214 24.8806 17.2259 24.7343 17.225 24.7334C17.2087 24.7125 17.195 24.6898 17.1832 24.6652L15.1027 20.5287C14.9909 20.306 15.079 20.0343 15.3008 19.9206C17.9703 18.5463 18.9165 16.3267 18.9256 16.304C18.9965 16.1341 19.1619 16.0232 19.3455 16.0232H19.3464C19.5301 16.0241 19.6964 16.135 19.7664 16.3049C19.7755 16.3258 20.7217 18.5463 23.3912 19.9206C23.6129 20.0352 23.7011 20.306 23.5893 20.5287L21.5088 24.6652C21.497 24.6889 21.4824 24.7116 21.467 24.7334C21.4442 24.7661 21.3724 24.9006 21.3924 25.0115C21.4061 25.0842 21.4642 25.157 21.5679 25.2279C21.7751 25.3696 21.8269 25.6532 21.6851 25.8596C21.5988 25.9877 21.457 26.0568 21.3115 26.0568Z" fill="white"/>
<path d="M19.3483 25.5079C18.6648 25.5079 17.9813 25.2825 17.3314 24.8326C17.1251 24.6899 17.0733 24.4063 17.216 24.2C17.3587 23.9936 17.6423 23.9418 17.8486 24.0845C18.8293 24.7635 19.8664 24.7635 20.8481 24.0845C21.0544 23.9418 21.3371 23.9936 21.4807 24.2C21.6234 24.4063 21.5716 24.6899 21.3652 24.8326C20.7144 25.2825 20.0318 25.5079 19.3483 25.5079Z" fill="white"/>
<path d="M19.2628 40H7.99487C7.744 40 7.54041 39.7964 7.54041 39.5455C7.54041 35.1591 8.0385 33.8129 11.5379 32.6986C11.7415 32.6341 11.9623 32.7195 12.0696 32.904L13.6293 35.6044L15.189 32.904C15.2963 32.7186 15.5171 32.6332 15.7207 32.6986C19.221 33.8129 19.7182 35.1591 19.7182 39.5455C19.7173 39.7964 19.5137 40 19.2628 40ZM8.45115 39.0911H18.8065C18.7747 35.3854 18.3039 34.5319 15.7907 33.6784L14.022 36.7415C13.9411 36.8824 13.7911 36.9687 13.6284 36.9687C13.4657 36.9687 13.3157 36.8824 13.2348 36.7415L11.4661 33.6784C8.95378 34.5319 8.48296 35.3854 8.45115 39.0911Z" fill="white"/>
<path d="M11.676 33.5859C11.4252 33.5859 11.2216 33.3823 11.2216 33.1315V31.3763C11.2216 31.1255 11.4252 30.9219 11.676 30.9219C11.9269 30.9219 12.1305 31.1255 12.1305 31.3763V33.1315C12.1305 33.3823 11.9269 33.5859 11.676 33.5859Z" fill="white"/>
<path d="M15.5698 33.5855C15.319 33.5855 15.1154 33.3819 15.1154 33.131V31.4613C15.1154 31.2104 15.319 31.0068 15.5698 31.0068C15.8207 31.0068 16.0243 31.2104 16.0243 31.4613V33.131C16.0243 33.3819 15.8207 33.5855 15.5698 33.5855Z" fill="white"/>
<path d="M13.6629 32.6683C13.6611 32.6683 13.6602 32.6683 13.6584 32.6683C11.9941 32.6655 10.1754 31.3449 10.1145 28.4509C10.109 28.2 10.3081 27.9918 10.559 27.9873H10.569C10.8153 27.9873 11.018 28.1845 11.0234 28.4318C11.0716 30.7159 12.4241 31.7575 13.6602 31.7593H13.6638C14.8973 31.7593 16.2488 30.7241 16.3034 28.4499C16.3097 28.2027 16.5115 28.0064 16.7578 28.0064H16.7687C17.0196 28.0128 17.2177 28.2209 17.2123 28.4718C17.1414 31.3558 15.3235 32.6683 13.6629 32.6683Z" fill="white"/>
<path d="M16.757 28.9158C16.7434 28.9158 16.7306 28.9149 16.717 28.914C16.508 28.8958 16.338 28.7358 16.3071 28.5286C16.1389 27.397 15.6754 26.7907 15.3336 26.4871C14.7964 27.4052 13.5176 27.4433 12.5423 27.4715C11.9433 27.4888 11.1971 27.5106 11.0162 27.7515C10.9199 27.8787 10.959 28.1359 11.009 28.3286C11.0599 28.5268 10.9726 28.734 10.7954 28.8358C10.6181 28.9376 10.3945 28.9085 10.2491 28.7649C8.96205 27.4897 8.74118 26.0463 9.64284 24.8047C10.9253 23.0378 14.0475 22.2634 15.9453 23.2405C16.9133 23.7386 18.3613 25.0983 17.1878 28.6059C17.1251 28.7922 16.9506 28.9158 16.757 28.9158ZM14.0166 23.724C12.6468 23.724 11.0989 24.3457 10.3782 25.3383C9.93551 25.9482 9.89188 26.6053 10.2418 27.2743C10.2573 27.2506 10.2736 27.227 10.29 27.2043C10.7335 26.6144 11.5988 26.5899 12.516 26.5626C13.7612 26.5262 14.5265 26.4508 14.6556 25.7173C14.6792 25.5837 14.761 25.4682 14.8782 25.401C14.9955 25.3337 15.1373 25.3228 15.2645 25.371C15.3109 25.3883 16.1089 25.7046 16.687 26.7689C16.8106 25.6673 16.5907 24.5939 15.5299 24.0476C15.0982 23.8267 14.5719 23.724 14.0166 23.724Z" fill="white"/>
<path d="M10.6307 40.0004C10.3799 40.0004 10.1763 39.7968 10.1763 39.5459V36.5101C10.1763 36.2593 10.3799 36.0557 10.6307 36.0557C10.8816 36.0557 11.0852 36.2593 11.0852 36.5101V39.5459C11.0852 39.7968 10.8816 40.0004 10.6307 40.0004Z" fill="white"/>
<path d="M16.6269 40.0004C16.3761 40.0004 16.1725 39.7968 16.1725 39.5459V36.5101C16.1725 36.2593 16.3761 36.0557 16.6269 36.0557C16.8778 36.0557 17.0814 36.2593 17.0814 36.5101V39.5459C17.0814 39.7968 16.8778 40.0004 16.6269 40.0004Z" fill="white"/>
<path d="M26.9533 10.1769C26.9442 10.1769 26.9342 10.1769 26.9251 10.176C26.5597 10.1533 25.7153 10.1396 24.6455 10.1233C21.8742 10.0797 17.2351 10.006 13.2503 9.66428C6.53883 9.08893 5.48811 8.06548 5.32269 7.23835L4.80187 4.63246C4.77551 4.49885 4.81005 4.3607 4.89549 4.25526C4.98093 4.14982 5.11091 4.08893 5.24634 4.08893L24.631 4.06348H24.6319C25.3781 4.06348 26.757 5.53048 27.0251 5.82497C27.6523 6.51121 28.7039 7.81825 28.7057 8.85533C28.7057 9.25162 28.5366 10.1742 26.9533 10.1769ZM6.21344 7.0593C6.2507 7.24381 6.76697 8.19454 13.3276 8.75808C17.2814 9.09711 21.8997 9.17073 24.6592 9.21436C25.7681 9.23163 26.5734 9.24435 26.966 9.26798C27.7568 9.26344 27.7841 9.00258 27.7931 8.91623C27.8422 8.45541 27.3287 7.54012 26.4861 6.58484C25.6217 5.60501 24.8291 5.02966 24.6128 4.9724L5.80078 4.99694L6.21344 7.0593Z" fill="white"/>
<path d="M5.24719 5C4.99542 5 4.79272 4.79549 4.79272 4.54463L4.79818 0.45719C4.79818 0.206326 5.00178 0.0036357 5.25173 0.0036357L7.88762 0H7.88852C8.06667 0 8.22846 0.104526 8.30209 0.267224L10.1545 4.35194C10.2581 4.58099 10.1572 4.85003 9.92815 4.95364C9.6991 5.05726 9.43006 4.95637 9.32645 4.72732L7.59585 0.909835L5.7062 0.912561L5.70074 4.54645C5.70074 4.7964 5.49805 5 5.24719 5Z" fill="white"/>
<path d="M21.2498 7.61666C20.9989 7.61666 20.7953 7.41397 20.7953 7.16311C20.7953 6.91225 20.998 6.70865 21.2488 6.70774L23.7284 6.7041H23.7293C23.9802 6.7041 24.1838 6.90679 24.1838 7.15766C24.1838 7.40852 23.9811 7.61212 23.7302 7.61303L21.2498 7.61666C21.2507 7.61666 21.2507 7.61666 21.2498 7.61666Z" fill="white"/>
<path d="M14.8409 13.9842H12.116C11.9614 13.9842 11.8169 13.9051 11.7333 13.7751C11.6497 13.6451 11.6379 13.4815 11.7024 13.3406L13.6448 9.08415C13.7493 8.85601 14.0183 8.75512 14.2474 8.85964C14.4755 8.96417 14.5764 9.23321 14.4719 9.46226L12.8231 13.0752H14.6509L18.473 9.21049C18.6493 9.03234 18.9374 9.03052 19.1156 9.20685C19.2937 9.38318 19.2956 9.67131 19.1192 9.84946L15.1645 13.8496C15.0791 13.9351 14.9627 13.9842 14.8409 13.9842Z" fill="white"/>
<path d="M13.9766 4.98664C13.8039 4.98664 13.6394 4.88756 13.563 4.72123L11.7034 0.647426C11.6388 0.506542 11.6507 0.342936 11.7343 0.212959C11.8179 0.0829828 11.9615 0.00390625 12.1169 0.00390625H14.8419C14.9637 0.00390625 15.08 0.0520793 15.1655 0.138427L19.1875 4.20587C19.3638 4.38402 19.362 4.67215 19.1838 4.84848C19.0057 5.02481 18.7175 5.02299 18.5412 4.84484L14.6528 0.911923H12.825L14.3911 4.34312C14.4956 4.57126 14.3947 4.84121 14.1666 4.94574C14.1038 4.973 14.0393 4.98664 13.9766 4.98664Z" fill="white"/>
</svg>
