<svg width="36" height="36" viewBox="0 0 36 36" fill="none" xmlns="http://www.w3.org/2000/svg">
<g clip-path="url(#clip0_515_7888)">
<path fill-rule="evenodd" clip-rule="evenodd" d="M10.544 4.59021V5.54273C10.544 5.6861 10.494 5.81574 10.3924 5.9212C10.2886 6.02502 10.159 6.07666 10.0134 6.07666C9.86591 6.07666 9.73627 6.02475 9.63052 5.92313C9.52478 5.81958 9.47314 5.69022 9.47314 5.54273V2.73737C9.47314 2.59207 9.53082 2.46463 9.63052 2.36081C9.73434 2.25342 9.86371 2.19354 10.0134 2.19354C10.1609 2.19354 10.2886 2.2493 10.3902 2.35504C10.4921 2.46051 10.544 2.59207 10.544 2.73737V3.5921H11.7564V2.73737C11.7564 2.59207 11.8143 2.46463 11.914 2.36081C12.0179 2.25534 12.1436 2.19354 12.2931 2.19354C12.4386 2.19354 12.5663 2.24738 12.6699 2.35092C12.7756 2.45667 12.8275 2.58823 12.8275 2.73764V5.54273C12.8275 5.68637 12.7737 5.81189 12.674 5.91544C12.5724 6.02283 12.4406 6.07666 12.2931 6.07666C12.1453 6.07666 12.0159 6.02502 11.9121 5.92148C11.8086 5.81766 11.7567 5.68829 11.7567 5.54273V4.59021H10.544ZM13.4496 4.12219C13.4496 3.5921 13.6032 3.11008 13.9723 2.72144C14.3332 2.34103 14.79 2.16772 15.3124 2.16772C15.8351 2.16772 16.2877 2.34488 16.6467 2.72748C17.0117 3.11804 17.1671 3.60007 17.1671 4.13208C17.1671 4.66217 17.0098 5.14227 16.6467 5.53284C16.2877 5.91736 15.8331 6.09671 15.3085 6.09671C14.7859 6.09671 14.3332 5.91928 13.9742 5.53888C13.6032 5.14612 13.4496 4.65805 13.4496 4.12219ZM18.3899 3.22955H18.0029C17.8733 3.22955 17.7596 3.17792 17.6656 3.0881C17.564 2.99252 17.5162 2.86893 17.5162 2.72748C17.5162 2.59619 17.5662 2.47836 17.6558 2.38278C17.7516 2.28336 17.8714 2.23145 18.0068 2.23145H19.8418C19.9794 2.23145 20.0988 2.28336 20.1947 2.38086C20.2903 2.48056 20.3403 2.60196 20.3403 2.73737C20.3403 2.87305 20.2884 2.99252 20.1928 3.0881C20.0969 3.18369 19.9772 3.2356 19.8418 3.2356H19.4608V5.53668C19.4608 5.68225 19.407 5.80969 19.3073 5.91324C19.2057 6.01706 19.0799 6.07282 18.9343 6.07282C18.7887 6.07282 18.661 6.01486 18.5533 5.91928L18.5495 5.91736L18.5473 5.91324C18.4438 5.81162 18.3899 5.68225 18.3899 5.53668V3.22955ZM22.1451 4.98682H22.9031C23.0407 4.98682 23.1602 5.03873 23.258 5.13239L23.2599 5.13431C23.3058 5.18018 23.3417 5.22989 23.3676 5.28757C23.3956 5.35156 23.4096 5.41913 23.4096 5.48889C23.4096 5.6243 23.3596 5.74185 23.2618 5.83771C23.164 5.93329 23.0404 5.97916 22.9028 5.97916H21.6147C21.4672 5.97916 21.3334 5.92917 21.2277 5.82562C21.1219 5.71988 21.0681 5.58859 21.0681 5.43918V2.72748C21.0681 2.58218 21.1241 2.45447 21.2258 2.349C21.3296 2.23941 21.459 2.18365 21.6086 2.18365H22.8789C23.0146 2.18365 23.1322 2.23337 23.228 2.33115C23.3217 2.42673 23.3695 2.5462 23.3695 2.67969C23.3695 2.81317 23.3198 2.93073 23.2341 3.03043L23.2261 3.03839C23.1324 3.13177 23.0127 3.18561 22.8792 3.18561H22.1412V3.57809H22.7913C22.9308 3.57809 23.0547 3.62808 23.1544 3.72559C23.2481 3.82117 23.3019 3.93872 23.3019 4.0744C23.3019 4.20981 23.2519 4.32928 23.1563 4.42487C23.0566 4.52457 22.9308 4.57043 22.7913 4.57043H22.1451V4.98682ZM25.2844 4.9827H26.0224C26.1559 4.9827 26.2754 5.03076 26.3751 5.1203L26.3773 5.12222L26.3792 5.12634C26.425 5.17001 26.4591 5.22192 26.4868 5.27768C26.5149 5.3414 26.5289 5.40924 26.5289 5.479C26.5289 5.61441 26.477 5.73389 26.3792 5.83167C26.3352 5.87534 26.2833 5.91132 26.2276 5.93713C26.1638 5.96707 26.096 5.97888 26.0262 5.97888H24.7477C24.5983 5.97888 24.4687 5.91928 24.3648 5.81162C24.2632 5.70395 24.2075 5.57459 24.2075 5.42517V2.67969C24.2075 2.53412 24.2613 2.40475 24.3648 2.30313C24.4687 2.19931 24.5964 2.14355 24.7439 2.14355C24.8875 2.14355 25.0152 2.19931 25.1188 2.30121C25.2245 2.40256 25.2844 2.5322 25.2844 2.67969V4.9827ZM15.3085 3.16199C15.0891 3.16199 14.9158 3.24548 14.776 3.41495C14.6084 3.616 14.5565 3.87308 14.5565 4.12824C14.5565 4.38504 14.6046 4.65201 14.7699 4.85938C14.9078 5.03461 15.0852 5.11426 15.3085 5.11426C15.5299 5.11426 15.7073 5.03076 15.8449 4.85745C16.0086 4.65201 16.0603 4.3952 16.0603 4.13812C16.0603 3.88104 16.0106 3.62012 15.8471 3.41495C15.7093 3.24164 15.5318 3.16199 15.3085 3.16199Z" fill="#252525"/>
<path d="M32.6516 32.2567H32.3078V10.5653H32.6516C33.6838 10.5653 34.5234 9.7262 34.5234 8.69458C34.5234 7.66214 33.6838 6.82196 32.6516 6.82196H30.1718V0.709168C30.1718 0.317505 29.8542 0 29.4626 0H6.53934C6.14767 0 5.83017 0.317505 5.83017 0.709168V6.82196H3.34836C2.31619 6.82196 1.47656 7.66214 1.47656 8.69458C1.47656 9.72592 2.31619 10.5653 3.34836 10.5653H3.69223V32.2567H3.34836C2.31619 32.2567 1.47656 33.0958 1.47656 34.1274C1.47656 35.1598 2.31619 36 3.34836 36H32.6516C33.6838 36 34.5234 35.1598 34.5234 34.1274C34.5234 33.0958 33.6838 32.2567 32.6516 32.2567ZM20.732 26.2213V32.2567H18.71V26.2213H20.732ZM17.2919 32.2567H15.2677V26.2213H17.2919V32.2567ZM7.2485 1.41833H28.7534V6.82196H7.2485V1.41833ZM15.1908 10.5653C15.5825 10.5653 15.9 10.2478 15.9 9.85611C15.9 9.46445 15.5825 9.14722 15.1908 9.14722H3.34836C3.09814 9.14722 2.89462 8.94397 2.89462 8.69458C2.89462 8.44409 3.09814 8.24002 3.34836 8.24002H32.6516C32.8977 8.24002 33.1054 8.44821 33.1054 8.69458C33.1054 8.94397 32.9019 9.14722 32.6516 9.14722H20.8089C20.4175 9.14722 20.1 9.46445 20.1 9.85611C20.1 10.2478 20.4175 10.5653 20.8089 10.5653H30.8894V32.2567H22.1504V25.5125C22.1504 25.1208 21.8329 24.8033 21.4412 24.8033H14.5585C14.1669 24.8033 13.8496 25.1208 13.8496 25.5125V32.2567H5.11057V10.5653H15.1908ZM32.6516 34.5819H3.34836C3.09814 34.5819 2.89462 34.3779 2.89462 34.1274C2.89462 33.878 3.09814 33.675 3.34836 33.675H32.6516C32.9019 33.675 33.1054 33.878 33.1054 34.1274C33.1054 34.3737 32.8977 34.5819 32.6516 34.5819Z" fill="#252525"/>
<path d="M7.35098 16.6742H10.7713C11.163 16.6742 11.4805 16.3567 11.4805 15.965V12.5461C11.4805 12.1544 11.163 11.8369 10.7713 11.8369H7.35098C6.95932 11.8369 6.64209 12.1544 6.64209 12.5461V15.965C6.64209 16.3567 6.95932 16.6742 7.35098 16.6742ZM8.06015 13.2552H10.0624V15.2559H8.06015V13.2552Z" fill="#252525"/>
<path d="M13.4079 16.6742H16.8301C17.2218 16.6742 17.5393 16.3567 17.5393 15.965V12.5461C17.5393 12.1544 17.2218 11.8369 16.8301 11.8369H13.4079C13.0162 11.8369 12.6987 12.1544 12.6987 12.5461V15.965C12.6987 16.3567 13.0162 16.6742 13.4079 16.6742ZM14.1168 13.2552H16.121V15.2559H14.1168V13.2552Z" fill="#252525"/>
<path d="M7.35098 22.5092H10.7713C11.163 22.5092 11.4805 22.1917 11.4805 21.8V18.381C11.4805 17.9894 11.163 17.6719 10.7713 17.6719H7.35098C6.95932 17.6719 6.64209 17.9894 6.64209 18.381V21.8C6.64209 22.1917 6.95932 22.5092 7.35098 22.5092ZM8.06015 19.0902H10.0624V21.0908H8.06015V19.0902Z" fill="#252525"/>
<path d="M13.4079 22.5092H16.8301C17.2218 22.5092 17.5393 22.1917 17.5393 21.8V18.381C17.5393 17.9894 17.2218 17.6719 16.8301 17.6719H13.4079C13.0162 17.6719 12.6987 17.9894 12.6987 18.381V21.8C12.6987 22.1917 13.0162 22.5092 13.4079 22.5092ZM14.1168 19.0902H16.121V21.0908H14.1168V19.0902Z" fill="#252525"/>
<path d="M19.4667 16.6742H22.8892C23.2809 16.6742 23.5981 16.3567 23.5981 15.965V12.5461C23.5981 12.1544 23.2809 11.8369 22.8892 11.8369H19.4667C19.075 11.8369 18.7578 12.1544 18.7578 12.5461V15.965C18.7578 16.3567 19.0753 16.6742 19.4667 16.6742ZM20.1759 13.2552H22.1801V15.2559H20.1759V13.2552Z" fill="#252525"/>
<path d="M25.5255 16.6742H28.9461C29.3375 16.6742 29.655 16.3567 29.655 15.965V12.5461C29.655 12.1544 29.3375 11.8369 28.9461 11.8369H25.5255C25.1342 11.8369 24.8167 12.1544 24.8167 12.5461V15.965C24.8167 16.3567 25.1342 16.6742 25.5255 16.6742ZM26.2347 13.2552H28.237V15.2559H26.2347V13.2552Z" fill="#252525"/>
<path d="M19.4667 22.5092H22.8892C23.2809 22.5092 23.5981 22.1917 23.5981 21.8V18.381C23.5981 17.9894 23.2809 17.6719 22.8892 17.6719H19.4667C19.075 17.6719 18.7578 17.9894 18.7578 18.381V21.8C18.7578 22.1917 19.0753 22.5092 19.4667 22.5092ZM20.1759 19.0902H22.1801V21.0908H20.1759V19.0902Z" fill="#252525"/>
<path d="M25.5255 22.5092H28.9461C29.3375 22.5092 29.655 22.1917 29.655 21.8V18.381C29.655 17.9894 29.3375 17.6719 28.9461 17.6719H25.5255C25.1342 17.6719 24.8167 17.9894 24.8167 18.381V21.8C24.8167 22.1917 25.1342 22.5092 25.5255 22.5092ZM26.2347 19.0902H28.237V21.0908H26.2347V19.0902Z" fill="#252525"/>
<path d="M6.79657 29.6407H12.0736C12.4652 29.6407 12.7827 29.3232 12.7827 28.9315V25.5129C12.7827 25.1212 12.4652 24.8037 12.0736 24.8037H6.79657C6.40491 24.8037 6.0874 25.1212 6.0874 25.5129V28.9315C6.0874 29.3232 6.40491 29.6407 6.79657 29.6407ZM7.50546 26.2218H11.3647V28.2227H7.50546V26.2218Z" fill="#252525"/>
<path d="M23.217 25.5126V28.9315C23.217 29.3232 23.5345 29.6407 23.9262 29.6407H29.2032C29.5949 29.6407 29.9124 29.3232 29.9124 28.9315V25.5126C29.9124 25.1209 29.5949 24.8037 29.2032 24.8037H23.9262C23.5345 24.8037 23.217 25.1212 23.217 25.5126ZM24.6351 26.2218H28.4943V28.2227H24.6351V26.2218Z" fill="#252525"/>
<path d="M18.0012 10.5655H18.013C18.4046 10.5655 18.7221 10.248 18.7221 9.85635C18.7221 9.46469 18.4046 9.14746 18.013 9.14746H18.0012C17.6095 9.14746 17.292 9.46469 17.292 9.85635C17.292 10.248 17.6095 10.5655 18.0012 10.5655Z" fill="#252525"/>
</g>
<defs>
<clipPath id="clip0_515_7888">
<rect width="36" height="36" fill="white"/>
</clipPath>
</defs>
</svg>
