<svg width="36" height="36" viewBox="0 0 36 36" fill="none" xmlns="http://www.w3.org/2000/svg">
<path d="M6.75 10.6875C6.36258 10.6875 6.04688 11.0024 6.04688 11.3906C6.04688 11.778 6.36258 12.0938 6.75 12.0938C7.13742 12.0938 7.45312 11.778 7.45312 11.3906C7.45312 11.0024 7.13742 10.6875 6.75 10.6875Z" fill="#252525"/>
<path d="M29.25 12.0938C29.6374 12.0938 29.9531 11.778 29.9531 11.3906C29.9531 11.0024 29.6374 10.6875 29.25 10.6875C28.8626 10.6875 28.5469 11.0024 28.5469 11.3906C28.5469 11.778 28.8626 12.0938 29.25 12.0938Z" fill="#252525"/>
<path d="M7.45312 33.1875H13.7812C14.1696 33.1875 14.4844 32.8726 14.4844 32.4844V30.7266C14.4844 28.5942 12.7496 26.8594 10.6172 26.8594C8.48482 26.8594 6.75 28.5942 6.75 30.7266V32.4844C6.75 32.8726 7.06479 33.1875 7.45312 33.1875ZM11.3203 28.3685C12.3356 28.6718 13.0781 29.6139 13.0781 30.7266V31.7812H11.3203V28.3685ZM8.15625 30.7266C8.15625 29.6139 8.89875 28.6718 9.91406 28.3685V31.7812H8.15625V30.7266Z" fill="#252525"/>
<path d="M7.45312 22.6406H13.7812C14.1696 22.6406 14.4844 22.3258 14.4844 21.9375V20.1797C14.4844 18.0473 12.7496 16.3125 10.6172 16.3125C8.48482 16.3125 6.75 18.0473 6.75 20.1797V21.9375C6.75 22.3258 7.06479 22.6406 7.45312 22.6406ZM11.3203 17.8216C12.3356 18.1249 13.0781 19.067 13.0781 20.1797V21.2344H11.3203V17.8216ZM8.15625 20.1797C8.15625 19.0671 8.89875 18.1249 9.91406 17.8216V21.2344H8.15625V20.1797Z" fill="#252525"/>
<path d="M22.2188 22.6406H28.5469C28.9352 22.6406 29.25 22.3258 29.25 21.9375V20.1797C29.25 18.0473 27.5152 16.3125 25.3828 16.3125C23.2504 16.3125 21.5156 18.0473 21.5156 20.1797V21.9375C21.5156 22.3258 21.8304 22.6406 22.2188 22.6406ZM26.0859 17.8216C27.1013 18.1249 27.8438 19.067 27.8438 20.1797V21.2344H26.0859V17.8216ZM22.9219 20.1797C22.9219 19.0671 23.6644 18.1249 24.6797 17.8216V21.2344H22.9219V20.1797Z" fill="#252525"/>
<path d="M35.5709 7.37559L18.274 0.0556348C18.0989 -0.0185449 17.9011 -0.0185449 17.7259 0.0556348L0.429047 7.37559C0.168961 7.4857 0 7.74072 0 8.0231V11.0391C0 11.274 0.117281 11.4933 0.312609 11.6237C0.507937 11.7542 0.755508 11.7786 0.972422 11.6886L2.53125 11.0422V14.2031V35.2969C2.53125 35.6852 2.84604 36 3.23438 36H32.7656C33.154 36 33.4688 35.6852 33.4688 35.2969V14.2031V11.0422L35.0276 11.6886C35.1142 11.7245 35.2057 11.7422 35.2968 11.7422C35.4339 11.7422 35.5701 11.7022 35.6874 11.6237C35.8827 11.4933 36 11.274 36 11.0391V8.0231C36 7.74072 35.831 7.4857 35.5709 7.37559ZM17.2969 32.4844V34.5938H3.9375V25.4531H17.2969V32.4844ZM17.2969 24.0469H3.9375V14.9063H17.2969V24.0469ZM23.625 13.5H12.375V11.3906C12.375 10.2275 13.3213 9.28127 14.4844 9.28127H21.5156C22.6787 9.28127 23.625 10.2275 23.625 11.3906V13.5ZM24.3281 34.5938H18.7031V33.1875H24.3281V34.5938ZM28.5469 34.5938H25.7344V28.2656H28.5469V34.5938ZM32.0625 34.5938H29.9531V33.1875H32.0625V34.5938ZM32.0625 31.7813H29.9531V27.5625C29.9531 27.1743 29.6383 26.8594 29.25 26.8594H25.0312C24.6429 26.8594 24.3281 27.1743 24.3281 27.5625V31.7813H18.7031V25.4531H32.0625V31.7813ZM32.0625 24.0469H18.7031V14.9063H32.0625V24.0469ZM32.0625 13.5H25.0312V12.0938H26.4375C26.8249 12.0938 27.1406 11.7781 27.1406 11.3906C27.1406 11.0024 26.8249 10.6875 26.4375 10.6875H24.9605C24.6338 9.08474 23.2135 7.87502 21.5156 7.87502H14.4844C12.7866 7.87502 11.3662 9.08474 11.0395 10.6875H9.5625C9.17508 10.6875 8.85938 11.0024 8.85938 11.3906C8.85938 11.7781 9.17508 12.0938 9.5625 12.0938H10.9688V13.5H3.9375V10.4591L18 4.62834L32.0625 10.4591V13.5ZM34.5938 9.98636L18.2693 3.21773C18.1831 3.18194 18.0915 3.16408 18 3.16408C17.9085 3.16408 17.8169 3.18194 17.7307 3.21773L1.40625 9.98636V8.48906L18 1.4666L34.5938 8.48906V9.98636Z" fill="#252525"/>
</svg>
