<svg width="30" height="40" viewBox="0 0 30 40" fill="none" xmlns="http://www.w3.org/2000/svg">
<path d="M3.125 14.8438C3.125 21.3056 8.38197 26.5625 14.8438 26.5625C21.3056 26.5625 26.5625 21.3056 26.5625 14.8438C26.5625 8.38197 21.3056 3.125 14.8438 3.125C8.38197 3.125 3.125 8.38197 3.125 14.8438ZM14.8438 4.6875C20.4441 4.6875 25 9.24348 25 14.8438C25 20.4441 20.4441 25 14.8438 25C9.24348 25 4.6875 20.4441 4.6875 14.8438C4.6875 9.24348 9.24348 4.6875 14.8438 4.6875Z" fill="#020202"/>
<path d="M7.60872 13.4512L10.637 16.4349L9.94026 20.6283C9.89174 20.9204 10.0123 21.2146 10.2518 21.3885C10.4911 21.5625 10.8082 21.586 11.0709 21.4499L14.8438 19.4906L18.6164 21.4499C18.877 21.585 19.1941 21.564 19.4355 21.3885C19.6751 21.2146 19.7956 20.9204 19.7471 20.6283L19.0504 16.4349L22.0786 13.4512C22.2895 13.2437 22.3649 12.9348 22.2734 12.6531C22.1818 12.3718 21.9392 12.1664 21.6465 12.1221L17.4439 11.4895L15.5424 7.68671C15.4102 7.42212 15.1396 7.25488 14.8438 7.25488C14.5478 7.25488 14.2774 7.42212 14.145 7.68671L12.2434 11.4895L8.04085 12.1221C7.74818 12.1661 7.50557 12.3718 7.41401 12.6531C7.32246 12.9348 7.39814 13.2437 7.60872 13.4512ZM12.8773 12.9742C13.1287 12.9363 13.346 12.7786 13.4599 12.5512L14.8438 9.78296L16.2278 12.5512C16.3416 12.7786 16.5589 12.9363 16.8104 12.9742L19.8692 13.4347L17.6649 15.606C17.4839 15.7846 17.4009 16.04 17.4424 16.2908L17.9496 19.3429L15.2036 17.9171C15.091 17.8585 14.9674 17.8292 14.8438 17.8292C14.7202 17.8292 14.5966 17.8585 14.4837 17.9171L11.7378 19.3429L12.245 16.2908C12.2868 16.04 12.2038 15.7846 12.0225 15.606L9.8185 13.4347L12.8773 12.9742Z" fill="#020202"/>
<path d="M15.625 0.781251C15.625 1.21277 15.2753 1.5625 14.8438 1.5625C14.4122 1.5625 14.0625 1.21277 14.0625 0.781251C14.0625 0.349732 14.4122 0 14.8438 0C15.2753 0 15.625 0.349732 15.625 0.781251Z" fill="#020202"/>
<path d="M11.1618 0.460046C4.58985 2.1376 0 8.05222 0 14.8433C0 19.0611 1.77338 23.0355 4.88648 25.8501L0.179749 34.1451C0.0283814 34.4121 0.0473023 34.7429 0.227967 34.9907C0.408631 35.2388 0.717469 35.3582 1.01807 35.2956L6.36323 34.1857L8.24189 39.4796C8.34382 39.7677 8.60475 39.9694 8.90932 39.9965C9.21388 40.0237 9.50593 39.8702 9.657 39.6044L14.8438 30.4857L20.0302 39.6044C20.17 39.8501 20.43 39.9993 20.709 39.9993C20.7318 39.9993 20.755 39.9984 20.7779 39.9965C21.0825 39.9694 21.3434 39.7674 21.4457 39.4796L23.324 34.1857L28.6692 35.2956C28.9695 35.3579 29.2786 35.2385 29.4593 34.9907C29.6402 34.7429 29.6589 34.4121 29.5075 34.1451L24.8008 25.8501C27.9139 23.0355 29.6872 19.0611 29.6872 14.8433C29.6872 8.05222 25.0974 2.1376 18.5257 0.460046C18.1073 0.353234 17.6822 0.605615 17.5754 1.02371C17.4686 1.4418 17.721 1.86721 18.1391 1.97403C24.0186 3.47488 28.125 8.76694 28.125 14.8433C28.125 22.2386 22.1189 28.1246 14.8438 28.1246C7.56349 28.1246 1.5625 22.2338 1.5625 14.8433C1.5625 8.76694 5.66865 3.47488 11.5482 1.97403C11.9663 1.86721 12.2186 1.4418 12.1121 1.02371C12.0053 0.605615 11.5802 0.353234 11.1618 0.460046ZM9.14339 37.3476L7.60804 33.0211C7.47743 32.6531 7.09535 32.4379 6.71296 32.5173L2.39075 33.4148L6.11573 26.8499C8.28767 28.4288 10.8594 29.3908 13.5337 29.6288L9.14339 37.3476ZM22.9743 32.5173C22.5922 32.4379 22.2098 32.6531 22.0792 33.0211L20.5442 37.3476L16.1536 29.6288C18.8282 29.3908 21.3996 28.4288 23.5718 26.8499L27.2968 33.4148L22.9743 32.5173Z" fill="#020202"/>
</svg>
