<svg width="40" height="40" viewBox="0 0 40 40" fill="none" xmlns="http://www.w3.org/2000/svg">
<path fill-rule="evenodd" clip-rule="evenodd" d="M23.1151 9.70227C22.937 9.70227 22.7657 9.62949 22.638 9.49501C22.5315 9.38297 22.4655 9.25088 22.3445 9.01109C22.1317 8.58774 21.7352 7.79805 20.9153 6.75973C20.5759 6.32966 20.4393 6.18291 20.3429 6.08776C20.2679 6.01386 20.0764 5.83465 19.8008 5.63188C19.5925 5.87721 19.3539 6.0844 19.0873 6.25015C18.2954 6.7441 17.517 6.72503 16.8909 6.71051L16.8472 6.70939C16.8281 6.70939 14.9173 6.66571 12.8777 6.80685C11.4339 6.90655 11.0106 7.08233 10.7014 7.25263C10.4203 7.40829 9.89724 7.6973 9.6564 8.23269C9.55221 8.46343 9.52199 8.68962 9.49626 8.87107C9.4828 8.9719 9.47046 9.05926 9.44697 9.14655C9.34503 9.52068 9.05826 9.67521 8.82422 9.69421C8.68308 9.70655 8.33027 9.68635 8.09062 9.2473C8.03018 9.13645 7.97185 8.99195 7.91814 8.81947C7.81956 8.50585 7.74005 8.11377 7.69974 7.74308C7.54857 6.37095 7.91253 5.24647 8.14215 4.69874C8.29108 4.34368 8.73917 3.42077 9.67547 2.51462C11.2973 0.94765 13.235 0.545547 14.5175 0.278974C15.5872 0.0572042 16.3354 0.0247415 17.2762 0.00349702C18.0088 -0.0133303 18.8745 0.0180807 19.7504 0.38092C20.1984 0.56567 20.5255 0.786388 20.7809 1.0754C20.9758 1.29717 21.0541 1.47084 21.1448 1.67129C21.1919 1.77436 21.2445 1.89194 21.3296 2.05545C21.5424 2.45979 21.6712 2.70505 21.884 2.9257C21.9802 3.0254 22.0173 3.04672 22.1539 3.12728C22.2995 3.21352 22.4989 3.33005 22.8304 3.57867C23.2382 3.88444 23.5081 4.08721 23.7993 4.43778C23.9853 4.66291 24.3739 5.13106 24.5274 5.82666C24.626 6.2702 24.5801 6.61965 24.5038 7.19879C24.4546 7.57291 24.2014 8.25947 24.1242 8.45999C23.7971 9.3191 23.6313 9.56772 23.32 9.66855C23.254 9.69112 23.1834 9.70227 23.1151 9.70227ZM19.6474 4.16587C19.9577 4.16587 20.2265 4.35406 20.3967 4.47283L20.4146 4.48517C20.8212 4.76738 21.1101 5.03283 21.2457 5.16619C21.3923 5.30957 21.5649 5.5 21.9289 5.96037C22.4397 6.60773 22.8014 7.16667 23.0613 7.6147C23.1464 7.36713 23.2124 7.14319 23.227 7.03114C23.2964 6.49688 23.3166 6.31767 23.2696 6.10487C23.1833 5.71392 22.9571 5.44181 22.8081 5.26147C22.6143 5.02736 22.4285 4.88854 22.0588 4.61068C21.7856 4.40566 21.6288 4.31269 21.5022 4.23879C21.3342 4.14021 21.1762 4.04731 20.9578 3.81993C20.6173 3.46712 20.4292 3.1087 20.1906 2.65506C20.0864 2.45678 20.0203 2.30898 19.9711 2.20142C19.896 2.03568 19.8803 2.00209 19.8154 1.92819C19.7337 1.83522 19.597 1.71196 19.2598 1.57201C18.6069 1.30208 17.9359 1.27852 17.3075 1.29205C16.4081 1.31217 15.7461 1.34134 14.7817 1.54067C13.5765 1.79049 11.9267 2.1332 10.5737 3.44139C9.78745 4.20191 9.42454 4.97695 9.33269 5.19655C9.18706 5.54263 8.97539 6.17772 8.95632 6.97183C9.06499 6.84976 9.18482 6.73323 9.31698 6.62463C9.61153 6.38049 9.90278 6.21916 10.0775 6.12282C10.6229 5.82035 11.2424 5.6255 12.7892 5.51802C14.8915 5.37239 16.799 5.41607 16.8786 5.41832L16.9234 5.41944C17.4465 5.43178 17.9415 5.44405 18.4042 5.15511C18.646 5.00394 18.8533 4.78891 19.0191 4.51553C19.1233 4.34305 19.2891 4.22428 19.4873 4.18172C19.5421 4.17029 19.5948 4.16587 19.6474 4.16587Z" fill="black"/>
<path fill-rule="evenodd" clip-rule="evenodd" d="M16.1337 20.4436C15.7002 20.4436 15.2075 20.4022 14.6766 20.2845C14.2039 20.1804 12.973 19.8309 11.7644 18.8408C11.1853 18.3659 10.1224 17.3186 9.51865 15.6385C9.35402 15.1804 9.24646 14.6876 9.18483 14.3505C8.76254 14.1612 8.37502 13.8756 8.04682 13.5093C7.62796 13.0412 7.33558 12.4744 7.2023 11.8707C6.93124 10.6431 7.34792 9.43787 8.34585 8.56649C8.61467 8.33238 9.02238 8.35924 9.25642 8.62812C9.49053 8.89694 9.46368 9.30465 9.19479 9.53869C8.32896 10.2947 8.36373 11.1505 8.46224 11.5929C8.63697 12.3836 9.23167 13.0535 9.94185 13.2596C10.1872 13.3312 10.3674 13.5395 10.401 13.7927C10.4503 14.1545 10.5657 14.7413 10.7326 15.204C11.2501 16.6443 12.1987 17.5303 12.5818 17.8451C13.5753 18.6583 14.5722 18.9428 14.9541 19.0278C16.0428 19.2675 16.94 19.1096 17.276 19.0301C18.1922 18.8138 18.8093 18.3882 19.0737 18.2068C19.2641 18.0757 19.7614 17.7061 20.2677 17.1068C20.999 16.241 21.5378 15.0638 21.829 13.7007C21.8839 13.442 22.0922 13.2426 22.3533 13.1989C22.6377 13.1507 22.948 12.9054 23.2034 12.5269C23.4811 12.1136 23.6615 11.5939 23.6973 11.1022C23.7354 10.5758 23.6302 9.89929 22.9088 9.66742C22.5695 9.55874 22.3835 9.19478 22.4922 8.85536C22.6009 8.51601 22.9649 8.33007 23.3043 8.43875C23.9158 8.63591 24.3918 9.02679 24.6797 9.57108C24.9228 10.0292 25.028 10.5903 24.9844 11.1941C24.9329 11.9031 24.6742 12.6513 24.2743 13.246C23.9215 13.7703 23.4813 14.1488 23.0053 14.3448C22.6525 15.7729 22.0645 16.9803 21.2546 17.939C20.67 18.6313 20.0965 19.0691 19.8064 19.2685C19.5106 19.4713 18.7255 20.0122 17.5741 20.2844C17.2638 20.3562 16.761 20.4436 16.1337 20.4436Z" fill="black"/>
<path fill-rule="evenodd" clip-rule="evenodd" d="M12.2752 22.9155C12.1789 22.9155 12.0814 22.8942 11.9885 22.8484C11.6693 22.6905 11.5383 22.3029 11.6973 21.9837C11.8956 21.5839 12.2316 20.7819 12.2551 19.9003C12.2641 19.5543 12.2193 19.3963 12.1453 19.1331C12.1252 19.0625 12.1028 18.9819 12.0792 18.8934C11.9907 18.5485 12.199 18.1967 12.5441 18.1082C12.889 18.0198 13.2408 18.2281 13.3293 18.5731C13.3483 18.6448 13.3673 18.7142 13.3864 18.7814C13.4715 19.0816 13.56 19.3919 13.5455 19.9339C13.5164 21.063 13.0997 22.062 12.8544 22.556C12.7412 22.7845 12.5126 22.9155 12.2752 22.9155Z" fill="black"/>
<path fill-rule="evenodd" clip-rule="evenodd" d="M20.0942 23.3388C19.8747 23.3388 19.6619 23.2268 19.5409 23.0263C19.1153 22.3184 18.6012 21.2073 18.5675 19.9349C18.5529 19.3917 18.6414 19.0815 18.7266 18.7824C18.7457 18.7152 18.7647 18.6468 18.7837 18.5741C18.8722 18.2291 19.2239 18.0207 19.5689 18.1092C19.914 18.1977 20.1223 18.5494 20.0338 18.8944C20.0114 18.9818 19.9879 19.0624 19.9677 19.1341C19.8938 19.3962 19.8479 19.5552 19.8579 19.9013C19.8837 20.8937 20.3014 21.7875 20.6464 22.3621C20.8301 22.6679 20.7315 23.0644 20.4257 23.247C20.3216 23.3086 20.2073 23.3388 20.0942 23.3388Z" fill="black"/>
<path fill-rule="evenodd" clip-rule="evenodd" d="M32.2759 39.0767H0.645404C0.290348 39.0767 0.00133901 38.7888 0.000287307 38.4338C-0.00644362 36.1847 0.0966236 30.5632 1.21781 26.9476C1.5158 25.9888 1.87639 25.2059 2.3524 24.4846C2.75225 23.8798 3.90598 22.3587 5.96683 21.3115C7.85528 20.3505 9.66197 20.2082 10.8447 20.2575C10.9993 20.2642 11.1472 20.3259 11.2592 20.4322L16.3252 25.1891L21.6713 20.4221C21.7821 20.3224 21.9244 20.2653 22.0745 20.2586C23.2572 20.2093 25.0628 20.3526 26.9524 21.3125C29.0133 22.3608 30.167 23.8808 30.5668 24.4856C31.0439 25.207 31.4046 25.9888 31.7014 26.9487C32.2167 28.6075 32.5751 30.8767 32.7677 33.6903C32.8719 35.2091 32.9245 36.8488 32.9189 38.4337C32.92 38.79 32.631 39.0767 32.2759 39.0767ZM16.4215 37.7864H31.6297C31.6207 36.4356 31.5703 35.0625 31.4818 33.7789C31.2959 31.0639 30.9553 28.8943 30.4703 27.3307C30.206 26.4805 29.9047 25.8219 29.4914 25.1969C29.1476 24.6771 28.1552 23.3701 26.3676 22.4617C24.8443 21.6866 23.3804 21.5242 22.3555 21.54L16.744 26.5432C16.4942 26.765 16.1168 26.7605 15.8726 26.532L10.5556 21.5388C9.53191 21.5253 8.07249 21.6877 6.55249 22.4605C4.76487 23.3689 3.77255 24.676 3.42864 25.1957C3.01532 25.8207 2.71404 26.4781 2.44971 27.3283C1.96474 28.8919 1.62419 31.0615 1.43825 33.7765C1.34977 35.0601 1.29936 36.4333 1.29038 37.7841L16.4215 37.7864Z" fill="black"/>
<path fill-rule="evenodd" clip-rule="evenodd" d="M6.76768 39.0765C6.4115 39.0765 6.12256 38.7875 6.12256 38.4314V30.9908C6.12256 30.6346 6.41157 30.3457 6.76768 30.3457C7.12378 30.3457 7.41279 30.6346 7.41279 30.9908V38.4314C7.41293 38.7875 7.12392 39.0765 6.76768 39.0765Z" fill="black"/>
<path fill-rule="evenodd" clip-rule="evenodd" d="M26.6734 39.0765C26.3173 39.0765 26.0283 38.7875 26.0283 38.4314V30.9908C26.0283 30.6346 26.3173 30.3457 26.6734 30.3457C27.0296 30.3457 27.3186 30.6346 27.3186 30.9908V38.4314C27.3186 38.7875 27.0296 39.0765 26.6734 39.0765Z" fill="black"/>
<path fill-rule="evenodd" clip-rule="evenodd" d="M29.2687 20.4595C28.9125 20.4595 28.6235 20.1705 28.6235 19.8144V1.51816C28.6235 1.16199 28.9125 0.873047 29.2687 0.873047C29.6248 0.873047 29.9138 1.16206 29.9138 1.51816V19.8144C29.9138 20.1705 29.6248 20.4595 29.2687 20.4595Z" fill="black"/>
<path fill-rule="evenodd" clip-rule="evenodd" d="M39.3548 11.529H29.2687C28.9125 11.529 28.6235 11.2401 28.6235 10.8839V3.10615C28.6235 2.85977 28.7636 2.63576 28.9842 2.52708C29.2048 2.41841 29.4681 2.44533 29.663 2.59544L39.7491 10.3731C39.9675 10.5411 40.0549 10.8312 39.9654 11.0922C39.8768 11.3532 39.6303 11.529 39.3548 11.529ZM29.9138 10.2387H37.4619L29.9138 4.41889V10.2387Z" fill="black"/>
<path fill-rule="evenodd" clip-rule="evenodd" d="M19.652 36.7425H12.9405C12.5843 36.7425 12.2954 36.4535 12.2954 36.0974V28.1998C12.2954 27.8436 12.5843 27.5547 12.9405 27.5547H19.652C20.0081 27.5547 20.2971 27.8436 20.2971 28.1998V36.0974C20.2971 36.4546 20.0093 36.7425 19.652 36.7425ZM13.5868 35.4522H19.0079V28.8449H13.5868V35.4522Z" fill="black"/>
<path fill-rule="evenodd" clip-rule="evenodd" d="M17.4712 30.8879H15.1224C14.7662 30.8879 14.4773 30.599 14.4773 30.2428C14.4773 29.8866 14.7662 29.5977 15.1224 29.5977H17.4712C17.8274 29.5977 18.1163 29.8866 18.1163 30.2428C18.1163 30.599 17.8274 30.8879 17.4712 30.8879Z" fill="black"/>
<path fill-rule="evenodd" clip-rule="evenodd" d="M17.4712 32.7941H15.1224C14.7662 32.7941 14.4773 32.5052 14.4773 32.149C14.4773 31.7928 14.7662 31.5039 15.1224 31.5039H17.4712C17.8274 31.5039 18.1163 31.7928 18.1163 32.149C18.1163 32.5052 17.8274 32.7941 17.4712 32.7941Z" fill="black"/>
<path fill-rule="evenodd" clip-rule="evenodd" d="M17.4712 34.7004H15.1224C14.7662 34.7004 14.4773 34.4115 14.4773 34.0553C14.4773 33.6991 14.7662 33.4102 15.1224 33.4102H17.4712C17.8274 33.4102 18.1163 33.6991 18.1163 34.0553C18.1163 34.4115 17.8274 34.7004 17.4712 34.7004Z" fill="black"/>
<path fill-rule="evenodd" clip-rule="evenodd" d="M12.9415 28.8456C12.722 28.8456 12.508 28.7335 12.3871 28.532L8.10849 21.396C7.92479 21.0902 8.02449 20.6937 8.33026 20.5111C8.63602 20.3274 9.03252 20.4271 9.21516 20.7328L13.4938 27.8687C13.6775 28.1745 13.5778 28.571 13.272 28.7537C13.1689 28.8165 13.0546 28.8456 12.9415 28.8456Z" fill="black"/>
<path fill-rule="evenodd" clip-rule="evenodd" d="M19.6518 28.8449C19.5387 28.8449 19.4244 28.8158 19.3202 28.7532C19.0145 28.5695 18.9159 28.174 19.0985 27.8682L23.3771 20.7323C23.5608 20.4266 23.9562 20.328 24.262 20.5106C24.5678 20.6943 24.6663 21.0896 24.4838 21.3955L20.2051 28.5314C20.0852 28.7329 19.8713 28.8449 19.6518 28.8449Z" fill="black"/>
</svg>
