<svg width="18" height="16" viewBox="0 0 18 16" fill="none" xmlns="http://www.w3.org/2000/svg">
<path d="M16.4788 1.63184C15.5585 0.633708 14.2958 0.0839844 12.9229 0.0839844C11.8967 0.0839844 10.9569 0.40842 10.1295 1.0482C9.71202 1.37115 9.33374 1.76625 9.00022 2.2274C8.66683 1.76638 8.28841 1.37115 7.8708 1.0482C7.04357 0.40842 6.10376 0.0839844 5.07756 0.0839844C3.70467 0.0839844 2.44179 0.633708 1.52151 1.63184C0.612223 2.6183 0.111328 3.96596 0.111328 5.42673C0.111328 6.93023 0.671631 8.30651 1.87457 9.75806C2.95068 11.0565 4.49731 12.3746 6.28836 13.9009C6.89993 14.4221 7.59315 15.0129 8.31296 15.6423C8.50312 15.8088 8.74712 15.9005 9.00022 15.9005C9.25317 15.9005 9.49731 15.8088 9.6872 15.6425C10.407 15.013 11.1006 14.422 11.7125 13.9004C13.5033 12.3744 15.0499 11.0565 16.126 9.75792C17.3289 8.30651 17.8891 6.93023 17.8891 5.4266C17.8891 3.96596 17.3882 2.6183 16.4788 1.63184Z" fill="#F1EA78"/>
</svg>
