<svg width="35" height="35" viewBox="0 0 35 35" fill="none" xmlns="http://www.w3.org/2000/svg">
<g clip-path="url(#clip0_515_7667)">
<path d="M17.5 2.05078C21.0646 2.05222 24.5191 3.28594 27.2782 5.54291C30.0373 7.79988 31.9313 10.9413 32.6392 14.4349C33.3472 17.9285 32.8256 21.5594 31.1629 24.7125C29.5001 27.8655 26.7985 30.3468 23.5156 31.7358C19.74 33.3313 15.4853 33.3615 11.6874 31.8199C7.88954 30.2784 4.8596 27.2912 3.26416 23.5156C1.66872 19.74 1.63846 15.4853 3.18005 11.6874C4.72164 7.88954 7.7088 4.8596 11.4844 3.26416C13.3874 2.45882 15.4336 2.04611 17.5 2.05078ZM17.5 0C7.83535 0 0 7.83535 0 17.5C0 27.1646 7.83535 35 17.5 35C27.1646 35 35 27.1646 35 17.5C35 7.83535 27.1646 0 17.5 0Z" fill="white"/>
<path d="M22.6058 26.9245C21.5893 26.8562 20.1565 26.5055 18.7579 26.0051C13.8264 24.2401 9.01461 19.5376 7.99195 12.9601C7.81012 11.7891 8.00152 10.7193 8.88883 9.84835C9.18619 9.55714 9.45074 9.23312 9.74127 8.93507C10.835 7.80919 12.4333 7.78048 13.566 8.86193C13.9249 9.20372 14.2899 9.54074 14.6399 9.89347C15.1192 10.3661 15.3967 11.0061 15.4141 11.6789C15.4316 12.3518 15.1877 13.0053 14.7336 13.5022C14.4601 13.8057 14.173 14.0942 13.8845 14.3819C13.5694 14.6964 13.1777 14.8769 12.7573 15.0081C12.2384 15.1708 12.1421 15.3882 12.3779 15.8838C13.8681 19.0051 16.2008 21.2525 19.3758 22.6261C19.8004 22.8093 19.9965 22.7266 20.1674 22.3055C20.542 21.3819 21.2291 20.7086 22.0186 20.1645C22.9121 19.5492 24.1918 19.686 25.038 20.4133C25.502 20.812 25.9453 21.2341 26.3663 21.6779C26.8192 22.1625 27.0709 22.8012 27.0702 23.4645C27.0696 24.1278 26.8167 24.766 26.3629 25.2497C26.2309 25.3933 26.0949 25.5334 25.9684 25.6811C25.2069 26.5663 24.241 26.9806 22.6058 26.9245Z" fill="white"/>
</g>
<defs>
<clipPath id="clip0_515_7667">
<rect width="35" height="35" fill="white"/>
</clipPath>
</defs>
</svg>
