<svg width="60" height="40" viewBox="0 0 60 40" fill="none" xmlns="http://www.w3.org/2000/svg">
<path d="M58.6207 0C59.2341 0 59.7854 0.424145 59.9513 1.05329C60.1353 1.75286 59.7835 2.48528 59.1324 2.75457C54.8083 4.54586 51.6329 7.61643 49.6735 11.8959C55.6703 13.503 59.9998 19.149 59.9998 25.7143C59.9998 33.5917 53.81 40 46.2018 40C38.5937 40 32.4046 33.5917 32.4046 25.7143C32.3931 25.6061 31.1752 4.30729 58.4116 0.0159988C58.4819 0.00485611 58.5513 0 58.6207 0ZM46.2018 37.1429C52.2879 37.1429 57.2388 32.0159 57.2388 25.7143C57.2388 19.9596 53.0805 15.0879 47.5668 14.3834C47.1463 14.329 46.7727 14.0786 46.5544 13.7033C46.3353 13.328 46.2949 12.8697 46.4452 12.4596C47.5526 9.43157 49.1286 6.86114 51.1588 4.76357C34.3216 10.8573 35.15 25.4416 35.1615 25.6083C35.1656 32.0159 40.1165 37.1429 46.2018 37.1429Z" fill="#4DA628"/>
<path d="M26.2269 0C26.8403 0 27.3916 0.424145 27.5575 1.05329C27.7415 1.75286 27.3897 2.48528 26.7386 2.75457C22.4145 4.54586 19.2391 7.61643 17.2797 11.8959C23.2765 13.503 27.606 19.149 27.606 25.7143C27.606 33.5917 21.4162 40 13.808 40C6.19994 40 0.0107918 33.5917 0.0107918 25.7143C-0.000663757 25.6061 -1.21865 4.30729 26.0178 0.0159988C26.0881 0.00485611 26.1575 0 26.2269 0ZM13.808 37.1429C19.8941 37.1429 24.845 32.0159 24.845 25.7143C24.845 19.9596 20.6867 15.0879 15.173 14.3834C14.7525 14.329 14.3789 14.0786 14.1606 13.7033C13.9415 13.328 13.9011 12.8697 14.0514 12.4596C15.1588 9.43157 16.7348 6.86114 18.765 4.76357C1.92776 10.8573 2.75622 25.4416 2.76768 25.6083C2.77182 32.0159 7.7227 37.1429 13.808 37.1429Z" fill="#4DA628"/>
</svg>
