<svg width="62" height="62" viewBox="0 0 62 62" fill="none" xmlns="http://www.w3.org/2000/svg">
<g clip-path="url(#clip0_515_11083)">
<path d="M14.5317 9.41406C6.51751 9.41406 0.000488281 15.9329 0.000488281 23.9453C0.000488281 31.2606 5.43203 37.3306 12.4776 38.3311C11.9136 42.4287 10.349 46.3275 7.90464 49.7085C7.42923 50.3683 7.44703 51.2624 7.95429 51.9009C8.45198 52.5292 9.31684 52.7674 10.0759 52.4473C21.6093 47.6332 29.063 36.4438 29.063 23.9453C29.063 15.9329 22.546 9.41406 14.5317 9.41406ZM47.4692 9.41406C39.455 9.41406 32.938 15.9329 32.938 23.9453C32.938 31.2606 38.3695 37.3306 45.4151 38.3311C44.8511 42.4287 43.2865 46.3275 40.8421 49.7085C40.3667 50.3683 40.3845 51.2624 40.8918 51.9009C41.3895 52.5292 42.2543 52.7674 43.0134 52.4473C54.5468 47.6332 62.0005 36.4438 62.0005 23.9453C62.0005 15.9329 55.4835 9.41406 47.4692 9.41406Z" fill="#F1EA78"/>
</g>
<defs>
<clipPath id="clip0_515_11083">
<rect width="62" height="62" fill="white" transform="translate(0.000488281)"/>
</clipPath>
</defs>
</svg>
