<svg width="29" height="18" viewBox="0 0 29 18" fill="none" xmlns="http://www.w3.org/2000/svg">
<path d="M27.7322 0C28.0224 0 28.2833 0.190865 28.3617 0.47398C28.4488 0.788786 28.2823 1.11838 27.9743 1.23956C25.9286 2.04564 24.4263 3.42739 23.4993 5.35314C26.3364 6.07635 28.3847 8.61705 28.3847 11.5714C28.3847 15.1163 25.4563 18 21.8569 18C18.2575 18 15.3294 15.1163 15.3294 11.5714C15.324 11.5228 14.7478 1.93828 27.6333 0.00720024C27.6665 0.00218582 27.6994 0 27.7322 0ZM21.8569 16.7143C24.7362 16.7143 27.0784 14.4071 27.0784 11.5714C27.0784 8.98181 25.1111 6.78954 22.5026 6.47254C22.3037 6.44805 22.127 6.33536 22.0237 6.16648C21.92 5.9976 21.9009 5.79137 21.972 5.60681C22.4959 4.24421 23.2415 3.08751 24.202 2.14361C16.2363 4.88578 16.6283 11.4487 16.6337 11.5237C16.6356 14.4071 18.9779 16.7143 21.8569 16.7143Z" fill="white"/>
<path d="M12.408 0C12.6982 0 12.959 0.190865 13.0375 0.47398C13.1246 0.788786 12.9581 1.11838 12.6501 1.23956C10.6044 2.04564 9.1021 3.42739 8.17507 5.35314C11.0122 6.07635 13.0604 8.61705 13.0604 11.5714C13.0604 15.1163 10.132 18 6.53266 18C2.93327 18 0.0051899 15.1163 0.0051899 11.5714C-0.000229836 11.5228 -0.576456 1.93828 12.3091 0.00720024C12.3423 0.00218582 12.3752 0 12.408 0ZM6.53266 16.7143C9.41196 16.7143 11.7542 14.4071 11.7542 11.5714C11.7542 8.98181 9.78692 6.78954 7.17843 6.47254C6.97945 6.44805 6.80275 6.33536 6.69944 6.16648C6.5958 5.9976 6.57667 5.79137 6.64778 5.60681C7.1717 4.24421 7.91732 3.08751 8.87779 2.14361C0.912106 4.88578 1.30405 11.4487 1.30947 11.5237C1.31143 14.4071 3.65368 16.7143 6.53266 16.7143Z" fill="white"/>
</svg>
