<svg width="38" height="30" viewBox="0 0 38 30" fill="none" xmlns="http://www.w3.org/2000/svg">
<path d="M24.0376 13.0846C24.0376 12.5876 23.5338 12.1846 22.9126 12.1846H10.5376C9.91635 12.1846 9.4126 12.5876 9.4126 13.0846C9.4126 13.5816 9.91635 13.9846 10.5376 13.9846H22.9126C23.5338 13.9846 24.0376 13.5816 24.0376 13.0846Z" fill="black"/>
<path d="M10.5349 16.7295C9.91366 16.7295 9.40991 17.1325 9.40991 17.6295C9.40991 18.1265 9.91366 18.5295 10.5349 18.5295H17.0962C17.7174 18.5295 18.2212 18.1265 18.2212 17.6295C18.2212 17.1325 17.7174 16.7295 17.0962 16.7295H10.5349Z" fill="black"/>
<path d="M31.45 13.1347C30.8287 13.1347 30.325 13.5377 30.325 14.0347V21.3137C30.325 22.6757 28.94 23.7837 27.2375 23.7837H19.7125C19.4687 23.7837 19.2312 23.8467 19.0362 23.9647L12.5387 27.8737C12.3737 27.9727 12.2187 27.9317 12.1412 27.8977C12.0625 27.8657 11.9325 27.7867 11.9375 27.6257L12.0625 24.7157C12.0725 24.4717 11.9587 24.2347 11.7475 24.0597C11.5362 23.8837 11.2437 23.7847 10.9387 23.7847H5.7125C4.01 23.7847 2.625 22.6777 2.625 21.3147V9.41474C2.625 8.04774 4.01 6.93574 5.7125 6.93574H19.575C20.1962 6.93574 20.7 6.53274 20.7 6.03574C20.7 5.53874 20.1962 5.13574 19.575 5.13574H5.7125C2.77 5.13574 0.375 7.05574 0.375 9.41574V21.3147C0.375 23.6687 2.77 25.5857 5.7125 25.5857H9.77375L9.68875 27.5677C9.65875 28.3817 10.2 29.1217 11.1037 29.4967C11.49 29.6577 11.9062 29.7367 12.3187 29.7367C12.8725 29.7367 13.4212 29.5937 13.8887 29.3147L20.0875 25.5857H27.2363C30.1788 25.5857 32.5737 23.6697 32.5737 21.3147V14.0357C32.575 13.5377 32.0712 13.1347 31.45 13.1347Z" fill="black"/>
<path d="M37.5312 4.56134C37.3274 4.06134 36.8262 3.68734 36.1899 3.56134L33.3149 2.98834L31.7449 0.978344C31.0487 0.084344 29.2312 0.0863439 28.5362 0.978344L26.9662 2.98834L24.0912 3.56134C23.4549 3.68734 22.9524 4.06134 22.7499 4.56134C22.5474 5.06134 22.6774 5.60034 23.0999 6.00334L25.0049 7.81734L24.7974 10.1813C24.7512 10.7053 25.0412 11.2023 25.5724 11.5113C25.9024 11.7033 26.2899 11.8023 26.6824 11.8023C26.9212 11.8023 27.1624 11.7653 27.3937 11.6903L30.1412 10.8023L32.8874 11.6903C33.4962 11.8883 34.1762 11.8203 34.7087 11.5123C35.2399 11.2033 35.5299 10.7063 35.4849 10.1813L35.2774 7.81734L37.1824 6.00234C37.6037 5.60034 37.7349 5.06134 37.5312 4.56134ZM33.2612 6.93834C33.0737 7.11734 32.9799 7.34734 33.0012 7.58134L33.2012 9.85134L30.5637 8.99834C30.4287 8.95434 30.2849 8.93234 30.1424 8.93234C29.9999 8.93234 29.8562 8.95434 29.7212 8.99834L27.0849 9.85134L27.2837 7.58134C27.3037 7.34834 27.2099 7.11734 27.0237 6.93834L25.1949 5.19634L27.9549 4.64534C28.2374 4.58834 28.4824 4.44734 28.6362 4.24934L30.1437 2.32034L31.6512 4.24934C31.8062 4.44734 32.0499 4.58934 32.3324 4.64534L35.0924 5.19634L33.2612 6.93834Z" fill="black"/>
</svg>
