<svg width="13" height="10" viewBox="0 0 13 10" fill="none" xmlns="http://www.w3.org/2000/svg">
<path d="M1.97943 4.66842C3.14755 4.66842 4.77252 4.71914 6.34718 4.77016C7.92155 4.77016 9.49592 4.82088 10.7146 4.82088H11.7304C11.6795 4.82088 11.6795 4.77016 11.6289 4.77016C10.9567 4.43861 10.3403 4.01026 9.80067 3.49971C9.65086 3.35941 9.51486 3.2059 9.39443 3.04117C9.2601 2.90057 9.14112 2.74691 9.03938 2.58263L8.73462 2.12409C8.63313 1.97163 8.58224 1.81916 8.48076 1.66555C8.42987 1.51309 8.32838 1.41135 8.32838 1.25888C8.27206 1.16715 8.23693 1.06469 8.22541 0.95854C8.19711 0.871832 8.16322 0.786931 8.12393 0.704337C8.24413 0.703416 8.36362 0.686344 8.47898 0.653611C8.60083 0.609208 8.71988 0.557916 8.83552 0.5C8.83998 0.586639 8.85712 0.672227 8.88641 0.754203C8.88641 0.855942 8.9373 0.906668 8.9373 1.05913C8.9373 1.16087 9.03878 1.31334 9.03878 1.41479C9.08967 1.56725 9.14027 1.66899 9.19116 1.82146C9.25563 1.98399 9.34092 2.13804 9.44502 2.28L9.74978 2.73854C9.85152 2.90281 9.9705 3.05648 10.1048 3.19708C10.5717 3.72322 11.1412 4.15495 11.7807 4.46752C11.9929 4.58405 12.2137 4.68521 12.4414 4.77016L13 5.02436L12.3905 5.22755C12.1815 5.31789 11.978 5.4197 11.781 5.53248C11.1585 5.87028 10.5932 6.29877 10.1051 6.80292C9.9708 6.94353 9.85182 7.09719 9.75007 7.26146L9.44532 7.72C9.34383 7.87247 9.29294 8.02493 9.19146 8.17854C9.12658 8.30875 9.07552 8.44501 9.03908 8.58521C8.98832 8.69861 8.95416 8.81832 8.93759 8.94087C8.8961 9.03722 8.87866 9.14169 8.8867 9.2458C8.85741 9.32777 8.84028 9.41336 8.83581 9.5C8.72063 9.44252 8.60207 9.39162 8.48076 9.34754C8.3654 9.3148 8.24591 9.29773 8.1257 9.29681C8.16499 9.21421 8.19888 9.12931 8.22719 9.04261C8.27808 8.94087 8.27808 8.83942 8.32868 8.73768C8.38789 8.60522 8.43878 8.46942 8.48105 8.33101C8.54553 8.16847 8.63082 8.01442 8.73492 7.87247C8.81813 7.70888 8.92038 7.55503 9.03967 7.41393C9.14142 7.24966 9.26041 7.096 9.39472 6.95539C9.5471 6.80292 9.64859 6.65046 9.80097 6.49685C10.3309 5.97637 10.9488 5.54748 11.628 5.2287C11.6789 5.2287 11.6789 5.17797 11.7295 5.17797H10.7146C9.54651 5.17797 7.92155 5.2287 6.34718 5.2287C4.77281 5.27942 3.19844 5.27942 1.97943 5.33044C0.811298 5.37973 0 5.37973 0 5.37973C0.0287728 5.26305 0.045816 5.14394 0.0508911 5.02407C0.045816 4.90421 0.0287728 4.7851 0 4.66842C0.659389 4.63618 1.32004 4.63618 1.97943 4.66842Z" fill="#F1EA78"/>
</svg>
