<svg width="36" height="40" viewBox="0 0 36 40" fill="none" xmlns="http://www.w3.org/2000/svg">
<path d="M15.9569 14.3348C15.7206 14.5559 15.7082 14.9267 15.9292 15.163C16.4506 15.7205 17.2053 16.0402 17.9998 16.0402C18.7942 16.0402 19.5489 15.7205 20.0703 15.163C20.2914 14.9267 20.279 14.5559 20.0426 14.3348C19.8062 14.1137 19.4355 14.1261 19.2144 14.3625C18.9137 14.6839 18.471 14.8683 17.9997 14.8683C17.5283 14.8683 17.0856 14.6839 16.785 14.3625C16.5641 14.126 16.1933 14.1138 15.9569 14.3348Z" fill="black"/>
<path d="M15.8813 11.2998C15.8813 10.9762 15.619 10.7139 15.2954 10.7139C14.9718 10.7139 14.7095 10.9762 14.7095 11.2998V11.8937C14.7095 12.2173 14.9718 12.4796 15.2954 12.4796C15.619 12.4796 15.8813 12.2173 15.8813 11.8937V11.2998Z" fill="black"/>
<path d="M14.1448 10.0917C14.3012 10.0917 14.4575 10.0294 14.5728 9.90602C14.7503 9.71625 15.0136 9.60742 15.2953 9.60742C15.577 9.60742 15.8403 9.71625 16.0178 9.90602C16.2389 10.1423 16.6097 10.1547 16.846 9.93367C17.0823 9.71258 17.0948 9.3418 16.8737 9.10547C16.4754 8.67969 15.9001 8.43555 15.2952 8.43555C14.6905 8.43555 14.1152 8.67977 13.7169 9.10555C13.4958 9.34187 13.5082 9.71266 13.7445 9.93375C13.8577 10.0395 14.0013 10.0917 14.1448 10.0917Z" fill="black"/>
<path d="M20.7043 10.7139C20.3808 10.7139 20.1184 10.9762 20.1184 11.2998V11.8937C20.1184 12.2173 20.3808 12.4796 20.7043 12.4796C21.0279 12.4796 21.2903 12.2173 21.2903 11.8937V11.2998C21.2903 10.9762 21.0279 10.7139 20.7043 10.7139Z" fill="black"/>
<path d="M19.9819 9.90609C20.1594 9.71633 20.4228 9.6075 20.7044 9.6075C20.9861 9.6075 21.2494 9.71633 21.4269 9.90609C21.5423 10.0295 21.6985 10.0918 21.8549 10.0918C21.9984 10.0918 22.1421 10.0395 22.2551 9.93375C22.4915 9.71266 22.5039 9.34187 22.2828 9.10555C21.8846 8.67977 21.3093 8.43555 20.7044 8.43555C20.0996 8.43555 19.5243 8.67977 19.126 9.10555C18.905 9.34187 18.9174 9.71266 19.1538 9.93375C19.3899 10.1548 19.7608 10.1425 19.9819 9.90609Z" fill="black"/>
<path d="M35.2159 37.4413C35.1779 36.8391 34.9219 36.2845 34.492 35.867L29.6587 26.3505C29.4301 25.9004 29.147 25.482 28.8198 25.1022V17.5012C29.2435 17.5992 29.4279 17.6552 29.731 17.6551C30.2095 17.6551 30.6765 17.4944 31.0611 17.189C31.5766 16.7796 31.8723 16.1673 31.8723 15.5091V10.4292C31.8723 9.24625 30.9095 8.28383 29.7261 8.28383H27.0839V6.21586C27.0839 5.75734 27.0162 5.3057 26.8829 4.87352C26.7873 4.5643 26.4592 4.39102 26.1501 4.48641C25.8409 4.58187 25.6676 4.90992 25.763 5.21914C25.8618 5.5393 25.9119 5.87461 25.9119 6.21586V10.3101C25.7982 10.3063 25.9804 10.3094 24.6152 10.3082V7.19688C24.6152 5.6207 23.3329 4.33844 21.7568 4.33844H18.7971C18.3532 4.33844 17.9469 4.61195 17.7861 5.01906C17.4772 5.80094 16.7345 6.30609 15.8937 6.30609H13.0565C12.1346 6.30609 11.3846 7.05602 11.3846 7.97789V10.3081C11.3846 10.3081 10.1121 10.3091 10.0879 10.31V8.46195C10.0879 8.06 9.86497 7.69461 9.50505 7.50773C8.80427 7.14594 8.36896 6.43234 8.36896 5.64547C8.36896 4.72531 8.9588 3.92203 9.83622 3.6468C10.1857 3.53742 10.4447 3.24523 10.5124 2.88312C10.6957 1.89156 11.5617 1.17188 12.5715 1.17188C13.3377 1.17188 14.0424 1.59031 14.4106 2.26398C14.6046 2.61875 14.9747 2.83906 15.3762 2.83906H22.5358C23.1885 2.83906 23.8219 3.0257 24.3676 3.37867C24.6393 3.55453 25.0022 3.47672 25.1779 3.205C25.3536 2.93328 25.2759 2.57055 25.0042 2.39477C24.2684 1.91875 23.4149 1.66711 22.5358 1.66711H15.4196C14.841 0.637813 13.7533 0 12.5716 0C11.0329 0 9.70825 1.07187 9.38169 2.56312C8.07044 3.02227 7.19716 4.24734 7.19716 5.64555C7.19716 6.70273 7.70052 7.67484 8.53739 8.28391H6.27372C5.09036 8.28391 4.12755 9.24633 4.12755 10.4293V15.5091C4.12755 16.1673 4.42325 16.7797 4.9388 17.1891C5.32357 17.4946 5.79044 17.6552 6.26888 17.6552C6.43161 17.6552 6.59568 17.6366 6.75825 17.5988C6.89474 17.5673 7.03567 17.5346 7.18005 17.5013V25.1023C6.85286 25.482 6.56974 25.9005 6.34114 26.3505L1.50778 35.8671C1.07786 36.2846 0.821925 36.8391 0.783956 37.4413C0.743409 38.0834 0.955362 38.7029 1.38122 39.1862C1.85685 39.7248 2.52177 40 3.18982 40C3.75599 40 4.32442 39.8022 4.78138 39.3996L5.75567 38.541C5.99849 38.327 6.02177 37.9568 5.80786 37.714C5.59396 37.4713 5.22372 37.4479 4.98083 37.6618L4.00661 38.5204C3.49482 38.9713 2.71122 38.9219 2.26013 38.411C1.8081 37.898 1.85716 37.1174 2.37052 36.6652L8.08099 31.6309V32.6782C8.08099 33.3286 8.57411 33.8655 9.20599 33.936L7.04716 35.8392C6.80443 36.0532 6.78114 36.4235 6.99513 36.6663C7.20849 36.9082 7.57864 36.933 7.82216 36.7183L8.98083 35.6968V38.3998C8.98083 38.9384 9.41896 39.3764 9.95739 39.3764H26.0424C26.5809 39.3764 27.019 38.9383 27.019 38.3998V35.6974L31.2185 39.3997C31.6754 39.8023 32.2436 40 32.8098 40C33.4779 40 34.1431 39.7247 34.619 39.1857C35.0444 38.7028 35.2564 38.0834 35.2159 37.4413ZM32.1084 33.7619L27.9188 30.0684V28.6614C27.9188 28.0906 27.539 27.6073 27.019 27.4497V25.0345C27.688 25.5108 28.2398 26.1446 28.6138 26.8811L32.1084 33.7619ZM9.34716 32.7724C9.29513 32.7724 9.25286 32.7301 9.25286 32.6781V28.6615C9.25286 28.6095 9.29521 28.5672 9.34716 28.5672H11.7487C12.1286 28.5672 12.4376 28.8762 12.4376 29.2561V32.0836C12.4376 32.4634 12.1286 32.7725 11.7487 32.7725H9.34716V32.7724ZM13.754 22.9538C15.0236 23.7619 16.4847 24.1877 17.9999 24.1877C19.5151 24.1877 20.9761 23.7619 22.2458 22.9538L23.2899 23.3758V25.5902H12.7099V23.3757L13.754 22.9538ZM17.9999 20.3863C18.7895 20.3863 19.7997 20.0557 20.7945 19.4973V21.4945C20.7945 21.7868 20.8916 22.0609 21.0611 22.2817C20.1177 22.7633 19.075 23.0157 17.9999 23.0157C16.9247 23.0157 15.8822 22.7633 14.9388 22.2818C15.1081 22.061 15.2053 21.7869 15.2053 21.4945V19.4973C16.2 20.0556 17.2103 20.3863 17.9999 20.3863ZM25.8471 27.3952H24.4618C24.4618 24.7445 24.4618 25.6251 24.4618 22.9424L25.6782 23.3564C25.7792 23.3907 25.8471 23.4858 25.8471 23.593V27.3952ZM11.5379 22.97V22.9739C11.535 23.4995 11.5379 26.8588 11.5379 27.3952H10.1527V23.593C10.1527 23.4859 10.2206 23.3908 10.322 23.3563L11.5379 22.9424V22.97ZM12.7099 33.6762C13.2486 33.3499 13.6096 32.758 13.6096 32.0835V29.256C13.6096 28.5814 13.2487 27.9896 12.7099 27.6633V26.762H23.29V27.6633C22.7512 27.9896 22.3903 28.5815 22.3903 29.256V32.0835C22.3903 32.7581 22.7511 33.3499 23.29 33.6762V38.2045H12.7099V33.6762ZM24.2511 32.7724C23.8712 32.7724 23.5622 32.4634 23.5622 32.0835V29.256C23.5622 28.8762 23.8712 28.5671 24.2511 28.5671H26.6526C26.7047 28.5671 26.7469 28.6095 26.7469 28.6614V32.678C26.7469 32.7301 26.7046 32.7723 26.6526 32.7723H24.2511V32.7724ZM27.6479 24.0441C27.4464 23.9036 27.2364 23.7751 27.019 23.6588V23.593C27.019 22.9836 26.6315 22.4426 26.0554 22.2469L24.5783 21.7441C24.2821 21.6427 23.953 21.6909 23.6979 21.873C23.587 21.9523 23.497 22.0537 23.429 22.1679L22.0433 21.6079C21.9966 21.5889 21.9665 21.5444 21.9665 21.4945V18.7225C22.7901 18.0908 23.5525 17.3168 24.0519 16.402C24.7686 16.5655 26.2355 16.9038 27.6479 17.2302V24.0441ZM27.0838 9.45578H29.7261C30.2633 9.45578 30.7004 9.8925 30.7004 10.4292V15.5091C30.7004 15.8077 30.5662 16.0855 30.3322 16.2713C30.0983 16.457 29.7973 16.5248 29.5058 16.457C29.3653 16.4245 25.4288 15.5147 24.4921 15.3005C24.5478 15.0826 24.5808 14.8827 24.5982 14.7051H25.8392C27.0515 14.7051 28.0377 13.7188 28.0377 12.5066C28.0377 11.756 27.6594 11.0924 27.0837 10.6955L27.0838 9.45578ZM25.8393 11.4801C26.4054 11.4801 26.8659 11.9406 26.8659 12.5067C26.8659 13.0727 26.4054 13.5333 25.8393 13.5333H24.6152V11.4801H25.8393ZM13.0565 7.47805H15.8937C17.1968 7.47805 18.3506 6.70789 18.8514 5.51039H21.7568C22.6867 5.51039 23.4433 6.26695 23.4433 7.19695V14.3676C23.4433 16.6735 19.8854 19.2144 18 19.2144C16.1098 19.2144 12.5566 16.6734 12.5566 14.3676C12.5566 13.0017 12.5566 9.36328 12.5566 7.97805C12.5565 7.70227 12.7808 7.47805 13.0565 7.47805ZM11.3846 11.4801V13.5333H10.1605C9.59443 13.5333 9.13388 13.0727 9.13388 12.5067C9.13388 11.9406 9.59443 11.4801 10.1605 11.4801H11.3846ZM6.49325 16.4573C6.20255 16.5251 5.90146 16.4572 5.66747 16.2714C5.43357 16.0856 5.29935 15.8078 5.29935 15.5092V10.4294C5.29935 9.89258 5.73638 9.45594 6.27364 9.45594H8.91591V10.6959C8.34021 11.0927 7.96193 11.7563 7.96193 12.5069C7.96193 13.7191 8.94817 14.7054 10.1604 14.7054H11.4015C11.4188 14.883 11.4518 15.0829 11.5075 15.3008C10.5709 15.5148 6.63403 16.4247 6.49325 16.4573ZM11.9479 16.4021C12.4473 17.3169 13.2097 18.0909 14.0333 18.7227V21.4946C14.0333 21.5445 14.0032 21.5891 13.9575 21.6076L12.5708 22.168C12.5027 22.0538 12.4127 21.9523 12.3018 21.8731C12.0468 21.6909 11.7177 21.6427 11.4225 21.7438L9.94474 22.2468C9.36817 22.4426 8.98075 22.9836 8.98075 23.593V23.6588C8.76333 23.7751 8.55333 23.9037 8.35185 24.0441V17.2302C9.76435 16.9039 11.2312 16.5656 11.9479 16.4021ZM3.8913 33.762L7.38591 26.8812C7.75989 26.1448 8.31169 25.5109 8.98075 25.0345V27.4498C8.46067 27.6073 8.08091 28.0907 8.08091 28.6615V30.0684L3.8913 33.762ZM10.1527 34.6636L10.9686 33.9443H11.5379V38.2045H10.1527V34.6636ZM25.8471 38.2045H24.4618V33.9443H25.0304L25.8471 34.6643V38.2045ZM33.7401 38.4105C33.2885 38.9219 32.5047 38.9712 31.9933 38.5205L26.7932 33.936C27.4254 33.8658 27.9189 33.3287 27.9189 32.678V31.6307L33.6295 36.6652C33.8774 36.8836 34.0254 37.1855 34.0463 37.5151C34.0671 37.8448 33.9583 38.163 33.7401 38.4105Z" fill="black"/>
</svg>
