<svg width="40" height="40" viewBox="0 0 40 40" fill="none" xmlns="http://www.w3.org/2000/svg">
<g clip-path="url(#clip0_515_6490)">
<path d="M21.8085 36.3154C21.3773 36.3154 21.0272 36.6652 21.0272 37.0967V39.2189C21.0272 39.6504 21.3773 40.0001 21.8085 40.0001C22.24 40.0001 22.5897 39.6504 22.5897 39.2189V37.0967C22.5897 36.6652 22.24 36.3154 21.8085 36.3154Z" fill="#FA6741"/>
<path d="M14.4678 33.3877C14.0363 33.3877 13.6865 33.7377 13.6865 34.1689V39.2187C13.6865 39.6502 14.0363 39.9999 14.4678 39.9999C14.8993 39.9999 15.249 39.6502 15.249 39.2187V34.1689C15.249 33.7377 14.8993 33.3877 14.4678 33.3877Z" fill="#FA6741"/>
<path d="M33.0701 6.17706C30.1068 6.17706 27.6962 8.58765 27.6962 11.5509C27.6962 12.2171 27.8183 12.8702 28.0591 13.4912C28.1567 13.7436 29.6182 16.4572 30.9174 18.8553H30.2368C29.794 18.8553 29.3954 18.6096 29.1959 18.2144L26.8338 13.5281C25.9836 11.8414 24.4907 10.6372 22.7338 10.1471V5.979C22.7338 5.54749 22.384 5.19775 21.9525 5.19775H20.1031C19.8325 2.28668 17.3767 0 14.3961 0C11.4154 0 8.95996 2.28668 8.68927 5.19775H6.85791C6.4267 5.19775 6.07666 5.54749 6.07666 5.979V10.2408C3.45734 11.1136 1.5625 13.5867 1.5625 16.496V20.8783C1.5625 23.2101 3.22754 25.1596 5.43091 25.6024C5.2243 25.7431 5.08881 25.9799 5.08881 26.2485C5.08881 26.68 5.43854 27.0297 5.87006 27.0297C5.97168 27.0297 6.07056 27.0251 6.16821 27.0178V39.2188C6.16821 39.6503 6.51825 40 6.94946 40C7.38098 40 7.73071 39.6503 7.73071 39.2188V26.5125C8.06061 26.3068 8.37738 26.0367 8.69202 25.6973H9.01184C10.7538 25.6973 12.1707 24.2804 12.1707 22.5385C12.1707 21.6483 11.7996 20.8432 11.2051 20.2686C11.2698 19.7379 11.2799 19.27 11.235 18.8235C11.1981 18.457 11.1356 18.1033 11.0748 17.7612C11.0361 17.5439 10.9998 17.3389 10.9698 17.1332C10.8838 16.5381 10.7758 15.9421 10.6714 15.3659C10.6195 15.0793 10.5673 14.7931 10.5182 14.5065L9.99451 11.4655H18.938L17.8867 17.6675C17.4017 20.5286 18.1992 23.3902 20.0748 25.5191C20.1251 25.5759 20.1761 25.6326 20.228 25.6888L20.3867 25.8606C20.5792 26.069 20.795 26.2515 21.0272 26.4075V31.1462C21.0272 31.5778 21.377 31.9275 21.8085 31.9275C22.24 31.9275 22.5897 31.5778 22.5897 31.1462V26.998C22.7444 27.0181 22.9007 27.0297 23.0582 27.0297C23.4894 27.0297 23.8394 26.68 23.8394 26.2485C23.8394 25.817 23.4894 25.4672 23.0582 25.4672C22.8992 25.4672 22.7423 25.448 22.5897 25.4126V20.6015L23.6746 22.7704C24.4177 24.2548 25.9103 25.177 27.5702 25.177H33.396C35.1376 25.177 36.5546 23.7601 36.5546 22.0142C36.5546 20.8731 35.9335 19.8434 34.9884 19.2877C36.3394 16.7957 37.9773 13.7592 38.0811 13.4915V13.4912C38.3215 12.8702 38.4436 12.2174 38.4436 11.5509C38.4436 8.58795 36.033 6.17706 33.0701 6.17706ZM14.3961 1.5625C16.6956 1.5625 18.5663 3.43323 18.5663 5.73273C18.5663 5.80292 18.5645 5.8728 18.5611 5.94238C18.5608 5.94543 18.5608 5.94849 18.5605 5.95154C18.4464 8.14972 16.6223 9.90295 14.3961 9.90295C12.0966 9.90295 10.2258 8.03223 10.2258 5.73273C10.2258 3.43323 12.0969 1.5625 14.3961 1.5625ZM8.97827 14.7717C9.02832 15.0629 9.08112 15.3537 9.13391 15.6448C9.23615 16.2073 9.34174 16.7892 9.42352 17.3566C9.45709 17.5873 9.49738 17.8146 9.53613 18.0344C9.59442 18.3621 9.64935 18.6719 9.68018 18.9795C9.69574 19.1336 9.70215 19.2911 9.70001 19.4562C9.47815 19.4067 9.24835 19.3799 9.01184 19.3799H8.05023V16.4264C8.05023 15.9949 7.7005 15.6451 7.26898 15.6451C6.83777 15.6451 6.48773 15.9949 6.48773 16.4264V19.4275C6.48773 20.2628 7.16736 20.9424 8.00293 20.9424H9.01184C9.89197 20.9424 10.6082 21.6586 10.6082 22.5388C10.6082 23.4189 9.89197 24.1348 9.01184 24.1348H6.38153C4.58588 24.1348 3.125 22.674 3.125 20.8783V16.496C3.125 13.7222 5.38147 11.4655 8.15552 11.4655H8.40912L8.97827 14.7717ZM9.72565 9.90295L9.70306 9.77173C9.62982 9.34631 9.22485 9.06097 8.80035 9.13422C8.4201 9.19983 8.15247 9.53003 8.15247 9.90326C7.97974 9.90326 7.80884 9.9118 7.63916 9.92523V6.76025H8.75732C8.98071 7.98798 9.59564 9.08051 10.4688 9.90295H9.72565ZM18.3237 9.90295C19.1968 9.08051 19.8117 7.98798 20.0348 6.76025H21.1713V9.90692C21.0965 9.90448 21.0217 9.90295 20.9464 9.90295H20.7758C20.7758 9.52911 20.5069 9.1983 20.1257 9.13391C19.7003 9.06219 19.2972 9.34814 19.2252 9.77356L19.2032 9.90295H18.3237ZM34.9924 22.0184C34.9924 22.8986 34.2761 23.6145 33.396 23.6145H27.5702C26.5057 23.6145 25.5484 23.0231 25.0723 22.0712L22.5073 16.9446C22.345 16.6205 21.9815 16.4508 21.629 16.5338C21.2762 16.6171 21.0272 16.9318 21.0272 17.294V24.2239C19.6237 22.4808 19.0411 20.2069 19.4275 17.9288L20.5228 11.4655H20.9464C22.8571 11.4655 24.5782 12.5253 25.4382 14.2316L27.8006 18.9175C28.2669 19.8428 29.2004 20.4178 30.2365 20.4178H31.7648C31.9897 20.8316 32.1945 21.2082 32.3682 21.5277C32.4844 21.7578 32.7081 21.9208 32.9639 21.9568C33.2803 22.0013 33.6038 21.8362 33.7561 21.5561C33.8989 21.2939 34.0634 20.9912 34.2429 20.661C34.697 20.9473 34.9924 21.4554 34.9924 22.0184ZM36.6284 12.9156C36.4697 13.2632 34.6829 16.5738 33.1985 19.31C33.1979 19.3112 33.197 19.3121 33.1964 19.3134L33.0701 19.5462L32.9166 19.2636C32.9166 19.2633 32.9163 19.2633 32.9163 19.263C31.4368 16.5359 29.6695 13.2611 29.5117 12.9156C29.3439 12.4786 29.2587 12.0193 29.2587 11.5509C29.2587 9.44916 30.9686 7.73956 33.0701 7.73956C35.1715 7.73956 36.8811 9.44916 36.8811 11.5509C36.8811 12.0193 36.7963 12.4786 36.6284 12.9156Z" fill="#FA6741"/>
<path d="M33.0701 8.95605C31.6388 8.95605 30.4745 10.1203 30.4745 11.5513C30.4745 12.9825 31.6388 14.1468 33.0701 14.1468C34.501 14.1468 35.6656 12.9825 35.6656 11.5513C35.6656 10.1203 34.501 8.95605 33.0701 8.95605ZM33.0701 12.5843C32.5006 12.5843 32.037 12.121 32.037 11.5513C32.037 10.9818 32.5006 10.5182 33.0701 10.5182C33.6395 10.5182 34.1031 10.9818 34.1031 11.5513C34.1031 12.121 33.6395 12.5843 33.0701 12.5843Z" fill="#FA6741"/>
<path d="M22.5296 33.8348C22.4017 33.5278 22.085 33.3307 21.7523 33.3545C21.4279 33.378 21.1481 33.6078 21.0577 33.9197C20.9677 34.2319 21.0886 34.5804 21.3538 34.769C21.6171 34.9557 21.973 34.9612 22.2421 34.7833C22.5504 34.5798 22.6688 34.1745 22.5296 33.8348Z" fill="#FA6741"/>
</g>
<defs>
<clipPath id="clip0_515_6490">
<rect width="40" height="40" fill="white"/>
</clipPath>
</defs>
</svg>
