<svg width="22" height="16" viewBox="0 0 22 16" fill="none" xmlns="http://www.w3.org/2000/svg">
<path d="M3.3498 7.41052C5.32663 7.41052 8.07656 7.5007 10.7414 7.59139C13.4057 7.59139 16.07 7.68157 18.1325 7.68157H19.8514C19.7653 7.68157 19.7653 7.59139 19.6797 7.59139C18.5421 7.00198 17.4989 6.24047 16.5857 5.33282C16.3322 5.08339 16.1021 4.81049 15.8983 4.51764C15.6709 4.26768 15.4696 3.9945 15.2974 3.70246L14.7817 2.88728C14.6099 2.61623 14.5238 2.34518 14.352 2.07209C14.2659 1.80104 14.0942 1.62018 14.0942 1.34913C13.9989 1.18605 13.9394 1.00388 13.9199 0.815183C13.872 0.661035 13.8147 0.510099 13.7482 0.363266C13.9516 0.361628 14.1538 0.331279 14.349 0.273086C14.5552 0.194148 14.7567 0.102962 14.9524 0C14.96 0.154025 14.989 0.306181 15.0385 0.451917C15.0385 0.632786 15.1247 0.722965 15.1247 0.994013C15.1247 1.17488 15.2964 1.44593 15.2964 1.62629C15.3825 1.89734 15.4681 2.07821 15.5543 2.34925C15.6634 2.63821 15.8077 2.91208 15.9839 3.16444L16.4996 3.97962C16.6718 4.27167 16.8732 4.54485 17.1005 4.7948C17.8906 5.73016 18.8544 6.49768 19.9365 7.05337C20.2957 7.26054 20.6694 7.44037 21.0546 7.59139L22 8.04331L20.9685 8.40453C20.6149 8.56514 20.2705 8.74614 19.937 8.94663C18.8835 9.54717 17.927 10.3089 17.101 11.2052C16.8737 11.4552 16.6723 11.7283 16.5001 12.0204L15.9844 12.8356C15.8126 13.1066 15.7265 13.3777 15.5548 13.6507C15.445 13.8822 15.3586 14.1245 15.2969 14.3737C15.211 14.5753 15.1532 14.7881 15.1252 15.006C15.0549 15.1773 15.0254 15.363 15.039 15.5481C14.9895 15.6938 14.9605 15.846 14.9529 16C14.758 15.8978 14.5574 15.8073 14.352 15.729C14.1568 15.6708 13.9546 15.6404 13.7512 15.6388C13.8177 15.4919 13.875 15.341 13.9229 15.1869C14.0091 15.006 14.0091 14.8256 14.0947 14.6448C14.1949 14.4093 14.281 14.1679 14.3525 13.9218C14.4617 13.6328 14.606 13.359 14.7822 13.1066C14.923 12.8158 15.096 12.5423 15.2979 12.2914C15.4701 11.9994 15.6715 11.7262 15.8988 11.4762C16.1566 11.2052 16.3284 10.9341 16.5862 10.6611C17.4831 9.73577 18.5288 8.97329 19.6782 8.40657C19.7643 8.40657 19.7643 8.31639 19.8499 8.31639H18.1325C16.1556 8.31639 13.4057 8.40657 10.7414 8.40657C8.07706 8.49675 5.41275 8.49675 3.3498 8.58744C1.37297 8.67507 0 8.67507 0 8.67507C0.0486924 8.46764 0.0775347 8.25589 0.0861233 8.0428C0.0775347 7.8297 0.0486924 7.61796 0 7.41052C1.11589 7.3532 2.23391 7.3532 3.3498 7.41052Z" fill="white"/>
</svg>
