<svg width="40" height="40" viewBox="0 0 40 40" fill="none" xmlns="http://www.w3.org/2000/svg">
<g clip-path="url(#clip0_515_5544)">
<path d="M40.0001 19.3254C40.0001 28.5118 33.2242 36.1452 24.4079 37.4912C24.4823 37.0835 24.5031 36.6612 24.4531 36.2334C24.4531 36.2334 24.4004 35.7832 24.3315 35.194C27.4616 34.6607 30.2876 33.2244 32.5276 31.1589C32.3931 31.0471 32.2592 30.902 32.1272 30.7095C31.5323 29.8414 32.3102 28.9801 32.3102 28.2211C32.3102 27.4765 30.8091 27.5377 30.7541 27.0446C30.5644 25.3367 31.8021 25.3135 32.462 24.6536C33.1219 23.9937 31.8098 22.4935 30.9623 22.5903C30.109 22.6814 27.7072 22.1963 27.9267 20.3587C28.1941 18.1206 25.0753 18.318 24.6287 17.2734C23.9776 15.7507 25.0599 13.883 26.4716 13.4587C28.471 12.8577 30.4408 11.2265 30.2869 9.41073C30.1126 7.35419 29.1818 5.49948 27.6486 4.39772C26.0532 3.75138 24.3329 3.35171 22.533 3.25086C20.9267 3.31439 19.5144 3.67138 19.5788 4.4068C19.7368 6.20903 24.8617 6.67713 24.0017 8.36184C23.5533 9.24007 20.1884 10.4796 20.8168 11.7867C21.2255 12.6367 22.2315 11.9082 21.8559 13.54C21.6831 14.2909 21.0248 15.7016 20.0123 15.7927C18.9769 15.8894 18.1148 13.1465 15.2966 13.0565C13.9643 13.0139 12.0874 15.1352 13.6811 16.6402C14.6462 17.5516 16.4572 15.5448 16.9918 17.1124C17.3684 18.2171 16.941 20.5376 18.699 21.5074C19.3399 21.8609 20.3223 22.1691 21.2939 22.6628C19.8518 22.9573 18.0797 23.5069 15.9872 24.3129L14.2242 23.8477C14.9623 23.2333 16.1614 22.8009 15.8597 21.4584C15.4165 19.486 11.9919 20.2299 9.63091 17.869C8.90659 17.1448 7.36169 14.74 7.36803 11.8509C6.19117 14.0863 5.52136 16.6285 5.52136 19.3254C5.52136 20.1556 5.5847 20.9712 5.70646 21.7679C5.67868 21.7675 5.65123 21.7626 5.62352 21.7626C4.87999 21.7626 4.15078 21.9188 3.47496 22.2142C3.32568 21.2727 3.246 20.3084 3.246 19.3255C3.246 9.19249 11.49 0.948242 21.6229 0.948242C31.7561 0.948111 40.0001 9.19236 40.0001 19.3254ZM26.215 24.6817L21.7268 26.7448L21.7964 25.7668L24.704 24.4543C24.2893 24.4246 23.8596 24.4133 23.4306 24.4133C21.8241 24.4133 19.1099 25.2265 16.108 26.418L6.48006 23.8785C5.58032 23.6411 4.62241 23.7873 3.83437 24.2824L3.36097 24.5798C2.89882 24.8701 2.89391 25.542 3.35176 25.8392L9.13927 29.5939C7.75672 30.301 6.44502 31.0191 5.28868 31.7049L2.31888 30.1326C1.83378 29.8758 1.26025 29.8454 0.750776 30.0494L0.469665 30.1621C0.0504492 30.3299 -0.125172 30.8284 0.0963969 31.222L1.73241 34.1286C1.11515 34.6597 0.764109 35.0998 0.764109 35.4046C0.764109 36.3167 1.88659 36.5447 2.876 36.5447C4.64071 36.5447 27.9457 31.2087 27.9457 26.3744C27.9456 25.4171 27.2908 24.9382 26.215 24.6817ZM16.389 34.1202L21.5173 32.3137C21.7432 32.2341 21.9846 32.3846 22.0124 32.6226L22.462 36.4667C22.5744 37.4273 22.0577 38.3516 21.1807 38.7593L20.6997 38.9829C20.3993 39.1225 20.043 39.0476 19.8241 38.7991L16.2327 34.7194C16.0579 34.5207 16.1393 34.2082 16.389 34.1202Z" fill="#FA6741"/>
</g>
<defs>
<clipPath id="clip0_515_5544">
<rect width="40" height="40" fill="white"/>
</clipPath>
</defs>
</svg>
